<?xml version="1.0" encoding="utf-8"?>
<!-- Generator: Adobe Illustrator 20.1.0, SVG Export Plug-In . SVG Version: 6.00 Build 0)  -->
<svg version="1.1" id="Layer_1" xmlns="http://www.w3.org/2000/svg" xmlns:xlink="http://www.w3.org/1999/xlink" x="0px" y="0px"
   viewBox="0 0 350 200" style="enable-background:new 0 0 350 200;" xml:space="preserve">
<style type="text/css">
  .st0{fill:#FFFFFF;}
</style>
<title>Card back</title>
<desc>Created with Sketch.</desc>
<g id="Page-1">
  <g id="Card-back">
    <g id="Card" transform="translate(0, 0)">
      <path id="Combined-Shape" d="M0,188c0,6.6,5.4,12,12,12h326c6.6,0,12-5.4,12-12V12c0-6.6-5.4-12-12-12H12C5.4,0,0,5.4,0,12V188z
         M177,58.5l24.4,42.3l-10.5,6.1l-14-8.1V58.5z M203.4,104.3L212,119l-17-9.8l0,0L203.4,104.3z M210,122.5h-48.9v-12.2l13.9-8
        L210,122.5L210,122.5z M157.1,122.5H140l17.1-9.9V122.5L157.1,122.5z M138,119l24.4-42.3l10.5,6.1v16L138,119L138,119z
         M164.5,73.2l8.5-14.7v19.7L164.5,73.2L164.5,73.2z"/>
      <path id="Circle" class="st0" d="M175,38c-34.2,0-62,27.8-62,62s27.8,62,62,62s62-27.8,62-62S209.2,38,175,38z M175,160
        c-33.1,0-60-26.9-60-60s26.9-60,60-60s60,26.9,60,60S208.1,160,175,160z"/>
      <g transform="translate(236, 175)"><svg width="100" height="9" viewBox="0 0 100 9" xmlns="http://www.w3.org/2000/svg"><title>MEMBER 0058</title><path d="M3.907 7.473l2.61-5.65v7.03h.729V.172h-.693l-2.942 6.39L.692.172H0v8.68h.73V1.833l2.596 5.64h.581zm8.549-2.684h2.943v-.652h-2.943V.887h4.105V.171h-4.835v8.68h4.835V8.15h-4.105V4.79zm12.183 2.684l2.61-5.65v7.03h.729V.172h-.693l-2.942 6.39-2.919-6.39h-.692v8.68h.73V1.833l2.596 5.64h.581zm7.82 1.38h2.633c1.731 0 2.82-.653 2.82-2.315v-.099c0-1.083-.533-1.687-1.472-1.97.89-.27 1.397-.874 1.397-1.982v-.123c0-1.625-1.1-2.192-2.832-2.192h-2.547v8.68zm4.735-2.512v.135c0 1.268-.84 1.674-2.114 1.674h-1.892V4.765h2.077c1.138 0 1.929.492 1.929 1.576zM33.188.886h1.805c1.274 0 2.114.333 2.114 1.54v.147c0 1.096-.667 1.588-1.793 1.588h-2.126V.886zM42.75 4.79h2.943v-.652H42.75V.887h4.105V.171H42.02v8.68h4.835V8.15H42.75V4.79zm10.7 1.305l2.114 2.758h.878l-2.25-2.88c1.348-.198 2.275-1.096 2.275-2.635v-.32c0-1.823-1.175-2.845-2.918-2.845h-2.523v8.68h.73V6.094h1.694zM51.756.886h1.73c1.312 0 2.251.64 2.251 2.106v.345c0 1.39-.952 2.056-2.25 2.056h-1.731V.886zm16.577 8.102c1.707 0 2.918-1.232 2.918-2.992V3.004C71.251 1.231 70.04 0 68.333 0c-1.73 0-2.93 1.231-2.93 3.004v2.992c0 1.76 1.2 2.992 2.93 2.992zm0-6.895c.334 0 .717.086.717.837v3.14c0 .738-.408.825-.717.825s-.73-.087-.73-.825V2.93c0-.75.384-.837.73-.837zm9.476 6.895c1.706 0 2.918-1.232 2.918-2.992V3.004C80.727 1.231 79.515 0 77.81 0c-1.731 0-2.93 1.231-2.93 3.004v2.992c0 1.76 1.199 2.992 2.93 2.992zm0-6.895c.334 0 .717.086.717.837v3.14c0 .738-.408.825-.717.825-.31 0-.73-.087-.73-.825V2.93c0-.75.384-.837.73-.837zm8.684 3.903h-2.2c0 1.76 1.199 2.992 2.93 2.992 1.719 0 2.918-1.17 2.918-2.93v-.382c0-1.773-.927-2.512-2.386-2.512-.606 0-.94.222-.94.222l.247-1.133h2.683V.16h-4.463l-.866 4.752 2.102.456s.099-.492.692-.492c.396 0 .73.147.73.8v.381c0 .702-.408.838-.717.838-.322 0-.73-.136-.73-.9zM96.624 9c1.731 0 2.968-.997 2.98-2.512 0-.898-.432-1.526-1.113-1.871.606-.382.965-.997.965-1.97 0-1.502-1.175-2.487-2.832-2.487-1.681 0-2.844.985-2.844 2.475 0 .948.359 1.563.953 1.982-.668.345-1.101.973-1.101 1.871C93.632 8.003 94.856 9 96.624 9zm0-3.607c.347 0 .73.073.73.788v.073c0 .69-.42.776-.73.776-.334 0-.742-.086-.742-.776v-.073c0-.715.384-.788.742-.788zm0-3.263c.322 0 .693.086.693.776v.049c0 .69-.396.776-.693.776-.309 0-.704-.087-.704-.776v-.05c0-.689.37-.775.704-.775z" fill="#fff" fill-rule="evenodd"/></svg>
</g>
      <g transform="translate(26, 32) rotate(90)"><g transform='scale(1.1221122112211221 1)'>
<svg xmlns="http://www.w3.org/2000/svg" xmlns:xlink="http://www.w3.org/1999/xlink" width="122" height="10" viewBox="0 0 122 10" version="1.1">
<g id="surface693">
<path style=" stroke:none;fill-rule:nonzero;fill:rgb(100%,100%,100%);fill-opacity:1;" d="M 0 0 L 1.199219 0 L 1.199219 10 L 0 10 Z M 0 0 "/>
<path style=" stroke:none;fill-rule:nonzero;fill:rgb(100%,100%,100%);fill-opacity:1;" d="M 1.199219 0 L 2.398438 0 L 2.398438 10 L 1.199219 10 Z M 1.199219 0 "/>
<path style=" stroke:none;fill-rule:nonzero;fill:rgb(100%,100%,100%);fill-opacity:1;" d="M 3.601562 0 L 4.800781 0 L 4.800781 10 L 3.601562 10 Z M 3.601562 0 "/>
<path style=" stroke:none;fill-rule:nonzero;fill:rgb(100%,100%,100%);fill-opacity:1;" d="M 7.199219 0 L 8.398438 0 L 8.398438 10 L 7.199219 10 Z M 7.199219 0 "/>
<path style=" stroke:none;fill-rule:nonzero;fill:rgb(100%,100%,100%);fill-opacity:1;" d="M 8.398438 0 L 9.597656 0 L 9.597656 10 L 8.398438 10 Z M 8.398438 0 "/>
<path style=" stroke:none;fill-rule:nonzero;fill:rgb(100%,100%,100%);fill-opacity:1;" d="M 9.601562 0 L 10.800781 0 L 10.800781 10 L 9.601562 10 Z M 9.601562 0 "/>
<path style=" stroke:none;fill-rule:nonzero;fill:rgb(100%,100%,100%);fill-opacity:1;" d="M 13.199219 0 L 14.398438 0 L 14.398438 10 L 13.199219 10 Z M 13.199219 0 "/>
<path style=" stroke:none;fill-rule:nonzero;fill:rgb(100%,100%,100%);fill-opacity:1;" d="M 18 0 L 19.199219 0 L 19.199219 10 L 18 10 Z M 18 0 "/>
<path style=" stroke:none;fill-rule:nonzero;fill:rgb(100%,100%,100%);fill-opacity:1;" d="M 19.199219 0 L 20.398438 0 L 20.398438 10 L 19.199219 10 Z M 19.199219 0 "/>
<path style=" stroke:none;fill-rule:nonzero;fill:rgb(100%,100%,100%);fill-opacity:1;" d="M 21.601562 0 L 22.800781 0 L 22.800781 10 L 21.601562 10 Z M 21.601562 0 "/>
<path style=" stroke:none;fill-rule:nonzero;fill:rgb(100%,100%,100%);fill-opacity:1;" d="M 22.800781 0 L 24 0 L 24 10 L 22.800781 10 Z M 22.800781 0 "/>
<path style=" stroke:none;fill-rule:nonzero;fill:rgb(100%,100%,100%);fill-opacity:1;" d="M 24 0 L 25.199219 0 L 25.199219 10 L 24 10 Z M 24 0 "/>
<path style=" stroke:none;fill-rule:nonzero;fill:rgb(100%,100%,100%);fill-opacity:1;" d="M 26.398438 0 L 27.597656 0 L 27.597656 10 L 26.398438 10 Z M 26.398438 0 "/>
<path style=" stroke:none;fill-rule:nonzero;fill:rgb(100%,100%,100%);fill-opacity:1;" d="M 27.601562 0 L 28.800781 0 L 28.800781 10 L 27.601562 10 Z M 27.601562 0 "/>
<path style=" stroke:none;fill-rule:nonzero;fill:rgb(100%,100%,100%);fill-opacity:1;" d="M 28.800781 0 L 30 0 L 30 10 L 28.800781 10 Z M 28.800781 0 "/>
<path style=" stroke:none;fill-rule:nonzero;fill:rgb(100%,100%,100%);fill-opacity:1;" d="M 32.398438 0 L 33.597656 0 L 33.597656 10 L 32.398438 10 Z M 32.398438 0 "/>
<path style=" stroke:none;fill-rule:nonzero;fill:rgb(100%,100%,100%);fill-opacity:1;" d="M 36 0 L 37.199219 0 L 37.199219 10 L 36 10 Z M 36 0 "/>
<path style=" stroke:none;fill-rule:nonzero;fill:rgb(100%,100%,100%);fill-opacity:1;" d="M 37.199219 0 L 38.398438 0 L 38.398438 10 L 37.199219 10 Z M 37.199219 0 "/>
<path style=" stroke:none;fill-rule:nonzero;fill:rgb(100%,100%,100%);fill-opacity:1;" d="M 39.601562 0 L 40.800781 0 L 40.800781 10 L 39.601562 10 Z M 39.601562 0 "/>
<path style=" stroke:none;fill-rule:nonzero;fill:rgb(100%,100%,100%);fill-opacity:1;" d="M 43.199219 0 L 44.398438 0 L 44.398438 10 L 43.199219 10 Z M 43.199219 0 "/>
<path style=" stroke:none;fill-rule:nonzero;fill:rgb(100%,100%,100%);fill-opacity:1;" d="M 44.398438 0 L 45.597656 0 L 45.597656 10 L 44.398438 10 Z M 44.398438 0 "/>
<path style=" stroke:none;fill-rule:nonzero;fill:rgb(100%,100%,100%);fill-opacity:1;" d="M 45.601562 0 L 46.800781 0 L 46.800781 10 L 45.601562 10 Z M 45.601562 0 "/>
<path style=" stroke:none;fill-rule:nonzero;fill:rgb(100%,100%,100%);fill-opacity:1;" d="M 46.800781 0 L 48 0 L 48 10 L 46.800781 10 Z M 46.800781 0 "/>
<path style=" stroke:none;fill-rule:nonzero;fill:rgb(100%,100%,100%);fill-opacity:1;" d="M 49.199219 0 L 50.398438 0 L 50.398438 10 L 49.199219 10 Z M 49.199219 0 "/>
<path style=" stroke:none;fill-rule:nonzero;fill:rgb(100%,100%,100%);fill-opacity:1;" d="M 52.800781 0 L 54 0 L 54 10 L 52.800781 10 Z M 52.800781 0 "/>
<path style=" stroke:none;fill-rule:nonzero;fill:rgb(100%,100%,100%);fill-opacity:1;" d="M 54 0 L 55.199219 0 L 55.199219 10 L 54 10 Z M 54 0 "/>
<path style=" stroke:none;fill-rule:nonzero;fill:rgb(100%,100%,100%);fill-opacity:1;" d="M 55.199219 0 L 56.398438 0 L 56.398438 10 L 55.199219 10 Z M 55.199219 0 "/>
<path style=" stroke:none;fill-rule:nonzero;fill:rgb(100%,100%,100%);fill-opacity:1;" d="M 56.398438 0 L 57.597656 0 L 57.597656 10 L 56.398438 10 Z M 56.398438 0 "/>
<path style=" stroke:none;fill-rule:nonzero;fill:rgb(100%,100%,100%);fill-opacity:1;" d="M 61.199219 0 L 62.398438 0 L 62.398438 10 L 61.199219 10 Z M 61.199219 0 "/>
<path style=" stroke:none;fill-rule:nonzero;fill:rgb(100%,100%,100%);fill-opacity:1;" d="M 63.601562 0 L 64.800781 0 L 64.800781 10 L 63.601562 10 Z M 63.601562 0 "/>
<path style=" stroke:none;fill-rule:nonzero;fill:rgb(100%,100%,100%);fill-opacity:1;" d="M 66 0 L 67.199219 0 L 67.199219 10 L 66 10 Z M 66 0 "/>
<path style=" stroke:none;fill-rule:nonzero;fill:rgb(100%,100%,100%);fill-opacity:1;" d="M 67.199219 0 L 68.398438 0 L 68.398438 10 L 67.199219 10 Z M 67.199219 0 "/>
<path style=" stroke:none;fill-rule:nonzero;fill:rgb(100%,100%,100%);fill-opacity:1;" d="M 68.398438 0 L 69.597656 0 L 69.597656 10 L 68.398438 10 Z M 68.398438 0 "/>
<path style=" stroke:none;fill-rule:nonzero;fill:rgb(100%,100%,100%);fill-opacity:1;" d="M 70.800781 0 L 72 0 L 72 10 L 70.800781 10 Z M 70.800781 0 "/>
<path style=" stroke:none;fill-rule:nonzero;fill:rgb(100%,100%,100%);fill-opacity:1;" d="M 73.199219 0 L 74.398438 0 L 74.398438 10 L 73.199219 10 Z M 73.199219 0 "/>
<path style=" stroke:none;fill-rule:nonzero;fill:rgb(100%,100%,100%);fill-opacity:1;" d="M 74.398438 0 L 75.597656 0 L 75.597656 10 L 74.398438 10 Z M 74.398438 0 "/>
<path style=" stroke:none;fill-rule:nonzero;fill:rgb(100%,100%,100%);fill-opacity:1;" d="M 75.601562 0 L 76.800781 0 L 76.800781 10 L 75.601562 10 Z M 75.601562 0 "/>
<path style=" stroke:none;fill-rule:nonzero;fill:rgb(100%,100%,100%);fill-opacity:1;" d="M 76.800781 0 L 78 0 L 78 10 L 76.800781 10 Z M 76.800781 0 "/>
<path style=" stroke:none;fill-rule:nonzero;fill:rgb(100%,100%,100%);fill-opacity:1;" d="M 79.199219 0 L 80.398438 0 L 80.398438 10 L 79.199219 10 Z M 79.199219 0 "/>
<path style=" stroke:none;fill-rule:nonzero;fill:rgb(100%,100%,100%);fill-opacity:1;" d="M 82.800781 0 L 84 0 L 84 10 L 82.800781 10 Z M 82.800781 0 "/>
<path style=" stroke:none;fill-rule:nonzero;fill:rgb(100%,100%,100%);fill-opacity:1;" d="M 84 0 L 85.199219 0 L 85.199219 10 L 84 10 Z M 84 0 "/>
<path style=" stroke:none;fill-rule:nonzero;fill:rgb(100%,100%,100%);fill-opacity:1;" d="M 85.199219 0 L 86.398438 0 L 86.398438 10 L 85.199219 10 Z M 85.199219 0 "/>
<path style=" stroke:none;fill-rule:nonzero;fill:rgb(100%,100%,100%);fill-opacity:1;" d="M 87.601562 0 L 88.800781 0 L 88.800781 10 L 87.601562 10 Z M 87.601562 0 "/>
<path style=" stroke:none;fill-rule:nonzero;fill:rgb(100%,100%,100%);fill-opacity:1;" d="M 88.800781 0 L 90 0 L 90 10 L 88.800781 10 Z M 88.800781 0 "/>
<path style=" stroke:none;fill-rule:nonzero;fill:rgb(100%,100%,100%);fill-opacity:1;" d="M 92.398438 0 L 93.597656 0 L 93.597656 10 L 92.398438 10 Z M 92.398438 0 "/>
<path style=" stroke:none;fill-rule:nonzero;fill:rgb(100%,100%,100%);fill-opacity:1;" d="M 96 0 L 97.199219 0 L 97.199219 10 L 96 10 Z M 96 0 "/>
<path style=" stroke:none;fill-rule:nonzero;fill:rgb(100%,100%,100%);fill-opacity:1;" d="M 102 0 L 103.199219 0 L 103.199219 10 L 102 10 Z M 102 0 "/>
<path style=" stroke:none;fill-rule:nonzero;fill:rgb(100%,100%,100%);fill-opacity:1;" d="M 103.199219 0 L 104.398438 0 L 104.398438 10 L 103.199219 10 Z M 103.199219 0 "/>
<path style=" stroke:none;fill-rule:nonzero;fill:rgb(100%,100%,100%);fill-opacity:1;" d="M 105.601562 0 L 106.800781 0 L 106.800781 10 L 105.601562 10 Z M 105.601562 0 "/>
<path style=" stroke:none;fill-rule:nonzero;fill:rgb(100%,100%,100%);fill-opacity:1;" d="M 106.800781 0 L 108 0 L 108 10 L 106.800781 10 Z M 106.800781 0 "/>
<path style=" stroke:none;fill-rule:nonzero;fill:rgb(100%,100%,100%);fill-opacity:1;" d="M 111.601562 0 L 112.800781 0 L 112.800781 10 L 111.601562 10 Z M 111.601562 0 "/>
<path style=" stroke:none;fill-rule:nonzero;fill:rgb(100%,100%,100%);fill-opacity:1;" d="M 112.800781 0 L 114 0 L 114 10 L 112.800781 10 Z M 112.800781 0 "/>
<path style=" stroke:none;fill-rule:nonzero;fill:rgb(100%,100%,100%);fill-opacity:1;" d="M 114 0 L 115.199219 0 L 115.199219 10 L 114 10 Z M 114 0 "/>
<path style=" stroke:none;fill-rule:nonzero;fill:rgb(100%,100%,100%);fill-opacity:1;" d="M 116.398438 0 L 117.597656 0 L 117.597656 10 L 116.398438 10 Z M 116.398438 0 "/>
<path style=" stroke:none;fill-rule:nonzero;fill:rgb(100%,100%,100%);fill-opacity:1;" d="M 118.800781 0 L 120 0 L 120 10 L 118.800781 10 Z M 118.800781 0 "/>
<path style=" stroke:none;fill-rule:nonzero;fill:rgb(100%,100%,100%);fill-opacity:1;" d="M 120 0 L 121.199219 0 L 121.199219 10 L 120 10 Z M 120 0 "/>
</g>
</svg>
</g></g>

    </g>
  </g>
</g>
</svg>
