<?xml version="1.0" encoding="utf-8"?>
<!-- Generator: Adobe Illustrator 20.1.0, SVG Export Plug-In . SVG Version: 6.00 Build 0)  -->
<svg version="1.1" id="Layer_1" xmlns="http://www.w3.org/2000/svg" xmlns:xlink="http://www.w3.org/1999/xlink" x="0px" y="0px"
   viewBox="0 0 350 200" style="enable-background:new 0 0 350 200;" xml:space="preserve">
<style type="text/css">
  .st0{fill:#FFFFFF;}
</style>
<title>Card back</title>
<desc>Created with Sketch.</desc>
<g id="Page-1">
  <g id="Card-back">
    <g id="Card" transform="translate(0, 0)">
      <path id="Combined-Shape" d="M0,188c0,6.6,5.4,12,12,12h326c6.6,0,12-5.4,12-12V12c0-6.6-5.4-12-12-12H12C5.4,0,0,5.4,0,12V188z
         M177,58.5l24.4,42.3l-10.5,6.1l-14-8.1V58.5z M203.4,104.3L212,119l-17-9.8l0,0L203.4,104.3z M210,122.5h-48.9v-12.2l13.9-8
        L210,122.5L210,122.5z M157.1,122.5H140l17.1-9.9V122.5L157.1,122.5z M138,119l24.4-42.3l10.5,6.1v16L138,119L138,119z
         M164.5,73.2l8.5-14.7v19.7L164.5,73.2L164.5,73.2z"/>
      <path id="Circle" class="st0" d="M175,38c-34.2,0-62,27.8-62,62s27.8,62,62,62s62-27.8,62-62S209.2,38,175,38z M175,160
        c-33.1,0-60-26.9-60-60s26.9-60,60-60s60,26.9,60,60S208.1,160,175,160z"/>
      <g transform="translate(236, 175)"><svg width="97" height="9" viewBox="0 0 97 9" xmlns="http://www.w3.org/2000/svg"><title>MEMBER 0019</title><path d="M3.891 7.484l2.598-5.66v7.04h.727V.173h-.69L3.596 6.57.69.173H0v8.691h.727V1.837l2.585 5.647h.58zm8.513-2.688h2.93v-.654h-2.93V.888h4.088V.173h-4.814v8.691h4.814v-.702h-4.088V4.796zm12.133 2.688l2.599-5.66v7.04h.726V.173h-.69l-2.93 6.398L21.336.173h-.69v8.691h.727V1.837l2.586 5.647h.578zm7.787 1.38h2.623c1.724 0 2.807-.653 2.807-2.317v-.1c0-1.084-.53-1.688-1.465-1.972.886-.27 1.391-.875 1.391-1.985v-.123C37.68.74 36.584.173 34.86.173h-2.536v8.691zM37.04 6.35v.136c0 1.27-.837 1.677-2.106 1.677H33.05v-3.39h2.069c1.133 0 1.92.492 1.92 1.577zM33.05.888h1.798c1.268 0 2.106.333 2.106 1.54v.149c0 1.097-.665 1.59-1.786 1.59H33.05V.887zm9.523 3.908h2.93v-.654h-2.93V.888h4.088V.173h-4.815v8.691h4.815v-.702h-4.088V4.796zm10.656 1.307l2.105 2.761h.874l-2.24-2.885c1.342-.197 2.265-1.097 2.265-2.638v-.32c0-1.825-1.17-2.848-2.906-2.848h-2.512v8.691h.727V6.103h1.687zM51.542.888h1.723c1.306 0 2.242.64 2.242 2.108v.345c0 1.393-.949 2.059-2.242 2.059h-1.723V.888zM68.05 9c1.7 0 2.906-1.233 2.906-2.996V3.008C70.956 1.233 69.75 0 68.05 0c-1.724 0-2.918 1.233-2.918 3.008v2.996C65.132 7.767 66.326 9 68.05 9zm0-6.904c.333 0 .714.086.714.838v3.144c0 .74-.406.826-.714.826-.308 0-.726-.086-.726-.826V2.934c0-.752.381-.838.726-.838zM77.487 9c1.699 0 2.906-1.233 2.906-2.996V3.008C80.393 1.233 79.186 0 77.487 0c-1.724 0-2.919 1.233-2.919 3.008v2.996C74.568 7.767 75.763 9 77.487 9zm0-6.904c.332 0 .714.086.714.838v3.144c0 .74-.406.826-.714.826-.308 0-.727-.086-.727-.826V2.934c0-.752.382-.838.727-.838zm6.395 1.01h.985v5.758h2.192V.16h-2.02c0 .678-.246.851-1.157.851v2.096zm12.071 2.935c.357-.715.653-1.615.653-2.564V3.02c0-1.763-1.194-2.996-2.906-2.996-1.712 0-2.918 1.233-2.918 2.996v.493c0 1.775.997 2.749 2.795 2.749L92.27 8.864H94.6l1.354-2.823zM93.7 4.426c-.345 0-.727-.086-.727-.838v-.641c0-.74.407-.826.727-.826.308 0 .714.086.714.826v.64c0 .753-.382.839-.714.839z" fill="#fff" fill-rule="evenodd"/></svg>
</g>
      <g transform="translate(26, 32) rotate(90)"><g transform='scale(1.1221122112211221 1)'>
<svg xmlns="http://www.w3.org/2000/svg" xmlns:xlink="http://www.w3.org/1999/xlink" width="122" height="10" viewBox="0 0 122 10" version="1.1">
<g id="surface225">
<path style=" stroke:none;fill-rule:nonzero;fill:rgb(100%,100%,100%);fill-opacity:1;" d="M 0 0 L 1.199219 0 L 1.199219 10 L 0 10 Z M 0 0 "/>
<path style=" stroke:none;fill-rule:nonzero;fill:rgb(100%,100%,100%);fill-opacity:1;" d="M 1.199219 0 L 2.398438 0 L 2.398438 10 L 1.199219 10 Z M 1.199219 0 "/>
<path style=" stroke:none;fill-rule:nonzero;fill:rgb(100%,100%,100%);fill-opacity:1;" d="M 3.601562 0 L 4.800781 0 L 4.800781 10 L 3.601562 10 Z M 3.601562 0 "/>
<path style=" stroke:none;fill-rule:nonzero;fill:rgb(100%,100%,100%);fill-opacity:1;" d="M 7.199219 0 L 8.398438 0 L 8.398438 10 L 7.199219 10 Z M 7.199219 0 "/>
<path style=" stroke:none;fill-rule:nonzero;fill:rgb(100%,100%,100%);fill-opacity:1;" d="M 8.398438 0 L 9.597656 0 L 9.597656 10 L 8.398438 10 Z M 8.398438 0 "/>
<path style=" stroke:none;fill-rule:nonzero;fill:rgb(100%,100%,100%);fill-opacity:1;" d="M 9.601562 0 L 10.800781 0 L 10.800781 10 L 9.601562 10 Z M 9.601562 0 "/>
<path style=" stroke:none;fill-rule:nonzero;fill:rgb(100%,100%,100%);fill-opacity:1;" d="M 13.199219 0 L 14.398438 0 L 14.398438 10 L 13.199219 10 Z M 13.199219 0 "/>
<path style=" stroke:none;fill-rule:nonzero;fill:rgb(100%,100%,100%);fill-opacity:1;" d="M 14.398438 0 L 15.597656 0 L 15.597656 10 L 14.398438 10 Z M 14.398438 0 "/>
<path style=" stroke:none;fill-rule:nonzero;fill:rgb(100%,100%,100%);fill-opacity:1;" d="M 19.199219 0 L 20.398438 0 L 20.398438 10 L 19.199219 10 Z M 19.199219 0 "/>
<path style=" stroke:none;fill-rule:nonzero;fill:rgb(100%,100%,100%);fill-opacity:1;" d="M 20.398438 0 L 21.597656 0 L 21.597656 10 L 20.398438 10 Z M 20.398438 0 "/>
<path style=" stroke:none;fill-rule:nonzero;fill:rgb(100%,100%,100%);fill-opacity:1;" d="M 22.800781 0 L 24 0 L 24 10 L 22.800781 10 Z M 22.800781 0 "/>
<path style=" stroke:none;fill-rule:nonzero;fill:rgb(100%,100%,100%);fill-opacity:1;" d="M 24 0 L 25.199219 0 L 25.199219 10 L 24 10 Z M 24 0 "/>
<path style=" stroke:none;fill-rule:nonzero;fill:rgb(100%,100%,100%);fill-opacity:1;" d="M 26.398438 0 L 27.597656 0 L 27.597656 10 L 26.398438 10 Z M 26.398438 0 "/>
<path style=" stroke:none;fill-rule:nonzero;fill:rgb(100%,100%,100%);fill-opacity:1;" d="M 28.800781 0 L 30 0 L 30 10 L 28.800781 10 Z M 28.800781 0 "/>
<path style=" stroke:none;fill-rule:nonzero;fill:rgb(100%,100%,100%);fill-opacity:1;" d="M 30 0 L 31.199219 0 L 31.199219 10 L 30 10 Z M 30 0 "/>
<path style=" stroke:none;fill-rule:nonzero;fill:rgb(100%,100%,100%);fill-opacity:1;" d="M 31.199219 0 L 32.398438 0 L 32.398438 10 L 31.199219 10 Z M 31.199219 0 "/>
<path style=" stroke:none;fill-rule:nonzero;fill:rgb(100%,100%,100%);fill-opacity:1;" d="M 32.398438 0 L 33.597656 0 L 33.597656 10 L 32.398438 10 Z M 32.398438 0 "/>
<path style=" stroke:none;fill-rule:nonzero;fill:rgb(100%,100%,100%);fill-opacity:1;" d="M 36 0 L 37.199219 0 L 37.199219 10 L 36 10 Z M 36 0 "/>
<path style=" stroke:none;fill-rule:nonzero;fill:rgb(100%,100%,100%);fill-opacity:1;" d="M 39.601562 0 L 40.800781 0 L 40.800781 10 L 39.601562 10 Z M 39.601562 0 "/>
<path style=" stroke:none;fill-rule:nonzero;fill:rgb(100%,100%,100%);fill-opacity:1;" d="M 40.800781 0 L 42 0 L 42 10 L 40.800781 10 Z M 40.800781 0 "/>
<path style=" stroke:none;fill-rule:nonzero;fill:rgb(100%,100%,100%);fill-opacity:1;" d="M 46.800781 0 L 48 0 L 48 10 L 46.800781 10 Z M 46.800781 0 "/>
<path style=" stroke:none;fill-rule:nonzero;fill:rgb(100%,100%,100%);fill-opacity:1;" d="M 49.199219 0 L 50.398438 0 L 50.398438 10 L 49.199219 10 Z M 49.199219 0 "/>
<path style=" stroke:none;fill-rule:nonzero;fill:rgb(100%,100%,100%);fill-opacity:1;" d="M 52.800781 0 L 54 0 L 54 10 L 52.800781 10 Z M 52.800781 0 "/>
<path style=" stroke:none;fill-rule:nonzero;fill:rgb(100%,100%,100%);fill-opacity:1;" d="M 54 0 L 55.199219 0 L 55.199219 10 L 54 10 Z M 54 0 "/>
<path style=" stroke:none;fill-rule:nonzero;fill:rgb(100%,100%,100%);fill-opacity:1;" d="M 60 0 L 61.199219 0 L 61.199219 10 L 60 10 Z M 60 0 "/>
<path style=" stroke:none;fill-rule:nonzero;fill:rgb(100%,100%,100%);fill-opacity:1;" d="M 63.601562 0 L 64.800781 0 L 64.800781 10 L 63.601562 10 Z M 63.601562 0 "/>
<path style=" stroke:none;fill-rule:nonzero;fill:rgb(100%,100%,100%);fill-opacity:1;" d="M 66 0 L 67.199219 0 L 67.199219 10 L 66 10 Z M 66 0 "/>
<path style=" stroke:none;fill-rule:nonzero;fill:rgb(100%,100%,100%);fill-opacity:1;" d="M 67.199219 0 L 68.398438 0 L 68.398438 10 L 67.199219 10 Z M 67.199219 0 "/>
<path style=" stroke:none;fill-rule:nonzero;fill:rgb(100%,100%,100%);fill-opacity:1;" d="M 68.398438 0 L 69.597656 0 L 69.597656 10 L 68.398438 10 Z M 68.398438 0 "/>
<path style=" stroke:none;fill-rule:nonzero;fill:rgb(100%,100%,100%);fill-opacity:1;" d="M 70.800781 0 L 72 0 L 72 10 L 70.800781 10 Z M 70.800781 0 "/>
<path style=" stroke:none;fill-rule:nonzero;fill:rgb(100%,100%,100%);fill-opacity:1;" d="M 73.199219 0 L 74.398438 0 L 74.398438 10 L 73.199219 10 Z M 73.199219 0 "/>
<path style=" stroke:none;fill-rule:nonzero;fill:rgb(100%,100%,100%);fill-opacity:1;" d="M 74.398438 0 L 75.597656 0 L 75.597656 10 L 74.398438 10 Z M 74.398438 0 "/>
<path style=" stroke:none;fill-rule:nonzero;fill:rgb(100%,100%,100%);fill-opacity:1;" d="M 75.601562 0 L 76.800781 0 L 76.800781 10 L 75.601562 10 Z M 75.601562 0 "/>
<path style=" stroke:none;fill-rule:nonzero;fill:rgb(100%,100%,100%);fill-opacity:1;" d="M 76.800781 0 L 78 0 L 78 10 L 76.800781 10 Z M 76.800781 0 "/>
<path style=" stroke:none;fill-rule:nonzero;fill:rgb(100%,100%,100%);fill-opacity:1;" d="M 79.199219 0 L 80.398438 0 L 80.398438 10 L 79.199219 10 Z M 79.199219 0 "/>
<path style=" stroke:none;fill-rule:nonzero;fill:rgb(100%,100%,100%);fill-opacity:1;" d="M 80.398438 0 L 81.597656 0 L 81.597656 10 L 80.398438 10 Z M 80.398438 0 "/>
<path style=" stroke:none;fill-rule:nonzero;fill:rgb(100%,100%,100%);fill-opacity:1;" d="M 82.800781 0 L 84 0 L 84 10 L 82.800781 10 Z M 82.800781 0 "/>
<path style=" stroke:none;fill-rule:nonzero;fill:rgb(100%,100%,100%);fill-opacity:1;" d="M 84 0 L 85.199219 0 L 85.199219 10 L 84 10 Z M 84 0 "/>
<path style=" stroke:none;fill-rule:nonzero;fill:rgb(100%,100%,100%);fill-opacity:1;" d="M 85.199219 0 L 86.398438 0 L 86.398438 10 L 85.199219 10 Z M 85.199219 0 "/>
<path style=" stroke:none;fill-rule:nonzero;fill:rgb(100%,100%,100%);fill-opacity:1;" d="M 88.800781 0 L 90 0 L 90 10 L 88.800781 10 Z M 88.800781 0 "/>
<path style=" stroke:none;fill-rule:nonzero;fill:rgb(100%,100%,100%);fill-opacity:1;" d="M 92.398438 0 L 93.597656 0 L 93.597656 10 L 92.398438 10 Z M 92.398438 0 "/>
<path style=" stroke:none;fill-rule:nonzero;fill:rgb(100%,100%,100%);fill-opacity:1;" d="M 93.601562 0 L 94.800781 0 L 94.800781 10 L 93.601562 10 Z M 93.601562 0 "/>
<path style=" stroke:none;fill-rule:nonzero;fill:rgb(100%,100%,100%);fill-opacity:1;" d="M 94.800781 0 L 96 0 L 96 10 L 94.800781 10 Z M 94.800781 0 "/>
<path style=" stroke:none;fill-rule:nonzero;fill:rgb(100%,100%,100%);fill-opacity:1;" d="M 98.398438 0 L 99.597656 0 L 99.597656 10 L 98.398438 10 Z M 98.398438 0 "/>
<path style=" stroke:none;fill-rule:nonzero;fill:rgb(100%,100%,100%);fill-opacity:1;" d="M 102 0 L 103.199219 0 L 103.199219 10 L 102 10 Z M 102 0 "/>
<path style=" stroke:none;fill-rule:nonzero;fill:rgb(100%,100%,100%);fill-opacity:1;" d="M 103.199219 0 L 104.398438 0 L 104.398438 10 L 103.199219 10 Z M 103.199219 0 "/>
<path style=" stroke:none;fill-rule:nonzero;fill:rgb(100%,100%,100%);fill-opacity:1;" d="M 105.601562 0 L 106.800781 0 L 106.800781 10 L 105.601562 10 Z M 105.601562 0 "/>
<path style=" stroke:none;fill-rule:nonzero;fill:rgb(100%,100%,100%);fill-opacity:1;" d="M 106.800781 0 L 108 0 L 108 10 L 106.800781 10 Z M 106.800781 0 "/>
<path style=" stroke:none;fill-rule:nonzero;fill:rgb(100%,100%,100%);fill-opacity:1;" d="M 111.601562 0 L 112.800781 0 L 112.800781 10 L 111.601562 10 Z M 111.601562 0 "/>
<path style=" stroke:none;fill-rule:nonzero;fill:rgb(100%,100%,100%);fill-opacity:1;" d="M 112.800781 0 L 114 0 L 114 10 L 112.800781 10 Z M 112.800781 0 "/>
<path style=" stroke:none;fill-rule:nonzero;fill:rgb(100%,100%,100%);fill-opacity:1;" d="M 114 0 L 115.199219 0 L 115.199219 10 L 114 10 Z M 114 0 "/>
<path style=" stroke:none;fill-rule:nonzero;fill:rgb(100%,100%,100%);fill-opacity:1;" d="M 116.398438 0 L 117.597656 0 L 117.597656 10 L 116.398438 10 Z M 116.398438 0 "/>
<path style=" stroke:none;fill-rule:nonzero;fill:rgb(100%,100%,100%);fill-opacity:1;" d="M 118.800781 0 L 120 0 L 120 10 L 118.800781 10 Z M 118.800781 0 "/>
<path style=" stroke:none;fill-rule:nonzero;fill:rgb(100%,100%,100%);fill-opacity:1;" d="M 120 0 L 121.199219 0 L 121.199219 10 L 120 10 Z M 120 0 "/>
</g>
</svg>
</g></g>

    </g>
  </g>
</g>
</svg>
