<?xml version="1.0" encoding="utf-8"?>
<!-- Generator: Adobe Illustrator 20.1.0, SVG Export Plug-In . SVG Version: 6.00 Build 0)  -->
<svg version="1.1" id="Layer_1" xmlns="http://www.w3.org/2000/svg" xmlns:xlink="http://www.w3.org/1999/xlink" x="0px" y="0px"
   viewBox="0 0 350 200" style="enable-background:new 0 0 350 200;" xml:space="preserve">
<style type="text/css">
  .st0{fill:#FFFFFF;}
</style>
<title>Card back</title>
<desc>Created with Sketch.</desc>
<g id="Page-1">
  <g id="Card-back">
    <g id="Card" transform="translate(0, 0)">
      <path id="Combined-Shape" d="M0,188c0,6.6,5.4,12,12,12h326c6.6,0,12-5.4,12-12V12c0-6.6-5.4-12-12-12H12C5.4,0,0,5.4,0,12V188z
         M177,58.5l24.4,42.3l-10.5,6.1l-14-8.1V58.5z M203.4,104.3L212,119l-17-9.8l0,0L203.4,104.3z M210,122.5h-48.9v-12.2l13.9-8
        L210,122.5L210,122.5z M157.1,122.5H140l17.1-9.9V122.5L157.1,122.5z M138,119l24.4-42.3l10.5,6.1v16L138,119L138,119z
         M164.5,73.2l8.5-14.7v19.7L164.5,73.2L164.5,73.2z"/>
      <path id="Circle" class="st0" d="M175,38c-34.2,0-62,27.8-62,62s27.8,62,62,62s62-27.8,62-62S209.2,38,175,38z M175,160
        c-33.1,0-60-26.9-60-60s26.9-60,60-60s60,26.9,60,60S208.1,160,175,160z"/>
      <g transform="translate(236, 175)"><svg width="100" height="9" viewBox="0 0 100 9" xmlns="http://www.w3.org/2000/svg"><title>MEMBER 0040</title><path d="M3.9 7.484l2.605-5.66v7.04h.728V.173h-.69L3.603 6.57.691.173H0v8.691h.728V1.837L3.32 7.484h.58zm8.534-2.688h2.938v-.654h-2.938V.888h4.098V.173h-4.826v8.691h4.826v-.702h-4.098V4.796zm12.163 2.688l2.604-5.66v7.04h.729V.173h-.692L24.301 6.57 21.387.173h-.69v8.691h.727V1.837l2.593 5.647h.58zm7.805 1.38h2.63c1.727 0 2.814-.653 2.814-2.317v-.1c0-1.084-.531-1.688-1.47-1.972.89-.27 1.396-.875 1.396-1.985v-.123c0-1.627-1.099-2.194-2.827-2.194h-2.543v8.691zM37.13 6.35v.136c0 1.27-.84 1.677-2.111 1.677H33.13v-3.39h2.074c1.136 0 1.926.492 1.926 1.577zm-4-5.461h1.803c1.27 0 2.11.333 2.11 1.54v.149c0 1.097-.666 1.59-1.79 1.59H33.13V.887zm9.546 3.908h2.938v-.654h-2.938V.888h4.098V.173h-4.826v8.691h4.826v-.702h-4.098V4.796zm10.681 1.307l2.111 2.761h.877L54.098 5.98c1.346-.197 2.271-1.097 2.271-2.638v-.32c0-1.825-1.172-2.848-2.913-2.848h-2.518v8.691h.728V6.103h1.691zM51.667.888h1.728c1.308 0 2.246.64 2.246 2.108v.345c0 1.393-.95 2.059-2.246 2.059h-1.729V.888zM68.214 9c1.704 0 2.913-1.233 2.913-2.996V3.008c0-1.775-1.21-3.008-2.913-3.008-1.728 0-2.925 1.233-2.925 3.008v2.996C65.29 7.767 66.487 9 68.215 9zm0-6.904c.333 0 .716.086.716.838v3.144c0 .74-.407.826-.716.826-.308 0-.728-.086-.728-.826V2.934c0-.752.382-.838.728-.838zM77.675 9c1.703 0 2.913-1.233 2.913-2.996V3.008c0-1.775-1.21-3.008-2.914-3.008-1.728 0-2.925 1.233-2.925 3.008v2.996C74.749 7.767 75.946 9 77.674 9zm0-6.904c.333 0 .715.086.715.838v3.144c0 .74-.407.826-.716.826-.308 0-.728-.086-.728-.826V2.934c0-.752.383-.838.728-.838zM89.38.16h-2.11L83.96 5.203v1.985h3.309v1.676h2.11V7.188h.766V5.203h-.766V.16zm-3.493 5.043L87.27 3.07v2.133h-1.383zM96.557 9c1.703 0 2.912-1.233 2.912-2.996V3.008C99.47 1.233 98.26 0 96.556 0c-1.728 0-2.925 1.233-2.925 3.008v2.996C93.63 7.767 94.828 9 96.556 9zm0-6.904c.332 0 .715.086.715.838v3.144c0 .74-.407.826-.716.826-.308 0-.728-.086-.728-.826V2.934c0-.752.382-.838.728-.838z" fill="#fff" fill-rule="evenodd"/></svg>
</g>
      <g transform="translate(26, 32) rotate(90)"><g transform='scale(1.1221122112211221 1)'>
<svg xmlns="http://www.w3.org/2000/svg" xmlns:xlink="http://www.w3.org/1999/xlink" width="122" height="10" viewBox="0 0 122 10" version="1.1">
<g id="surface477">
<path style=" stroke:none;fill-rule:nonzero;fill:rgb(100%,100%,100%);fill-opacity:1;" d="M 0 0 L 1.199219 0 L 1.199219 10 L 0 10 Z M 0 0 "/>
<path style=" stroke:none;fill-rule:nonzero;fill:rgb(100%,100%,100%);fill-opacity:1;" d="M 1.199219 0 L 2.398438 0 L 2.398438 10 L 1.199219 10 Z M 1.199219 0 "/>
<path style=" stroke:none;fill-rule:nonzero;fill:rgb(100%,100%,100%);fill-opacity:1;" d="M 3.601562 0 L 4.800781 0 L 4.800781 10 L 3.601562 10 Z M 3.601562 0 "/>
<path style=" stroke:none;fill-rule:nonzero;fill:rgb(100%,100%,100%);fill-opacity:1;" d="M 7.199219 0 L 8.398438 0 L 8.398438 10 L 7.199219 10 Z M 7.199219 0 "/>
<path style=" stroke:none;fill-rule:nonzero;fill:rgb(100%,100%,100%);fill-opacity:1;" d="M 8.398438 0 L 9.597656 0 L 9.597656 10 L 8.398438 10 Z M 8.398438 0 "/>
<path style=" stroke:none;fill-rule:nonzero;fill:rgb(100%,100%,100%);fill-opacity:1;" d="M 9.601562 0 L 10.800781 0 L 10.800781 10 L 9.601562 10 Z M 9.601562 0 "/>
<path style=" stroke:none;fill-rule:nonzero;fill:rgb(100%,100%,100%);fill-opacity:1;" d="M 13.199219 0 L 14.398438 0 L 14.398438 10 L 13.199219 10 Z M 13.199219 0 "/>
<path style=" stroke:none;fill-rule:nonzero;fill:rgb(100%,100%,100%);fill-opacity:1;" d="M 14.398438 0 L 15.597656 0 L 15.597656 10 L 14.398438 10 Z M 14.398438 0 "/>
<path style=" stroke:none;fill-rule:nonzero;fill:rgb(100%,100%,100%);fill-opacity:1;" d="M 15.601562 0 L 16.800781 0 L 16.800781 10 L 15.601562 10 Z M 15.601562 0 "/>
<path style=" stroke:none;fill-rule:nonzero;fill:rgb(100%,100%,100%);fill-opacity:1;" d="M 18 0 L 19.199219 0 L 19.199219 10 L 18 10 Z M 18 0 "/>
<path style=" stroke:none;fill-rule:nonzero;fill:rgb(100%,100%,100%);fill-opacity:1;" d="M 19.199219 0 L 20.398438 0 L 20.398438 10 L 19.199219 10 Z M 19.199219 0 "/>
<path style=" stroke:none;fill-rule:nonzero;fill:rgb(100%,100%,100%);fill-opacity:1;" d="M 21.601562 0 L 22.800781 0 L 22.800781 10 L 21.601562 10 Z M 21.601562 0 "/>
<path style=" stroke:none;fill-rule:nonzero;fill:rgb(100%,100%,100%);fill-opacity:1;" d="M 22.800781 0 L 24 0 L 24 10 L 22.800781 10 Z M 22.800781 0 "/>
<path style=" stroke:none;fill-rule:nonzero;fill:rgb(100%,100%,100%);fill-opacity:1;" d="M 24 0 L 25.199219 0 L 25.199219 10 L 24 10 Z M 24 0 "/>
<path style=" stroke:none;fill-rule:nonzero;fill:rgb(100%,100%,100%);fill-opacity:1;" d="M 26.398438 0 L 27.597656 0 L 27.597656 10 L 26.398438 10 Z M 26.398438 0 "/>
<path style=" stroke:none;fill-rule:nonzero;fill:rgb(100%,100%,100%);fill-opacity:1;" d="M 27.601562 0 L 28.800781 0 L 28.800781 10 L 27.601562 10 Z M 27.601562 0 "/>
<path style=" stroke:none;fill-rule:nonzero;fill:rgb(100%,100%,100%);fill-opacity:1;" d="M 28.800781 0 L 30 0 L 30 10 L 28.800781 10 Z M 28.800781 0 "/>
<path style=" stroke:none;fill-rule:nonzero;fill:rgb(100%,100%,100%);fill-opacity:1;" d="M 30 0 L 31.199219 0 L 31.199219 10 L 30 10 Z M 30 0 "/>
<path style=" stroke:none;fill-rule:nonzero;fill:rgb(100%,100%,100%);fill-opacity:1;" d="M 32.398438 0 L 33.597656 0 L 33.597656 10 L 32.398438 10 Z M 32.398438 0 "/>
<path style=" stroke:none;fill-rule:nonzero;fill:rgb(100%,100%,100%);fill-opacity:1;" d="M 33.601562 0 L 34.800781 0 L 34.800781 10 L 33.601562 10 Z M 33.601562 0 "/>
<path style=" stroke:none;fill-rule:nonzero;fill:rgb(100%,100%,100%);fill-opacity:1;" d="M 34.800781 0 L 36 0 L 36 10 L 34.800781 10 Z M 34.800781 0 "/>
<path style=" stroke:none;fill-rule:nonzero;fill:rgb(100%,100%,100%);fill-opacity:1;" d="M 37.199219 0 L 38.398438 0 L 38.398438 10 L 37.199219 10 Z M 37.199219 0 "/>
<path style=" stroke:none;fill-rule:nonzero;fill:rgb(100%,100%,100%);fill-opacity:1;" d="M 39.601562 0 L 40.800781 0 L 40.800781 10 L 39.601562 10 Z M 39.601562 0 "/>
<path style=" stroke:none;fill-rule:nonzero;fill:rgb(100%,100%,100%);fill-opacity:1;" d="M 40.800781 0 L 42 0 L 42 10 L 40.800781 10 Z M 40.800781 0 "/>
<path style=" stroke:none;fill-rule:nonzero;fill:rgb(100%,100%,100%);fill-opacity:1;" d="M 43.199219 0 L 44.398438 0 L 44.398438 10 L 43.199219 10 Z M 43.199219 0 "/>
<path style=" stroke:none;fill-rule:nonzero;fill:rgb(100%,100%,100%);fill-opacity:1;" d="M 44.398438 0 L 45.597656 0 L 45.597656 10 L 44.398438 10 Z M 44.398438 0 "/>
<path style=" stroke:none;fill-rule:nonzero;fill:rgb(100%,100%,100%);fill-opacity:1;" d="M 45.601562 0 L 46.800781 0 L 46.800781 10 L 45.601562 10 Z M 45.601562 0 "/>
<path style=" stroke:none;fill-rule:nonzero;fill:rgb(100%,100%,100%);fill-opacity:1;" d="M 48 0 L 49.199219 0 L 49.199219 10 L 48 10 Z M 48 0 "/>
<path style=" stroke:none;fill-rule:nonzero;fill:rgb(100%,100%,100%);fill-opacity:1;" d="M 49.199219 0 L 50.398438 0 L 50.398438 10 L 49.199219 10 Z M 49.199219 0 "/>
<path style=" stroke:none;fill-rule:nonzero;fill:rgb(100%,100%,100%);fill-opacity:1;" d="M 50.398438 0 L 51.597656 0 L 51.597656 10 L 50.398438 10 Z M 50.398438 0 "/>
<path style=" stroke:none;fill-rule:nonzero;fill:rgb(100%,100%,100%);fill-opacity:1;" d="M 52.800781 0 L 54 0 L 54 10 L 52.800781 10 Z M 52.800781 0 "/>
<path style=" stroke:none;fill-rule:nonzero;fill:rgb(100%,100%,100%);fill-opacity:1;" d="M 54 0 L 55.199219 0 L 55.199219 10 L 54 10 Z M 54 0 "/>
<path style=" stroke:none;fill-rule:nonzero;fill:rgb(100%,100%,100%);fill-opacity:1;" d="M 55.199219 0 L 56.398438 0 L 56.398438 10 L 55.199219 10 Z M 55.199219 0 "/>
<path style=" stroke:none;fill-rule:nonzero;fill:rgb(100%,100%,100%);fill-opacity:1;" d="M 56.398438 0 L 57.597656 0 L 57.597656 10 L 56.398438 10 Z M 56.398438 0 "/>
<path style=" stroke:none;fill-rule:nonzero;fill:rgb(100%,100%,100%);fill-opacity:1;" d="M 58.800781 0 L 60 0 L 60 10 L 58.800781 10 Z M 58.800781 0 "/>
<path style=" stroke:none;fill-rule:nonzero;fill:rgb(100%,100%,100%);fill-opacity:1;" d="M 60 0 L 61.199219 0 L 61.199219 10 L 60 10 Z M 60 0 "/>
<path style=" stroke:none;fill-rule:nonzero;fill:rgb(100%,100%,100%);fill-opacity:1;" d="M 61.199219 0 L 62.398438 0 L 62.398438 10 L 61.199219 10 Z M 61.199219 0 "/>
<path style=" stroke:none;fill-rule:nonzero;fill:rgb(100%,100%,100%);fill-opacity:1;" d="M 63.601562 0 L 64.800781 0 L 64.800781 10 L 63.601562 10 Z M 63.601562 0 "/>
<path style=" stroke:none;fill-rule:nonzero;fill:rgb(100%,100%,100%);fill-opacity:1;" d="M 66 0 L 67.199219 0 L 67.199219 10 L 66 10 Z M 66 0 "/>
<path style=" stroke:none;fill-rule:nonzero;fill:rgb(100%,100%,100%);fill-opacity:1;" d="M 67.199219 0 L 68.398438 0 L 68.398438 10 L 67.199219 10 Z M 67.199219 0 "/>
<path style=" stroke:none;fill-rule:nonzero;fill:rgb(100%,100%,100%);fill-opacity:1;" d="M 68.398438 0 L 69.597656 0 L 69.597656 10 L 68.398438 10 Z M 68.398438 0 "/>
<path style=" stroke:none;fill-rule:nonzero;fill:rgb(100%,100%,100%);fill-opacity:1;" d="M 70.800781 0 L 72 0 L 72 10 L 70.800781 10 Z M 70.800781 0 "/>
<path style=" stroke:none;fill-rule:nonzero;fill:rgb(100%,100%,100%);fill-opacity:1;" d="M 73.199219 0 L 74.398438 0 L 74.398438 10 L 73.199219 10 Z M 73.199219 0 "/>
<path style=" stroke:none;fill-rule:nonzero;fill:rgb(100%,100%,100%);fill-opacity:1;" d="M 74.398438 0 L 75.597656 0 L 75.597656 10 L 74.398438 10 Z M 74.398438 0 "/>
<path style=" stroke:none;fill-rule:nonzero;fill:rgb(100%,100%,100%);fill-opacity:1;" d="M 75.601562 0 L 76.800781 0 L 76.800781 10 L 75.601562 10 Z M 75.601562 0 "/>
<path style=" stroke:none;fill-rule:nonzero;fill:rgb(100%,100%,100%);fill-opacity:1;" d="M 76.800781 0 L 78 0 L 78 10 L 76.800781 10 Z M 76.800781 0 "/>
<path style=" stroke:none;fill-rule:nonzero;fill:rgb(100%,100%,100%);fill-opacity:1;" d="M 79.199219 0 L 80.398438 0 L 80.398438 10 L 79.199219 10 Z M 79.199219 0 "/>
<path style=" stroke:none;fill-rule:nonzero;fill:rgb(100%,100%,100%);fill-opacity:1;" d="M 80.398438 0 L 81.597656 0 L 81.597656 10 L 80.398438 10 Z M 80.398438 0 "/>
<path style=" stroke:none;fill-rule:nonzero;fill:rgb(100%,100%,100%);fill-opacity:1;" d="M 84 0 L 85.199219 0 L 85.199219 10 L 84 10 Z M 84 0 "/>
<path style=" stroke:none;fill-rule:nonzero;fill:rgb(100%,100%,100%);fill-opacity:1;" d="M 86.398438 0 L 87.597656 0 L 87.597656 10 L 86.398438 10 Z M 86.398438 0 "/>
<path style=" stroke:none;fill-rule:nonzero;fill:rgb(100%,100%,100%);fill-opacity:1;" d="M 87.601562 0 L 88.800781 0 L 88.800781 10 L 87.601562 10 Z M 87.601562 0 "/>
<path style=" stroke:none;fill-rule:nonzero;fill:rgb(100%,100%,100%);fill-opacity:1;" d="M 88.800781 0 L 90 0 L 90 10 L 88.800781 10 Z M 88.800781 0 "/>
<path style=" stroke:none;fill-rule:nonzero;fill:rgb(100%,100%,100%);fill-opacity:1;" d="M 92.398438 0 L 93.597656 0 L 93.597656 10 L 92.398438 10 Z M 92.398438 0 "/>
<path style=" stroke:none;fill-rule:nonzero;fill:rgb(100%,100%,100%);fill-opacity:1;" d="M 93.601562 0 L 94.800781 0 L 94.800781 10 L 93.601562 10 Z M 93.601562 0 "/>
<path style=" stroke:none;fill-rule:nonzero;fill:rgb(100%,100%,100%);fill-opacity:1;" d="M 94.800781 0 L 96 0 L 96 10 L 94.800781 10 Z M 94.800781 0 "/>
<path style=" stroke:none;fill-rule:nonzero;fill:rgb(100%,100%,100%);fill-opacity:1;" d="M 98.398438 0 L 99.597656 0 L 99.597656 10 L 98.398438 10 Z M 98.398438 0 "/>
<path style=" stroke:none;fill-rule:nonzero;fill:rgb(100%,100%,100%);fill-opacity:1;" d="M 99.601562 0 L 100.800781 0 L 100.800781 10 L 99.601562 10 Z M 99.601562 0 "/>
<path style=" stroke:none;fill-rule:nonzero;fill:rgb(100%,100%,100%);fill-opacity:1;" d="M 103.199219 0 L 104.398438 0 L 104.398438 10 L 103.199219 10 Z M 103.199219 0 "/>
<path style=" stroke:none;fill-rule:nonzero;fill:rgb(100%,100%,100%);fill-opacity:1;" d="M 105.601562 0 L 106.800781 0 L 106.800781 10 L 105.601562 10 Z M 105.601562 0 "/>
<path style=" stroke:none;fill-rule:nonzero;fill:rgb(100%,100%,100%);fill-opacity:1;" d="M 106.800781 0 L 108 0 L 108 10 L 106.800781 10 Z M 106.800781 0 "/>
<path style=" stroke:none;fill-rule:nonzero;fill:rgb(100%,100%,100%);fill-opacity:1;" d="M 111.601562 0 L 112.800781 0 L 112.800781 10 L 111.601562 10 Z M 111.601562 0 "/>
<path style=" stroke:none;fill-rule:nonzero;fill:rgb(100%,100%,100%);fill-opacity:1;" d="M 112.800781 0 L 114 0 L 114 10 L 112.800781 10 Z M 112.800781 0 "/>
<path style=" stroke:none;fill-rule:nonzero;fill:rgb(100%,100%,100%);fill-opacity:1;" d="M 114 0 L 115.199219 0 L 115.199219 10 L 114 10 Z M 114 0 "/>
<path style=" stroke:none;fill-rule:nonzero;fill:rgb(100%,100%,100%);fill-opacity:1;" d="M 116.398438 0 L 117.597656 0 L 117.597656 10 L 116.398438 10 Z M 116.398438 0 "/>
<path style=" stroke:none;fill-rule:nonzero;fill:rgb(100%,100%,100%);fill-opacity:1;" d="M 118.800781 0 L 120 0 L 120 10 L 118.800781 10 Z M 118.800781 0 "/>
<path style=" stroke:none;fill-rule:nonzero;fill:rgb(100%,100%,100%);fill-opacity:1;" d="M 120 0 L 121.199219 0 L 121.199219 10 L 120 10 Z M 120 0 "/>
</g>
</svg>
</g></g>

    </g>
  </g>
</g>
</svg>
