<?xml version="1.0" encoding="utf-8"?>
<!-- Generator: Adobe Illustrator 20.1.0, SVG Export Plug-In . SVG Version: 6.00 Build 0)  -->
<svg version="1.1" id="Layer_1" xmlns="http://www.w3.org/2000/svg" xmlns:xlink="http://www.w3.org/1999/xlink" x="0px" y="0px"
   viewBox="0 0 350 200" style="enable-background:new 0 0 350 200;" xml:space="preserve">
<style type="text/css">
  .st0{fill:#FFFFFF;}
</style>
<title>Card back</title>
<desc>Created with Sketch.</desc>
<g id="Page-1">
  <g id="Card-back">
    <g id="Card" transform="translate(0, 0)">
      <path id="Combined-Shape" d="M0,188c0,6.6,5.4,12,12,12h326c6.6,0,12-5.4,12-12V12c0-6.6-5.4-12-12-12H12C5.4,0,0,5.4,0,12V188z
         M177,58.5l24.4,42.3l-10.5,6.1l-14-8.1V58.5z M203.4,104.3L212,119l-17-9.8l0,0L203.4,104.3z M210,122.5h-48.9v-12.2l13.9-8
        L210,122.5L210,122.5z M157.1,122.5H140l17.1-9.9V122.5L157.1,122.5z M138,119l24.4-42.3l10.5,6.1v16L138,119L138,119z
         M164.5,73.2l8.5-14.7v19.7L164.5,73.2L164.5,73.2z"/>
      <path id="Circle" class="st0" d="M175,38c-34.2,0-62,27.8-62,62s27.8,62,62,62s62-27.8,62-62S209.2,38,175,38z M175,160
        c-33.1,0-60-26.9-60-60s26.9-60,60-60s60,26.9,60,60S208.1,160,175,160z"/>
      <g transform="translate(236, 175)"><svg width="100" height="9" viewBox="0 0 100 9" xmlns="http://www.w3.org/2000/svg"><title>MEMBER 0002</title><path d="M3.908 7.484l2.61-5.66v7.04h.73V.173h-.693L3.611 6.57.693.173H0v8.691h.73V1.837l2.597 5.647h.581zm8.55-2.688h2.944v-.654H12.46V.888h4.106V.173h-4.836v8.691h4.836v-.702h-4.106V4.796zm12.187 2.688l2.61-5.66v7.04h.73V.173h-.693L24.35 6.57 21.429.173h-.692v8.691h.73V1.837l2.597 5.647h.581zm7.821 1.38h2.635c1.731 0 2.82-.653 2.82-2.317v-.1c0-1.084-.532-1.688-1.472-1.972.89-.27 1.397-.875 1.397-1.985v-.123c0-1.627-1.1-2.194-2.832-2.194h-2.548v8.691zm4.737-2.515v.136c0 1.27-.84 1.677-2.115 1.677h-1.892v-3.39h2.078c1.138 0 1.93.492 1.93 1.577zM33.196.888h1.806c1.274 0 2.115.333 2.115 1.54v.149c0 1.097-.668 1.59-1.794 1.59h-2.127V.887zm9.565 3.908h2.943v-.654h-2.943V.888h4.106V.173H42.03v8.691h4.836v-.702H42.76V4.796zm10.702 1.307l2.115 2.761h.878l-2.25-2.885c1.347-.197 2.275-1.097 2.275-2.638v-.32c0-1.825-1.175-2.848-2.919-2.848h-2.523v8.691h.73V6.103h1.694zM51.77.888H53.5c1.311 0 2.251.64 2.251 2.108v.345c0 1.393-.952 2.059-2.25 2.059h-1.732V.888zM68.35 9c1.707 0 2.919-1.233 2.919-2.996V3.008C71.269 1.233 70.057 0 68.35 0 66.62 0 65.42 1.233 65.42 3.008v2.996c0 1.763 1.2 2.996 2.931 2.996zm0-6.904c.334 0 .717.086.717.838v3.144c0 .74-.408.826-.717.826-.31 0-.73-.086-.73-.826V2.934c0-.752.384-.838.73-.838zM77.828 9c1.707 0 2.919-1.233 2.919-2.996V3.008C80.747 1.233 79.535 0 77.828 0c-1.731 0-2.931 1.233-2.931 3.008v2.996c0 1.763 1.2 2.996 2.931 2.996zm0-6.904c.334 0 .718.086.718.838v3.144c0 .74-.409.826-.718.826s-.73-.086-.73-.826V2.934c0-.752.384-.838.73-.838zM87.306 9c1.707 0 2.92-1.233 2.92-2.996V3.008c0-1.775-1.213-3.008-2.92-3.008-1.731 0-2.931 1.233-2.931 3.008v2.996c0 1.763 1.2 2.996 2.931 2.996zm0-6.904c.334 0 .718.086.718.838v3.144c0 .74-.409.826-.718.826s-.73-.086-.73-.826V2.934c0-.752.384-.838.73-.838zm12.088 4.672h-3.45c0-1.072 3.537-1.331 3.537-4.043C99.48 1.11 98.293 0 96.599 0c-1.67 0-2.87 1.147-2.87 2.885h2.165c0-.666.321-.826.717-.826.371 0 .693.173.693.69 0 1.615-3.575 1.455-3.575 4.414v1.701h5.665V6.768z" fill="#fff" fill-rule="evenodd"/></svg>
</g>
      <g transform="translate(116, 32) rotate(90)"><g transform='scale(1.1221122112211221 1)'>
<svg xmlns="http://www.w3.org/2000/svg" xmlns:xlink="http://www.w3.org/1999/xlink" width="1212" height="100" viewBox="0 0 1212 100" version="1.1">
<g id="surface21">
<path style=" stroke:none;fill-rule:nonzero;fill:rgb(100%,100%,100%);fill-opacity:1;" d="M 0 0 L 12 0 L 12 100 L 0 100 Z M 0 0 "/>
<path style=" stroke:none;fill-rule:nonzero;fill:rgb(100%,100%,100%);fill-opacity:1;" d="M 12 0 L 24 0 L 24 100 L 12 100 Z M 12 0 "/>
<path style=" stroke:none;fill-rule:nonzero;fill:rgb(100%,100%,100%);fill-opacity:1;" d="M 36 0 L 48 0 L 48 100 L 36 100 Z M 36 0 "/>
<path style=" stroke:none;fill-rule:nonzero;fill:rgb(100%,100%,100%);fill-opacity:1;" d="M 72 0 L 84 0 L 84 100 L 72 100 Z M 72 0 "/>
<path style=" stroke:none;fill-rule:nonzero;fill:rgb(100%,100%,100%);fill-opacity:1;" d="M 84 0 L 96 0 L 96 100 L 84 100 Z M 84 0 "/>
<path style=" stroke:none;fill-rule:nonzero;fill:rgb(100%,100%,100%);fill-opacity:1;" d="M 96 0 L 108 0 L 108 100 L 96 100 Z M 96 0 "/>
<path style=" stroke:none;fill-rule:nonzero;fill:rgb(100%,100%,100%);fill-opacity:1;" d="M 132 0 L 144 0 L 144 100 L 132 100 Z M 132 0 "/>
<path style=" stroke:none;fill-rule:nonzero;fill:rgb(100%,100%,100%);fill-opacity:1;" d="M 144 0 L 156 0 L 156 100 L 144 100 Z M 144 0 "/>
<path style=" stroke:none;fill-rule:nonzero;fill:rgb(100%,100%,100%);fill-opacity:1;" d="M 192 0 L 204 0 L 204 100 L 192 100 Z M 192 0 "/>
<path style=" stroke:none;fill-rule:nonzero;fill:rgb(100%,100%,100%);fill-opacity:1;" d="M 216 0 L 228 0 L 228 100 L 216 100 Z M 216 0 "/>
<path style=" stroke:none;fill-rule:nonzero;fill:rgb(100%,100%,100%);fill-opacity:1;" d="M 264 0 L 276 0 L 276 100 L 264 100 Z M 264 0 "/>
<path style=" stroke:none;fill-rule:nonzero;fill:rgb(100%,100%,100%);fill-opacity:1;" d="M 288 0 L 300 0 L 300 100 L 288 100 Z M 288 0 "/>
<path style=" stroke:none;fill-rule:nonzero;fill:rgb(100%,100%,100%);fill-opacity:1;" d="M 300 0 L 312 0 L 312 100 L 300 100 Z M 300 0 "/>
<path style=" stroke:none;fill-rule:nonzero;fill:rgb(100%,100%,100%);fill-opacity:1;" d="M 312 0 L 324 0 L 324 100 L 312 100 Z M 312 0 "/>
<path style=" stroke:none;fill-rule:nonzero;fill:rgb(100%,100%,100%);fill-opacity:1;" d="M 336 0 L 348 0 L 348 100 L 336 100 Z M 336 0 "/>
<path style=" stroke:none;fill-rule:nonzero;fill:rgb(100%,100%,100%);fill-opacity:1;" d="M 348 0 L 360 0 L 360 100 L 348 100 Z M 348 0 "/>
<path style=" stroke:none;fill-rule:nonzero;fill:rgb(100%,100%,100%);fill-opacity:1;" d="M 360 0 L 372 0 L 372 100 L 360 100 Z M 360 0 "/>
<path style=" stroke:none;fill-rule:nonzero;fill:rgb(100%,100%,100%);fill-opacity:1;" d="M 372 0 L 384 0 L 384 100 L 372 100 Z M 372 0 "/>
<path style=" stroke:none;fill-rule:nonzero;fill:rgb(100%,100%,100%);fill-opacity:1;" d="M 396 0 L 408 0 L 408 100 L 396 100 Z M 396 0 "/>
<path style=" stroke:none;fill-rule:nonzero;fill:rgb(100%,100%,100%);fill-opacity:1;" d="M 408 0 L 420 0 L 420 100 L 408 100 Z M 408 0 "/>
<path style=" stroke:none;fill-rule:nonzero;fill:rgb(100%,100%,100%);fill-opacity:1;" d="M 420 0 L 432 0 L 432 100 L 420 100 Z M 420 0 "/>
<path style=" stroke:none;fill-rule:nonzero;fill:rgb(100%,100%,100%);fill-opacity:1;" d="M 444 0 L 456 0 L 456 100 L 444 100 Z M 444 0 "/>
<path style=" stroke:none;fill-rule:nonzero;fill:rgb(100%,100%,100%);fill-opacity:1;" d="M 492 0 L 504 0 L 504 100 L 492 100 Z M 492 0 "/>
<path style=" stroke:none;fill-rule:nonzero;fill:rgb(100%,100%,100%);fill-opacity:1;" d="M 504 0 L 516 0 L 516 100 L 504 100 Z M 504 0 "/>
<path style=" stroke:none;fill-rule:nonzero;fill:rgb(100%,100%,100%);fill-opacity:1;" d="M 528 0 L 540 0 L 540 100 L 528 100 Z M 528 0 "/>
<path style=" stroke:none;fill-rule:nonzero;fill:rgb(100%,100%,100%);fill-opacity:1;" d="M 540 0 L 552 0 L 552 100 L 540 100 Z M 540 0 "/>
<path style=" stroke:none;fill-rule:nonzero;fill:rgb(100%,100%,100%);fill-opacity:1;" d="M 576 0 L 588 0 L 588 100 L 576 100 Z M 576 0 "/>
<path style=" stroke:none;fill-rule:nonzero;fill:rgb(100%,100%,100%);fill-opacity:1;" d="M 600 0 L 612 0 L 612 100 L 600 100 Z M 600 0 "/>
<path style=" stroke:none;fill-rule:nonzero;fill:rgb(100%,100%,100%);fill-opacity:1;" d="M 660 0 L 672 0 L 672 100 L 660 100 Z M 660 0 "/>
<path style=" stroke:none;fill-rule:nonzero;fill:rgb(100%,100%,100%);fill-opacity:1;" d="M 672 0 L 684 0 L 684 100 L 672 100 Z M 672 0 "/>
<path style=" stroke:none;fill-rule:nonzero;fill:rgb(100%,100%,100%);fill-opacity:1;" d="M 684 0 L 696 0 L 696 100 L 684 100 Z M 684 0 "/>
<path style=" stroke:none;fill-rule:nonzero;fill:rgb(100%,100%,100%);fill-opacity:1;" d="M 708 0 L 720 0 L 720 100 L 708 100 Z M 708 0 "/>
<path style=" stroke:none;fill-rule:nonzero;fill:rgb(100%,100%,100%);fill-opacity:1;" d="M 732 0 L 744 0 L 744 100 L 732 100 Z M 732 0 "/>
<path style=" stroke:none;fill-rule:nonzero;fill:rgb(100%,100%,100%);fill-opacity:1;" d="M 744 0 L 756 0 L 756 100 L 744 100 Z M 744 0 "/>
<path style=" stroke:none;fill-rule:nonzero;fill:rgb(100%,100%,100%);fill-opacity:1;" d="M 756 0 L 768 0 L 768 100 L 756 100 Z M 756 0 "/>
<path style=" stroke:none;fill-rule:nonzero;fill:rgb(100%,100%,100%);fill-opacity:1;" d="M 768 0 L 780 0 L 780 100 L 768 100 Z M 768 0 "/>
<path style=" stroke:none;fill-rule:nonzero;fill:rgb(100%,100%,100%);fill-opacity:1;" d="M 792 0 L 804 0 L 804 100 L 792 100 Z M 792 0 "/>
<path style=" stroke:none;fill-rule:nonzero;fill:rgb(100%,100%,100%);fill-opacity:1;" d="M 828 0 L 840 0 L 840 100 L 828 100 Z M 828 0 "/>
<path style=" stroke:none;fill-rule:nonzero;fill:rgb(100%,100%,100%);fill-opacity:1;" d="M 840 0 L 852 0 L 852 100 L 840 100 Z M 840 0 "/>
<path style=" stroke:none;fill-rule:nonzero;fill:rgb(100%,100%,100%);fill-opacity:1;" d="M 852 0 L 864 0 L 864 100 L 852 100 Z M 852 0 "/>
<path style=" stroke:none;fill-rule:nonzero;fill:rgb(100%,100%,100%);fill-opacity:1;" d="M 876 0 L 888 0 L 888 100 L 876 100 Z M 876 0 "/>
<path style=" stroke:none;fill-rule:nonzero;fill:rgb(100%,100%,100%);fill-opacity:1;" d="M 888 0 L 900 0 L 900 100 L 888 100 Z M 888 0 "/>
<path style=" stroke:none;fill-rule:nonzero;fill:rgb(100%,100%,100%);fill-opacity:1;" d="M 924 0 L 936 0 L 936 100 L 924 100 Z M 924 0 "/>
<path style=" stroke:none;fill-rule:nonzero;fill:rgb(100%,100%,100%);fill-opacity:1;" d="M 984 0 L 996 0 L 996 100 L 984 100 Z M 984 0 "/>
<path style=" stroke:none;fill-rule:nonzero;fill:rgb(100%,100%,100%);fill-opacity:1;" d="M 996 0 L 1008 0 L 1008 100 L 996 100 Z M 996 0 "/>
<path style=" stroke:none;fill-rule:nonzero;fill:rgb(100%,100%,100%);fill-opacity:1;" d="M 1032 0 L 1044 0 L 1044 100 L 1032 100 Z M 1032 0 "/>
<path style=" stroke:none;fill-rule:nonzero;fill:rgb(100%,100%,100%);fill-opacity:1;" d="M 1056 0 L 1068 0 L 1068 100 L 1056 100 Z M 1056 0 "/>
<path style=" stroke:none;fill-rule:nonzero;fill:rgb(100%,100%,100%);fill-opacity:1;" d="M 1068 0 L 1080 0 L 1080 100 L 1068 100 Z M 1068 0 "/>
<path style=" stroke:none;fill-rule:nonzero;fill:rgb(100%,100%,100%);fill-opacity:1;" d="M 1116 0 L 1128 0 L 1128 100 L 1116 100 Z M 1116 0 "/>
<path style=" stroke:none;fill-rule:nonzero;fill:rgb(100%,100%,100%);fill-opacity:1;" d="M 1128 0 L 1140 0 L 1140 100 L 1128 100 Z M 1128 0 "/>
<path style=" stroke:none;fill-rule:nonzero;fill:rgb(100%,100%,100%);fill-opacity:1;" d="M 1140 0 L 1152 0 L 1152 100 L 1140 100 Z M 1140 0 "/>
<path style=" stroke:none;fill-rule:nonzero;fill:rgb(100%,100%,100%);fill-opacity:1;" d="M 1164 0 L 1176 0 L 1176 100 L 1164 100 Z M 1164 0 "/>
<path style=" stroke:none;fill-rule:nonzero;fill:rgb(100%,100%,100%);fill-opacity:1;" d="M 1188 0 L 1200 0 L 1200 100 L 1188 100 Z M 1188 0 "/>
<path style=" stroke:none;fill-rule:nonzero;fill:rgb(100%,100%,100%);fill-opacity:1;" d="M 1200 0 L 1212 0 L 1212 100 L 1200 100 Z M 1200 0 "/>
</g>
</svg>
</g></g>

    </g>
  </g>
</g>
</svg>
