<?xml version="1.0" encoding="utf-8"?>
<!-- Generator: Adobe Illustrator 20.1.0, SVG Export Plug-In . SVG Version: 6.00 Build 0)  -->
<svg version="1.1" id="Layer_1" xmlns="http://www.w3.org/2000/svg" xmlns:xlink="http://www.w3.org/1999/xlink" x="0px" y="0px"
   viewBox="0 0 350 200" style="enable-background:new 0 0 350 200;" xml:space="preserve">
<style type="text/css">
  .st0{fill:#FFFFFF;}
</style>
<title>Card back</title>
<desc>Created with Sketch.</desc>
<g id="Page-1">
  <g id="Card-back">
    <g id="Card" transform="translate(0, 0)">
      <path id="Combined-Shape" d="M0,188c0,6.6,5.4,12,12,12h326c6.6,0,12-5.4,12-12V12c0-6.6-5.4-12-12-12H12C5.4,0,0,5.4,0,12V188z
         M177,58.5l24.4,42.3l-10.5,6.1l-14-8.1V58.5z M203.4,104.3L212,119l-17-9.8l0,0L203.4,104.3z M210,122.5h-48.9v-12.2l13.9-8
        L210,122.5L210,122.5z M157.1,122.5H140l17.1-9.9V122.5L157.1,122.5z M138,119l24.4-42.3l10.5,6.1v16L138,119L138,119z
         M164.5,73.2l8.5-14.7v19.7L164.5,73.2L164.5,73.2z"/>
      <path id="Circle" class="st0" d="M175,38c-34.2,0-62,27.8-62,62s27.8,62,62,62s62-27.8,62-62S209.2,38,175,38z M175,160
        c-33.1,0-60-26.9-60-60s26.9-60,60-60s60,26.9,60,60S208.1,160,175,160z"/>
      <g transform="translate(236, 175)"><svg width="100" height="9" viewBox="0 0 100 9" xmlns="http://www.w3.org/2000/svg"><title>MEMBER 0088</title><path d="M3.91 7.473l2.61-5.65v7.03h.73V.172h-.692l-2.945 6.39L.693.172H0v8.68h.73V1.833l2.598 5.64h.582zm8.553-2.684h2.945v-.652h-2.945V.887h4.108V.171h-4.838v8.68h4.838V8.15h-4.108V4.79zm12.192 2.684l2.61-5.65v7.03h.73V.172h-.693l-2.944 6.39-2.92-6.39h-.693v8.68h.73V1.833l2.598 5.64h.582zm7.823 1.38h2.636c1.732 0 2.82-.653 2.82-2.315v-.099c0-1.083-.531-1.687-1.472-1.97.891-.27 1.398-.874 1.398-1.982v-.123c0-1.625-1.1-2.192-2.833-2.192h-2.549v8.68zm4.739-2.512v.135c0 1.268-.841 1.674-2.116 1.674h-1.893V4.765h2.079c1.138 0 1.93.492 1.93 1.576zM33.208.886h1.807c1.274 0 2.115.333 2.115 1.54v.147c0 1.096-.668 1.588-1.794 1.588h-2.128V.886zm9.568 3.903h2.945v-.652h-2.945V.887h4.108V.171h-4.838v8.68h4.838V8.15h-4.108V4.79zm10.707 1.305l2.116 2.758h.878l-2.252-2.88c1.349-.198 2.277-1.096 2.277-2.635v-.32c0-1.823-1.176-2.845-2.92-2.845h-2.524v8.68h.73V6.094h1.695zM51.788.886h1.732c1.312 0 2.252.64 2.252 2.106v.345c0 1.39-.953 2.056-2.252 2.056h-1.732V.886zm16.587 8.102c1.708 0 2.92-1.232 2.92-2.992V3.004c0-1.773-1.212-3.004-2.92-3.004-1.732 0-2.932 1.231-2.932 3.004v2.992c0 1.76 1.2 2.992 2.932 2.992zm0-6.895c.335 0 .718.086.718.837v3.14c0 .738-.408.825-.718.825-.309 0-.73-.087-.73-.825V2.93c0-.75.384-.837.73-.837zm9.482 6.895c1.707 0 2.92-1.232 2.92-2.992V3.004c0-1.773-1.213-3.004-2.92-3.004-1.732 0-2.932 1.231-2.932 3.004v2.992c0 1.76 1.2 2.992 2.932 2.992zm0-6.895c.334 0 .718.086.718.837v3.14c0 .738-.409.825-.718.825-.31 0-.73-.087-.73-.825V2.93c0-.75.384-.837.73-.837zM87.277 9c1.732 0 2.97-.997 2.982-2.512 0-.898-.433-1.526-1.114-1.871.606-.382.965-.997.965-1.97 0-1.502-1.175-2.487-2.833-2.487-1.683 0-2.846.985-2.846 2.475 0 .948.359 1.563.953 1.982-.668.345-1.101.973-1.101 1.871C84.283 8.003 85.507 9 87.277 9zm0-3.607c.346 0 .73.073.73.788v.073c0 .69-.42.776-.73.776-.334 0-.743-.086-.743-.776v-.073c0-.715.384-.788.743-.788zm0-3.263c.321 0 .693.086.693.776v.049c0 .69-.396.776-.693.776-.31 0-.705-.087-.705-.776v-.05c0-.689.37-.775.705-.775zM96.622 9c1.732 0 2.97-.997 2.982-2.512 0-.898-.433-1.526-1.113-1.871.606-.382.965-.997.965-1.97 0-1.502-1.176-2.487-2.834-2.487-1.682 0-2.845.985-2.845 2.475 0 .948.358 1.563.952 1.982-.668.345-1.1.973-1.1 1.871C93.628 8.003 94.852 9 96.621 9zm0-3.607c.347 0 .73.073.73.788v.073c0 .69-.42.776-.73.776-.334 0-.742-.086-.742-.776v-.073c0-.715.383-.788.742-.788zm0-3.263c.322 0 .693.086.693.776v.049c0 .69-.396.776-.693.776-.31 0-.705-.087-.705-.776v-.05c0-.689.371-.775.705-.775z" fill="#fff" fill-rule="evenodd"/></svg>
</g>
      <g transform="translate(26, 32) rotate(90)"><g transform='scale(1.1221122112211221 1)'>
<svg xmlns="http://www.w3.org/2000/svg" xmlns:xlink="http://www.w3.org/1999/xlink" width="122" height="10" viewBox="0 0 122 10" version="1.1">
<g id="surface1053">
<path style=" stroke:none;fill-rule:nonzero;fill:rgb(100%,100%,100%);fill-opacity:1;" d="M 0 0 L 1.199219 0 L 1.199219 10 L 0 10 Z M 0 0 "/>
<path style=" stroke:none;fill-rule:nonzero;fill:rgb(100%,100%,100%);fill-opacity:1;" d="M 1.199219 0 L 2.398438 0 L 2.398438 10 L 1.199219 10 Z M 1.199219 0 "/>
<path style=" stroke:none;fill-rule:nonzero;fill:rgb(100%,100%,100%);fill-opacity:1;" d="M 3.601562 0 L 4.800781 0 L 4.800781 10 L 3.601562 10 Z M 3.601562 0 "/>
<path style=" stroke:none;fill-rule:nonzero;fill:rgb(100%,100%,100%);fill-opacity:1;" d="M 7.199219 0 L 8.398438 0 L 8.398438 10 L 7.199219 10 Z M 7.199219 0 "/>
<path style=" stroke:none;fill-rule:nonzero;fill:rgb(100%,100%,100%);fill-opacity:1;" d="M 8.398438 0 L 9.597656 0 L 9.597656 10 L 8.398438 10 Z M 8.398438 0 "/>
<path style=" stroke:none;fill-rule:nonzero;fill:rgb(100%,100%,100%);fill-opacity:1;" d="M 9.601562 0 L 10.800781 0 L 10.800781 10 L 9.601562 10 Z M 9.601562 0 "/>
<path style=" stroke:none;fill-rule:nonzero;fill:rgb(100%,100%,100%);fill-opacity:1;" d="M 13.199219 0 L 14.398438 0 L 14.398438 10 L 13.199219 10 Z M 13.199219 0 "/>
<path style=" stroke:none;fill-rule:nonzero;fill:rgb(100%,100%,100%);fill-opacity:1;" d="M 14.398438 0 L 15.597656 0 L 15.597656 10 L 14.398438 10 Z M 14.398438 0 "/>
<path style=" stroke:none;fill-rule:nonzero;fill:rgb(100%,100%,100%);fill-opacity:1;" d="M 16.800781 0 L 18 0 L 18 10 L 16.800781 10 Z M 16.800781 0 "/>
<path style=" stroke:none;fill-rule:nonzero;fill:rgb(100%,100%,100%);fill-opacity:1;" d="M 18 0 L 19.199219 0 L 19.199219 10 L 18 10 Z M 18 0 "/>
<path style=" stroke:none;fill-rule:nonzero;fill:rgb(100%,100%,100%);fill-opacity:1;" d="M 20.398438 0 L 21.597656 0 L 21.597656 10 L 20.398438 10 Z M 20.398438 0 "/>
<path style=" stroke:none;fill-rule:nonzero;fill:rgb(100%,100%,100%);fill-opacity:1;" d="M 21.601562 0 L 22.800781 0 L 22.800781 10 L 21.601562 10 Z M 21.601562 0 "/>
<path style=" stroke:none;fill-rule:nonzero;fill:rgb(100%,100%,100%);fill-opacity:1;" d="M 22.800781 0 L 24 0 L 24 10 L 22.800781 10 Z M 22.800781 0 "/>
<path style=" stroke:none;fill-rule:nonzero;fill:rgb(100%,100%,100%);fill-opacity:1;" d="M 24 0 L 25.199219 0 L 25.199219 10 L 24 10 Z M 24 0 "/>
<path style=" stroke:none;fill-rule:nonzero;fill:rgb(100%,100%,100%);fill-opacity:1;" d="M 26.398438 0 L 27.597656 0 L 27.597656 10 L 26.398438 10 Z M 26.398438 0 "/>
<path style=" stroke:none;fill-rule:nonzero;fill:rgb(100%,100%,100%);fill-opacity:1;" d="M 30 0 L 31.199219 0 L 31.199219 10 L 30 10 Z M 30 0 "/>
<path style=" stroke:none;fill-rule:nonzero;fill:rgb(100%,100%,100%);fill-opacity:1;" d="M 31.199219 0 L 32.398438 0 L 32.398438 10 L 31.199219 10 Z M 31.199219 0 "/>
<path style=" stroke:none;fill-rule:nonzero;fill:rgb(100%,100%,100%);fill-opacity:1;" d="M 32.398438 0 L 33.597656 0 L 33.597656 10 L 32.398438 10 Z M 32.398438 0 "/>
<path style=" stroke:none;fill-rule:nonzero;fill:rgb(100%,100%,100%);fill-opacity:1;" d="M 33.601562 0 L 34.800781 0 L 34.800781 10 L 33.601562 10 Z M 33.601562 0 "/>
<path style=" stroke:none;fill-rule:nonzero;fill:rgb(100%,100%,100%);fill-opacity:1;" d="M 36 0 L 37.199219 0 L 37.199219 10 L 36 10 Z M 36 0 "/>
<path style=" stroke:none;fill-rule:nonzero;fill:rgb(100%,100%,100%);fill-opacity:1;" d="M 39.601562 0 L 40.800781 0 L 40.800781 10 L 39.601562 10 Z M 39.601562 0 "/>
<path style=" stroke:none;fill-rule:nonzero;fill:rgb(100%,100%,100%);fill-opacity:1;" d="M 40.800781 0 L 42 0 L 42 10 L 40.800781 10 Z M 40.800781 0 "/>
<path style=" stroke:none;fill-rule:nonzero;fill:rgb(100%,100%,100%);fill-opacity:1;" d="M 43.199219 0 L 44.398438 0 L 44.398438 10 L 43.199219 10 Z M 43.199219 0 "/>
<path style=" stroke:none;fill-rule:nonzero;fill:rgb(100%,100%,100%);fill-opacity:1;" d="M 44.398438 0 L 45.597656 0 L 45.597656 10 L 44.398438 10 Z M 44.398438 0 "/>
<path style=" stroke:none;fill-rule:nonzero;fill:rgb(100%,100%,100%);fill-opacity:1;" d="M 45.601562 0 L 46.800781 0 L 46.800781 10 L 45.601562 10 Z M 45.601562 0 "/>
<path style=" stroke:none;fill-rule:nonzero;fill:rgb(100%,100%,100%);fill-opacity:1;" d="M 46.800781 0 L 48 0 L 48 10 L 46.800781 10 Z M 46.800781 0 "/>
<path style=" stroke:none;fill-rule:nonzero;fill:rgb(100%,100%,100%);fill-opacity:1;" d="M 49.199219 0 L 50.398438 0 L 50.398438 10 L 49.199219 10 Z M 49.199219 0 "/>
<path style=" stroke:none;fill-rule:nonzero;fill:rgb(100%,100%,100%);fill-opacity:1;" d="M 50.398438 0 L 51.597656 0 L 51.597656 10 L 50.398438 10 Z M 50.398438 0 "/>
<path style=" stroke:none;fill-rule:nonzero;fill:rgb(100%,100%,100%);fill-opacity:1;" d="M 52.800781 0 L 54 0 L 54 10 L 52.800781 10 Z M 52.800781 0 "/>
<path style=" stroke:none;fill-rule:nonzero;fill:rgb(100%,100%,100%);fill-opacity:1;" d="M 56.398438 0 L 57.597656 0 L 57.597656 10 L 56.398438 10 Z M 56.398438 0 "/>
<path style=" stroke:none;fill-rule:nonzero;fill:rgb(100%,100%,100%);fill-opacity:1;" d="M 60 0 L 61.199219 0 L 61.199219 10 L 60 10 Z M 60 0 "/>
<path style=" stroke:none;fill-rule:nonzero;fill:rgb(100%,100%,100%);fill-opacity:1;" d="M 61.199219 0 L 62.398438 0 L 62.398438 10 L 61.199219 10 Z M 61.199219 0 "/>
<path style=" stroke:none;fill-rule:nonzero;fill:rgb(100%,100%,100%);fill-opacity:1;" d="M 62.398438 0 L 63.597656 0 L 63.597656 10 L 62.398438 10 Z M 62.398438 0 "/>
<path style=" stroke:none;fill-rule:nonzero;fill:rgb(100%,100%,100%);fill-opacity:1;" d="M 63.601562 0 L 64.800781 0 L 64.800781 10 L 63.601562 10 Z M 63.601562 0 "/>
<path style=" stroke:none;fill-rule:nonzero;fill:rgb(100%,100%,100%);fill-opacity:1;" d="M 66 0 L 67.199219 0 L 67.199219 10 L 66 10 Z M 66 0 "/>
<path style=" stroke:none;fill-rule:nonzero;fill:rgb(100%,100%,100%);fill-opacity:1;" d="M 67.199219 0 L 68.398438 0 L 68.398438 10 L 67.199219 10 Z M 67.199219 0 "/>
<path style=" stroke:none;fill-rule:nonzero;fill:rgb(100%,100%,100%);fill-opacity:1;" d="M 68.398438 0 L 69.597656 0 L 69.597656 10 L 68.398438 10 Z M 68.398438 0 "/>
<path style=" stroke:none;fill-rule:nonzero;fill:rgb(100%,100%,100%);fill-opacity:1;" d="M 70.800781 0 L 72 0 L 72 10 L 70.800781 10 Z M 70.800781 0 "/>
<path style=" stroke:none;fill-rule:nonzero;fill:rgb(100%,100%,100%);fill-opacity:1;" d="M 73.199219 0 L 74.398438 0 L 74.398438 10 L 73.199219 10 Z M 73.199219 0 "/>
<path style=" stroke:none;fill-rule:nonzero;fill:rgb(100%,100%,100%);fill-opacity:1;" d="M 74.398438 0 L 75.597656 0 L 75.597656 10 L 74.398438 10 Z M 74.398438 0 "/>
<path style=" stroke:none;fill-rule:nonzero;fill:rgb(100%,100%,100%);fill-opacity:1;" d="M 75.601562 0 L 76.800781 0 L 76.800781 10 L 75.601562 10 Z M 75.601562 0 "/>
<path style=" stroke:none;fill-rule:nonzero;fill:rgb(100%,100%,100%);fill-opacity:1;" d="M 76.800781 0 L 78 0 L 78 10 L 76.800781 10 Z M 76.800781 0 "/>
<path style=" stroke:none;fill-rule:nonzero;fill:rgb(100%,100%,100%);fill-opacity:1;" d="M 79.199219 0 L 80.398438 0 L 80.398438 10 L 79.199219 10 Z M 79.199219 0 "/>
<path style=" stroke:none;fill-rule:nonzero;fill:rgb(100%,100%,100%);fill-opacity:1;" d="M 82.800781 0 L 84 0 L 84 10 L 82.800781 10 Z M 82.800781 0 "/>
<path style=" stroke:none;fill-rule:nonzero;fill:rgb(100%,100%,100%);fill-opacity:1;" d="M 84 0 L 85.199219 0 L 85.199219 10 L 84 10 Z M 84 0 "/>
<path style=" stroke:none;fill-rule:nonzero;fill:rgb(100%,100%,100%);fill-opacity:1;" d="M 85.199219 0 L 86.398438 0 L 86.398438 10 L 85.199219 10 Z M 85.199219 0 "/>
<path style=" stroke:none;fill-rule:nonzero;fill:rgb(100%,100%,100%);fill-opacity:1;" d="M 87.601562 0 L 88.800781 0 L 88.800781 10 L 87.601562 10 Z M 87.601562 0 "/>
<path style=" stroke:none;fill-rule:nonzero;fill:rgb(100%,100%,100%);fill-opacity:1;" d="M 88.800781 0 L 90 0 L 90 10 L 88.800781 10 Z M 88.800781 0 "/>
<path style=" stroke:none;fill-rule:nonzero;fill:rgb(100%,100%,100%);fill-opacity:1;" d="M 92.398438 0 L 93.597656 0 L 93.597656 10 L 92.398438 10 Z M 92.398438 0 "/>
<path style=" stroke:none;fill-rule:nonzero;fill:rgb(100%,100%,100%);fill-opacity:1;" d="M 96 0 L 97.199219 0 L 97.199219 10 L 96 10 Z M 96 0 "/>
<path style=" stroke:none;fill-rule:nonzero;fill:rgb(100%,100%,100%);fill-opacity:1;" d="M 97.199219 0 L 98.398438 0 L 98.398438 10 L 97.199219 10 Z M 97.199219 0 "/>
<path style=" stroke:none;fill-rule:nonzero;fill:rgb(100%,100%,100%);fill-opacity:1;" d="M 98.398438 0 L 99.597656 0 L 99.597656 10 L 98.398438 10 Z M 98.398438 0 "/>
<path style=" stroke:none;fill-rule:nonzero;fill:rgb(100%,100%,100%);fill-opacity:1;" d="M 100.800781 0 L 102 0 L 102 10 L 100.800781 10 Z M 100.800781 0 "/>
<path style=" stroke:none;fill-rule:nonzero;fill:rgb(100%,100%,100%);fill-opacity:1;" d="M 102 0 L 103.199219 0 L 103.199219 10 L 102 10 Z M 102 0 "/>
<path style=" stroke:none;fill-rule:nonzero;fill:rgb(100%,100%,100%);fill-opacity:1;" d="M 105.601562 0 L 106.800781 0 L 106.800781 10 L 105.601562 10 Z M 105.601562 0 "/>
<path style=" stroke:none;fill-rule:nonzero;fill:rgb(100%,100%,100%);fill-opacity:1;" d="M 106.800781 0 L 108 0 L 108 10 L 106.800781 10 Z M 106.800781 0 "/>
<path style=" stroke:none;fill-rule:nonzero;fill:rgb(100%,100%,100%);fill-opacity:1;" d="M 111.601562 0 L 112.800781 0 L 112.800781 10 L 111.601562 10 Z M 111.601562 0 "/>
<path style=" stroke:none;fill-rule:nonzero;fill:rgb(100%,100%,100%);fill-opacity:1;" d="M 112.800781 0 L 114 0 L 114 10 L 112.800781 10 Z M 112.800781 0 "/>
<path style=" stroke:none;fill-rule:nonzero;fill:rgb(100%,100%,100%);fill-opacity:1;" d="M 114 0 L 115.199219 0 L 115.199219 10 L 114 10 Z M 114 0 "/>
<path style=" stroke:none;fill-rule:nonzero;fill:rgb(100%,100%,100%);fill-opacity:1;" d="M 116.398438 0 L 117.597656 0 L 117.597656 10 L 116.398438 10 Z M 116.398438 0 "/>
<path style=" stroke:none;fill-rule:nonzero;fill:rgb(100%,100%,100%);fill-opacity:1;" d="M 118.800781 0 L 120 0 L 120 10 L 118.800781 10 Z M 118.800781 0 "/>
<path style=" stroke:none;fill-rule:nonzero;fill:rgb(100%,100%,100%);fill-opacity:1;" d="M 120 0 L 121.199219 0 L 121.199219 10 L 120 10 Z M 120 0 "/>
</g>
</svg>
</g></g>

    </g>
  </g>
</g>
</svg>
