<?xml version="1.0" encoding="utf-8"?>
<!-- Generator: Adobe Illustrator 20.1.0, SVG Export Plug-In . SVG Version: 6.00 Build 0)  -->
<svg version="1.1" id="Layer_1" xmlns="http://www.w3.org/2000/svg" xmlns:xlink="http://www.w3.org/1999/xlink" x="0px" y="0px"
   viewBox="0 0 350 200" style="enable-background:new 0 0 350 200;" xml:space="preserve">
<style type="text/css">
  .st0{fill:#FFFFFF;}
</style>
<title>Card back</title>
<desc>Created with Sketch.</desc>
<g id="Page-1">
  <g id="Card-back">
    <g id="Card" transform="translate(0, 0)">
      <path id="Combined-Shape" d="M0,188c0,6.6,5.4,12,12,12h326c6.6,0,12-5.4,12-12V12c0-6.6-5.4-12-12-12H12C5.4,0,0,5.4,0,12V188z
         M177,58.5l24.4,42.3l-10.5,6.1l-14-8.1V58.5z M203.4,104.3L212,119l-17-9.8l0,0L203.4,104.3z M210,122.5h-48.9v-12.2l13.9-8
        L210,122.5L210,122.5z M157.1,122.5H140l17.1-9.9V122.5L157.1,122.5z M138,119l24.4-42.3l10.5,6.1v16L138,119L138,119z
         M164.5,73.2l8.5-14.7v19.7L164.5,73.2L164.5,73.2z"/>
      <path id="Circle" class="st0" d="M175,38c-34.2,0-62,27.8-62,62s27.8,62,62,62s62-27.8,62-62S209.2,38,175,38z M175,160
        c-33.1,0-60-26.9-60-60s26.9-60,60-60s60,26.9,60,60S208.1,160,175,160z"/>
      <g transform="translate(236, 175)"><svg width="98" height="9" viewBox="0 0 98 9" xmlns="http://www.w3.org/2000/svg"><title>MEMBER 0072</title><path d="M3.882 7.484l2.592-5.66v7.04H7.2V.173H6.51L3.587 6.57.687.173H0v8.691h.725V1.837l2.58 5.647h.577zm8.493-2.688h2.924v-.654h-2.924V.888h4.078V.173H11.65v8.691h4.803v-.702h-4.078V4.796zM24.48 7.484l2.592-5.66v7.04h.724V.173h-.688L24.185 6.57l-2.9-6.398h-.687v8.691h.724V1.837l2.58 5.647h.578zm7.768 1.38h2.616c1.72 0 2.801-.653 2.801-2.317v-.1c0-1.084-.528-1.688-1.462-1.972.885-.27 1.389-.875 1.389-1.985v-.123c0-1.627-1.094-2.194-2.814-2.194h-2.53v8.691zm4.705-2.515v.136c0 1.27-.836 1.677-2.101 1.677h-1.88v-3.39h2.064c1.13 0 1.917.492 1.917 1.577zM32.973.888h1.793c1.265 0 2.1.333 2.1 1.54v.149c0 1.097-.663 1.59-1.78 1.59h-2.114V.887zm9.5 3.908h2.923v-.654h-2.923V.888h4.078V.173h-4.803v8.691h4.803v-.702h-4.078V4.796zm10.63 1.307l2.1 2.761h.873L53.84 5.98c1.34-.197 2.26-1.097 2.26-2.638v-.32c0-1.825-1.166-2.848-2.899-2.848h-2.506v8.691h.725V6.103h1.683zM51.42.888h1.72c1.302 0 2.236.64 2.236 2.108v.345c0 1.393-.946 2.059-2.236 2.059h-1.72V.888zM67.89 9c1.695 0 2.9-1.233 2.9-2.996V3.008C70.79 1.233 69.584 0 67.89 0c-1.72 0-2.912 1.233-2.912 3.008v2.996C64.978 7.767 66.17 9 67.89 9zm0-6.904c.332 0 .712.086.712.838v3.144c0 .74-.405.826-.712.826-.307 0-.725-.086-.725-.826V2.934c0-.752.381-.838.725-.838zM77.304 9c1.695 0 2.9-1.233 2.9-2.996V3.008c0-1.775-1.205-3.008-2.9-3.008-1.72 0-2.911 1.233-2.911 3.008v2.996C74.393 7.767 75.584 9 77.304 9zm0-6.904c.332 0 .713.086.713.838v3.144c0 .74-.406.826-.713.826-.307 0-.725-.086-.725-.826V2.934c0-.752.381-.838.725-.838zm9.169 6.768L88.942.16h-5.258v2.108h2.494l-1.892 6.596h2.187zm10.925-2.096h-3.427c0-1.072 3.513-1.331 3.513-4.043C97.484 1.11 96.304 0 94.622 0c-1.659 0-2.85 1.147-2.85 2.885h2.15c0-.666.319-.826.712-.826.369 0 .688.173.688.69 0 1.615-3.55 1.455-3.55 4.414v1.701h5.626V6.768z" fill="#fff" fill-rule="evenodd"/></svg>
</g>
      <g transform="translate(26, 32) rotate(90)"><g transform='scale(1.1221122112211221 1)'>
<svg xmlns="http://www.w3.org/2000/svg" xmlns:xlink="http://www.w3.org/1999/xlink" width="122" height="10" viewBox="0 0 122 10" version="1.1">
<g id="surface861">
<path style=" stroke:none;fill-rule:nonzero;fill:rgb(100%,100%,100%);fill-opacity:1;" d="M 0 0 L 1.199219 0 L 1.199219 10 L 0 10 Z M 0 0 "/>
<path style=" stroke:none;fill-rule:nonzero;fill:rgb(100%,100%,100%);fill-opacity:1;" d="M 1.199219 0 L 2.398438 0 L 2.398438 10 L 1.199219 10 Z M 1.199219 0 "/>
<path style=" stroke:none;fill-rule:nonzero;fill:rgb(100%,100%,100%);fill-opacity:1;" d="M 3.601562 0 L 4.800781 0 L 4.800781 10 L 3.601562 10 Z M 3.601562 0 "/>
<path style=" stroke:none;fill-rule:nonzero;fill:rgb(100%,100%,100%);fill-opacity:1;" d="M 7.199219 0 L 8.398438 0 L 8.398438 10 L 7.199219 10 Z M 7.199219 0 "/>
<path style=" stroke:none;fill-rule:nonzero;fill:rgb(100%,100%,100%);fill-opacity:1;" d="M 8.398438 0 L 9.597656 0 L 9.597656 10 L 8.398438 10 Z M 8.398438 0 "/>
<path style=" stroke:none;fill-rule:nonzero;fill:rgb(100%,100%,100%);fill-opacity:1;" d="M 9.601562 0 L 10.800781 0 L 10.800781 10 L 9.601562 10 Z M 9.601562 0 "/>
<path style=" stroke:none;fill-rule:nonzero;fill:rgb(100%,100%,100%);fill-opacity:1;" d="M 13.199219 0 L 14.398438 0 L 14.398438 10 L 13.199219 10 Z M 13.199219 0 "/>
<path style=" stroke:none;fill-rule:nonzero;fill:rgb(100%,100%,100%);fill-opacity:1;" d="M 14.398438 0 L 15.597656 0 L 15.597656 10 L 14.398438 10 Z M 14.398438 0 "/>
<path style=" stroke:none;fill-rule:nonzero;fill:rgb(100%,100%,100%);fill-opacity:1;" d="M 18 0 L 19.199219 0 L 19.199219 10 L 18 10 Z M 18 0 "/>
<path style=" stroke:none;fill-rule:nonzero;fill:rgb(100%,100%,100%);fill-opacity:1;" d="M 22.800781 0 L 24 0 L 24 10 L 22.800781 10 Z M 22.800781 0 "/>
<path style=" stroke:none;fill-rule:nonzero;fill:rgb(100%,100%,100%);fill-opacity:1;" d="M 26.398438 0 L 27.597656 0 L 27.597656 10 L 26.398438 10 Z M 26.398438 0 "/>
<path style=" stroke:none;fill-rule:nonzero;fill:rgb(100%,100%,100%);fill-opacity:1;" d="M 27.601562 0 L 28.800781 0 L 28.800781 10 L 27.601562 10 Z M 27.601562 0 "/>
<path style=" stroke:none;fill-rule:nonzero;fill:rgb(100%,100%,100%);fill-opacity:1;" d="M 28.800781 0 L 30 0 L 30 10 L 28.800781 10 Z M 28.800781 0 "/>
<path style=" stroke:none;fill-rule:nonzero;fill:rgb(100%,100%,100%);fill-opacity:1;" d="M 30 0 L 31.199219 0 L 31.199219 10 L 30 10 Z M 30 0 "/>
<path style=" stroke:none;fill-rule:nonzero;fill:rgb(100%,100%,100%);fill-opacity:1;" d="M 32.398438 0 L 33.597656 0 L 33.597656 10 L 32.398438 10 Z M 32.398438 0 "/>
<path style=" stroke:none;fill-rule:nonzero;fill:rgb(100%,100%,100%);fill-opacity:1;" d="M 37.199219 0 L 38.398438 0 L 38.398438 10 L 37.199219 10 Z M 37.199219 0 "/>
<path style=" stroke:none;fill-rule:nonzero;fill:rgb(100%,100%,100%);fill-opacity:1;" d="M 39.601562 0 L 40.800781 0 L 40.800781 10 L 39.601562 10 Z M 39.601562 0 "/>
<path style=" stroke:none;fill-rule:nonzero;fill:rgb(100%,100%,100%);fill-opacity:1;" d="M 40.800781 0 L 42 0 L 42 10 L 40.800781 10 Z M 40.800781 0 "/>
<path style=" stroke:none;fill-rule:nonzero;fill:rgb(100%,100%,100%);fill-opacity:1;" d="M 46.800781 0 L 48 0 L 48 10 L 46.800781 10 Z M 46.800781 0 "/>
<path style=" stroke:none;fill-rule:nonzero;fill:rgb(100%,100%,100%);fill-opacity:1;" d="M 49.199219 0 L 50.398438 0 L 50.398438 10 L 49.199219 10 Z M 49.199219 0 "/>
<path style=" stroke:none;fill-rule:nonzero;fill:rgb(100%,100%,100%);fill-opacity:1;" d="M 52.800781 0 L 54 0 L 54 10 L 52.800781 10 Z M 52.800781 0 "/>
<path style=" stroke:none;fill-rule:nonzero;fill:rgb(100%,100%,100%);fill-opacity:1;" d="M 55.199219 0 L 56.398438 0 L 56.398438 10 L 55.199219 10 Z M 55.199219 0 "/>
<path style=" stroke:none;fill-rule:nonzero;fill:rgb(100%,100%,100%);fill-opacity:1;" d="M 56.398438 0 L 57.597656 0 L 57.597656 10 L 56.398438 10 Z M 56.398438 0 "/>
<path style=" stroke:none;fill-rule:nonzero;fill:rgb(100%,100%,100%);fill-opacity:1;" d="M 58.800781 0 L 60 0 L 60 10 L 58.800781 10 Z M 58.800781 0 "/>
<path style=" stroke:none;fill-rule:nonzero;fill:rgb(100%,100%,100%);fill-opacity:1;" d="M 60 0 L 61.199219 0 L 61.199219 10 L 60 10 Z M 60 0 "/>
<path style=" stroke:none;fill-rule:nonzero;fill:rgb(100%,100%,100%);fill-opacity:1;" d="M 61.199219 0 L 62.398438 0 L 62.398438 10 L 61.199219 10 Z M 61.199219 0 "/>
<path style=" stroke:none;fill-rule:nonzero;fill:rgb(100%,100%,100%);fill-opacity:1;" d="M 66 0 L 67.199219 0 L 67.199219 10 L 66 10 Z M 66 0 "/>
<path style=" stroke:none;fill-rule:nonzero;fill:rgb(100%,100%,100%);fill-opacity:1;" d="M 67.199219 0 L 68.398438 0 L 68.398438 10 L 67.199219 10 Z M 67.199219 0 "/>
<path style=" stroke:none;fill-rule:nonzero;fill:rgb(100%,100%,100%);fill-opacity:1;" d="M 68.398438 0 L 69.597656 0 L 69.597656 10 L 68.398438 10 Z M 68.398438 0 "/>
<path style=" stroke:none;fill-rule:nonzero;fill:rgb(100%,100%,100%);fill-opacity:1;" d="M 70.800781 0 L 72 0 L 72 10 L 70.800781 10 Z M 70.800781 0 "/>
<path style=" stroke:none;fill-rule:nonzero;fill:rgb(100%,100%,100%);fill-opacity:1;" d="M 73.199219 0 L 74.398438 0 L 74.398438 10 L 73.199219 10 Z M 73.199219 0 "/>
<path style=" stroke:none;fill-rule:nonzero;fill:rgb(100%,100%,100%);fill-opacity:1;" d="M 74.398438 0 L 75.597656 0 L 75.597656 10 L 74.398438 10 Z M 74.398438 0 "/>
<path style=" stroke:none;fill-rule:nonzero;fill:rgb(100%,100%,100%);fill-opacity:1;" d="M 75.601562 0 L 76.800781 0 L 76.800781 10 L 75.601562 10 Z M 75.601562 0 "/>
<path style=" stroke:none;fill-rule:nonzero;fill:rgb(100%,100%,100%);fill-opacity:1;" d="M 76.800781 0 L 78 0 L 78 10 L 76.800781 10 Z M 76.800781 0 "/>
<path style=" stroke:none;fill-rule:nonzero;fill:rgb(100%,100%,100%);fill-opacity:1;" d="M 79.199219 0 L 80.398438 0 L 80.398438 10 L 79.199219 10 Z M 79.199219 0 "/>
<path style=" stroke:none;fill-rule:nonzero;fill:rgb(100%,100%,100%);fill-opacity:1;" d="M 82.800781 0 L 84 0 L 84 10 L 82.800781 10 Z M 82.800781 0 "/>
<path style=" stroke:none;fill-rule:nonzero;fill:rgb(100%,100%,100%);fill-opacity:1;" d="M 84 0 L 85.199219 0 L 85.199219 10 L 84 10 Z M 84 0 "/>
<path style=" stroke:none;fill-rule:nonzero;fill:rgb(100%,100%,100%);fill-opacity:1;" d="M 85.199219 0 L 86.398438 0 L 86.398438 10 L 85.199219 10 Z M 85.199219 0 "/>
<path style=" stroke:none;fill-rule:nonzero;fill:rgb(100%,100%,100%);fill-opacity:1;" d="M 88.800781 0 L 90 0 L 90 10 L 88.800781 10 Z M 88.800781 0 "/>
<path style=" stroke:none;fill-rule:nonzero;fill:rgb(100%,100%,100%);fill-opacity:1;" d="M 90 0 L 91.199219 0 L 91.199219 10 L 90 10 Z M 90 0 "/>
<path style=" stroke:none;fill-rule:nonzero;fill:rgb(100%,100%,100%);fill-opacity:1;" d="M 92.398438 0 L 93.597656 0 L 93.597656 10 L 92.398438 10 Z M 92.398438 0 "/>
<path style=" stroke:none;fill-rule:nonzero;fill:rgb(100%,100%,100%);fill-opacity:1;" d="M 96 0 L 97.199219 0 L 97.199219 10 L 96 10 Z M 96 0 "/>
<path style=" stroke:none;fill-rule:nonzero;fill:rgb(100%,100%,100%);fill-opacity:1;" d="M 97.199219 0 L 98.398438 0 L 98.398438 10 L 97.199219 10 Z M 97.199219 0 "/>
<path style=" stroke:none;fill-rule:nonzero;fill:rgb(100%,100%,100%);fill-opacity:1;" d="M 98.398438 0 L 99.597656 0 L 99.597656 10 L 98.398438 10 Z M 98.398438 0 "/>
<path style=" stroke:none;fill-rule:nonzero;fill:rgb(100%,100%,100%);fill-opacity:1;" d="M 99.601562 0 L 100.800781 0 L 100.800781 10 L 99.601562 10 Z M 99.601562 0 "/>
<path style=" stroke:none;fill-rule:nonzero;fill:rgb(100%,100%,100%);fill-opacity:1;" d="M 102 0 L 103.199219 0 L 103.199219 10 L 102 10 Z M 102 0 "/>
<path style=" stroke:none;fill-rule:nonzero;fill:rgb(100%,100%,100%);fill-opacity:1;" d="M 105.601562 0 L 106.800781 0 L 106.800781 10 L 105.601562 10 Z M 105.601562 0 "/>
<path style=" stroke:none;fill-rule:nonzero;fill:rgb(100%,100%,100%);fill-opacity:1;" d="M 106.800781 0 L 108 0 L 108 10 L 106.800781 10 Z M 106.800781 0 "/>
<path style=" stroke:none;fill-rule:nonzero;fill:rgb(100%,100%,100%);fill-opacity:1;" d="M 111.601562 0 L 112.800781 0 L 112.800781 10 L 111.601562 10 Z M 111.601562 0 "/>
<path style=" stroke:none;fill-rule:nonzero;fill:rgb(100%,100%,100%);fill-opacity:1;" d="M 112.800781 0 L 114 0 L 114 10 L 112.800781 10 Z M 112.800781 0 "/>
<path style=" stroke:none;fill-rule:nonzero;fill:rgb(100%,100%,100%);fill-opacity:1;" d="M 114 0 L 115.199219 0 L 115.199219 10 L 114 10 Z M 114 0 "/>
<path style=" stroke:none;fill-rule:nonzero;fill:rgb(100%,100%,100%);fill-opacity:1;" d="M 116.398438 0 L 117.597656 0 L 117.597656 10 L 116.398438 10 Z M 116.398438 0 "/>
<path style=" stroke:none;fill-rule:nonzero;fill:rgb(100%,100%,100%);fill-opacity:1;" d="M 118.800781 0 L 120 0 L 120 10 L 118.800781 10 Z M 118.800781 0 "/>
<path style=" stroke:none;fill-rule:nonzero;fill:rgb(100%,100%,100%);fill-opacity:1;" d="M 120 0 L 121.199219 0 L 121.199219 10 L 120 10 Z M 120 0 "/>
</g>
</svg>
</g></g>

    </g>
  </g>
</g>
</svg>
