<?xml version="1.0" encoding="utf-8"?>
<!-- Generator: Adobe Illustrator 20.1.0, SVG Export Plug-In . SVG Version: 6.00 Build 0)  -->
<svg version="1.1" id="Layer_1" xmlns="http://www.w3.org/2000/svg" xmlns:xlink="http://www.w3.org/1999/xlink" x="0px" y="0px"
   viewBox="0 0 350 200" style="enable-background:new 0 0 350 200;" xml:space="preserve">
<style type="text/css">
  .st0{fill:#FFFFFF;}
</style>
<title>Card back</title>
<desc>Created with Sketch.</desc>
<g id="Page-1">
  <g id="Card-back">
    <g id="Card" transform="translate(0, 0)">
      <path id="Combined-Shape" d="M0,188c0,6.6,5.4,12,12,12h326c6.6,0,12-5.4,12-12V12c0-6.6-5.4-12-12-12H12C5.4,0,0,5.4,0,12V188z
         M177,58.5l24.4,42.3l-10.5,6.1l-14-8.1V58.5z M203.4,104.3L212,119l-17-9.8l0,0L203.4,104.3z M210,122.5h-48.9v-12.2l13.9-8
        L210,122.5L210,122.5z M157.1,122.5H140l17.1-9.9V122.5L157.1,122.5z M138,119l24.4-42.3l10.5,6.1v16L138,119L138,119z
         M164.5,73.2l8.5-14.7v19.7L164.5,73.2L164.5,73.2z"/>
      <path id="Circle" class="st0" d="M175,38c-34.2,0-62,27.8-62,62s27.8,62,62,62s62-27.8,62-62S209.2,38,175,38z M175,160
        c-33.1,0-60-26.9-60-60s26.9-60,60-60s60,26.9,60,60S208.1,160,175,160z"/>
      <g transform="translate(236, 175)"><svg width="97" height="9" viewBox="0 0 97 9" xmlns="http://www.w3.org/2000/svg"><title>MEMBER 0001</title><path d="M3.88 7.484l2.592-5.66v7.04h.725V.173h-.688L3.586 6.57.688.173H0v8.691h.725V1.837l2.579 5.647h.577zm8.491-2.688h2.923v-.654h-2.923V.888h4.077V.173h-4.801v8.691h4.801v-.702h-4.077V4.796zm12.101 2.688l2.591-5.66v7.04h.725V.173H27.1L24.177 6.57 21.28.173h-.688v8.691h.725V1.837l2.579 5.647h.577zm7.766 1.38h2.616c1.719 0 2.8-.653 2.8-2.317v-.1c0-1.084-.528-1.688-1.462-1.972.885-.27 1.388-.875 1.388-1.985v-.123C37.58.74 36.487.173 34.768.173h-2.53v8.691zM36.94 6.35v.136c0 1.27-.835 1.677-2.1 1.677h-1.879v-3.39h2.064c1.13 0 1.915.492 1.915 1.577zM32.962.888h1.793c1.265 0 2.1.333 2.1 1.54v.149c0 1.097-.663 1.59-1.78 1.59h-2.113V.887zm9.498 3.908h2.923v-.654H42.46V.888h4.077V.173h-4.802v8.691h4.802v-.702H42.46V4.796zm10.627 1.307l2.1 2.761h.872L53.824 5.98c1.338-.197 2.26-1.097 2.26-2.638v-.32c0-1.825-1.167-2.848-2.899-2.848H50.68v8.691h.724V6.103h1.683zM51.404.888h1.72c1.302 0 2.235.64 2.235 2.108v.345c0 1.393-.946 2.059-2.235 2.059h-1.72V.888zM67.87 9c1.695 0 2.899-1.233 2.899-2.996V3.008C70.768 1.233 69.564 0 67.869 0c-1.72 0-2.91 1.233-2.91 3.008v2.996c0 1.763 1.19 2.996 2.91 2.996zm0-6.904c.332 0 .713.086.713.838v3.144c0 .74-.406.826-.713.826-.307 0-.724-.086-.724-.826V2.934c0-.752.38-.838.724-.838zM77.281 9c1.694 0 2.898-1.233 2.898-2.996V3.008C80.179 1.233 78.975 0 77.281 0c-1.72 0-2.91 1.233-2.91 3.008v2.996C74.37 7.767 75.56 9 77.28 9zm0-6.904c.331 0 .712.086.712.838v3.144c0 .74-.405.826-.712.826-.307 0-.725-.086-.725-.826V2.934c0-.752.38-.838.725-.838zM86.692 9c1.695 0 2.898-1.233 2.898-2.996V3.008C89.59 1.233 88.387 0 86.692 0c-1.72 0-2.91 1.233-2.91 3.008v2.996c0 1.763 1.19 2.996 2.91 2.996zm0-6.904c.332 0 .712.086.712.838v3.144c0 .74-.405.826-.712.826-.307 0-.724-.086-.724-.826V2.934c0-.752.38-.838.724-.838zm6.378 1.01h.983v5.758h2.186V.16h-2.015c0 .678-.245.851-1.154.851v2.096z" fill="#fff" fill-rule="evenodd"/></svg>
</g>
      <g transform="translate(116, 32) rotate(90)"><g transform='scale(1.4345991561181435 1)'>
<svg xmlns="http://www.w3.org/2000/svg" xmlns:xlink="http://www.w3.org/1999/xlink" width="948" height="100" viewBox="0 0 948 100" version="1.1">
<g id="surface9">
<path style=" stroke:none;fill-rule:nonzero;fill:rgb(100%,100%,100%);fill-opacity:1;" d="M 0 0 L 12 0 L 12 100 L 0 100 Z M 0 0 "/>
<path style=" stroke:none;fill-rule:nonzero;fill:rgb(100%,100%,100%);fill-opacity:1;" d="M 12 0 L 24 0 L 24 100 L 12 100 Z M 12 0 "/>
<path style=" stroke:none;fill-rule:nonzero;fill:rgb(100%,100%,100%);fill-opacity:1;" d="M 36 0 L 48 0 L 48 100 L 36 100 Z M 36 0 "/>
<path style=" stroke:none;fill-rule:nonzero;fill:rgb(100%,100%,100%);fill-opacity:1;" d="M 72 0 L 84 0 L 84 100 L 72 100 Z M 72 0 "/>
<path style=" stroke:none;fill-rule:nonzero;fill:rgb(100%,100%,100%);fill-opacity:1;" d="M 84 0 L 96 0 L 96 100 L 84 100 Z M 84 0 "/>
<path style=" stroke:none;fill-rule:nonzero;fill:rgb(100%,100%,100%);fill-opacity:1;" d="M 96 0 L 108 0 L 108 100 L 96 100 Z M 96 0 "/>
<path style=" stroke:none;fill-rule:nonzero;fill:rgb(100%,100%,100%);fill-opacity:1;" d="M 132 0 L 144 0 L 144 100 L 132 100 Z M 132 0 "/>
<path style=" stroke:none;fill-rule:nonzero;fill:rgb(100%,100%,100%);fill-opacity:1;" d="M 144 0 L 156 0 L 156 100 L 144 100 Z M 144 0 "/>
<path style=" stroke:none;fill-rule:nonzero;fill:rgb(100%,100%,100%);fill-opacity:1;" d="M 204 0 L 216 0 L 216 100 L 204 100 Z M 204 0 "/>
<path style=" stroke:none;fill-rule:nonzero;fill:rgb(100%,100%,100%);fill-opacity:1;" d="M 228 0 L 240 0 L 240 100 L 228 100 Z M 228 0 "/>
<path style=" stroke:none;fill-rule:nonzero;fill:rgb(100%,100%,100%);fill-opacity:1;" d="M 264 0 L 276 0 L 276 100 L 264 100 Z M 264 0 "/>
<path style=" stroke:none;fill-rule:nonzero;fill:rgb(100%,100%,100%);fill-opacity:1;" d="M 288 0 L 300 0 L 300 100 L 288 100 Z M 288 0 "/>
<path style=" stroke:none;fill-rule:nonzero;fill:rgb(100%,100%,100%);fill-opacity:1;" d="M 300 0 L 312 0 L 312 100 L 300 100 Z M 300 0 "/>
<path style=" stroke:none;fill-rule:nonzero;fill:rgb(100%,100%,100%);fill-opacity:1;" d="M 312 0 L 324 0 L 324 100 L 312 100 Z M 312 0 "/>
<path style=" stroke:none;fill-rule:nonzero;fill:rgb(100%,100%,100%);fill-opacity:1;" d="M 348 0 L 360 0 L 360 100 L 348 100 Z M 348 0 "/>
<path style=" stroke:none;fill-rule:nonzero;fill:rgb(100%,100%,100%);fill-opacity:1;" d="M 360 0 L 372 0 L 372 100 L 360 100 Z M 360 0 "/>
<path style=" stroke:none;fill-rule:nonzero;fill:rgb(100%,100%,100%);fill-opacity:1;" d="M 396 0 L 408 0 L 408 100 L 396 100 Z M 396 0 "/>
<path style=" stroke:none;fill-rule:nonzero;fill:rgb(100%,100%,100%);fill-opacity:1;" d="M 444 0 L 456 0 L 456 100 L 444 100 Z M 444 0 "/>
<path style=" stroke:none;fill-rule:nonzero;fill:rgb(100%,100%,100%);fill-opacity:1;" d="M 456 0 L 468 0 L 468 100 L 456 100 Z M 456 0 "/>
<path style=" stroke:none;fill-rule:nonzero;fill:rgb(100%,100%,100%);fill-opacity:1;" d="M 492 0 L 504 0 L 504 100 L 492 100 Z M 492 0 "/>
<path style=" stroke:none;fill-rule:nonzero;fill:rgb(100%,100%,100%);fill-opacity:1;" d="M 528 0 L 540 0 L 540 100 L 528 100 Z M 528 0 "/>
<path style=" stroke:none;fill-rule:nonzero;fill:rgb(100%,100%,100%);fill-opacity:1;" d="M 540 0 L 552 0 L 552 100 L 540 100 Z M 540 0 "/>
<path style=" stroke:none;fill-rule:nonzero;fill:rgb(100%,100%,100%);fill-opacity:1;" d="M 552 0 L 564 0 L 564 100 L 552 100 Z M 552 0 "/>
<path style=" stroke:none;fill-rule:nonzero;fill:rgb(100%,100%,100%);fill-opacity:1;" d="M 564 0 L 576 0 L 576 100 L 564 100 Z M 564 0 "/>
<path style=" stroke:none;fill-rule:nonzero;fill:rgb(100%,100%,100%);fill-opacity:1;" d="M 588 0 L 600 0 L 600 100 L 588 100 Z M 588 0 "/>
<path style=" stroke:none;fill-rule:nonzero;fill:rgb(100%,100%,100%);fill-opacity:1;" d="M 600 0 L 612 0 L 612 100 L 600 100 Z M 600 0 "/>
<path style=" stroke:none;fill-rule:nonzero;fill:rgb(100%,100%,100%);fill-opacity:1;" d="M 624 0 L 636 0 L 636 100 L 624 100 Z M 624 0 "/>
<path style=" stroke:none;fill-rule:nonzero;fill:rgb(100%,100%,100%);fill-opacity:1;" d="M 636 0 L 648 0 L 648 100 L 636 100 Z M 636 0 "/>
<path style=" stroke:none;fill-rule:nonzero;fill:rgb(100%,100%,100%);fill-opacity:1;" d="M 660 0 L 672 0 L 672 100 L 660 100 Z M 660 0 "/>
<path style=" stroke:none;fill-rule:nonzero;fill:rgb(100%,100%,100%);fill-opacity:1;" d="M 672 0 L 684 0 L 684 100 L 672 100 Z M 672 0 "/>
<path style=" stroke:none;fill-rule:nonzero;fill:rgb(100%,100%,100%);fill-opacity:1;" d="M 684 0 L 696 0 L 696 100 L 684 100 Z M 684 0 "/>
<path style=" stroke:none;fill-rule:nonzero;fill:rgb(100%,100%,100%);fill-opacity:1;" d="M 696 0 L 708 0 L 708 100 L 696 100 Z M 696 0 "/>
<path style=" stroke:none;fill-rule:nonzero;fill:rgb(100%,100%,100%);fill-opacity:1;" d="M 720 0 L 732 0 L 732 100 L 720 100 Z M 720 0 "/>
<path style=" stroke:none;fill-rule:nonzero;fill:rgb(100%,100%,100%);fill-opacity:1;" d="M 756 0 L 768 0 L 768 100 L 756 100 Z M 756 0 "/>
<path style=" stroke:none;fill-rule:nonzero;fill:rgb(100%,100%,100%);fill-opacity:1;" d="M 792 0 L 804 0 L 804 100 L 792 100 Z M 792 0 "/>
<path style=" stroke:none;fill-rule:nonzero;fill:rgb(100%,100%,100%);fill-opacity:1;" d="M 804 0 L 816 0 L 816 100 L 804 100 Z M 804 0 "/>
<path style=" stroke:none;fill-rule:nonzero;fill:rgb(100%,100%,100%);fill-opacity:1;" d="M 852 0 L 864 0 L 864 100 L 852 100 Z M 852 0 "/>
<path style=" stroke:none;fill-rule:nonzero;fill:rgb(100%,100%,100%);fill-opacity:1;" d="M 864 0 L 876 0 L 876 100 L 864 100 Z M 864 0 "/>
<path style=" stroke:none;fill-rule:nonzero;fill:rgb(100%,100%,100%);fill-opacity:1;" d="M 876 0 L 888 0 L 888 100 L 876 100 Z M 876 0 "/>
<path style=" stroke:none;fill-rule:nonzero;fill:rgb(100%,100%,100%);fill-opacity:1;" d="M 900 0 L 912 0 L 912 100 L 900 100 Z M 900 0 "/>
<path style=" stroke:none;fill-rule:nonzero;fill:rgb(100%,100%,100%);fill-opacity:1;" d="M 924 0 L 936 0 L 936 100 L 924 100 Z M 924 0 "/>
<path style=" stroke:none;fill-rule:nonzero;fill:rgb(100%,100%,100%);fill-opacity:1;" d="M 936 0 L 948 0 L 948 100 L 936 100 Z M 936 0 "/>
</g>
</svg>
</g></g>

    </g>
  </g>
</g>
</svg>
