<?xml version="1.0" encoding="utf-8"?>
<!-- Generator: Adobe Illustrator 20.1.0, SVG Export Plug-In . SVG Version: 6.00 Build 0)  -->
<svg version="1.1" id="Layer_1" xmlns="http://www.w3.org/2000/svg" xmlns:xlink="http://www.w3.org/1999/xlink" x="0px" y="0px"
   viewBox="0 0 350 200" style="enable-background:new 0 0 350 200;" xml:space="preserve">
<style type="text/css">
  .st0{fill:#FFFFFF;}
</style>
<title>Card back</title>
<desc>Created with Sketch.</desc>
<g id="Page-1">
  <g id="Card-back">
    <g id="Card" transform="translate(0, 0)">
      <path id="Combined-Shape" d="M0,188c0,6.6,5.4,12,12,12h326c6.6,0,12-5.4,12-12V12c0-6.6-5.4-12-12-12H12C5.4,0,0,5.4,0,12V188z
         M177,58.5l24.4,42.3l-10.5,6.1l-14-8.1V58.5z M203.4,104.3L212,119l-17-9.8l0,0L203.4,104.3z M210,122.5h-48.9v-12.2l13.9-8
        L210,122.5L210,122.5z M157.1,122.5H140l17.1-9.9V122.5L157.1,122.5z M138,119l24.4-42.3l10.5,6.1v16L138,119L138,119z
         M164.5,73.2l8.5-14.7v19.7L164.5,73.2L164.5,73.2z"/>
      <path id="Circle" class="st0" d="M175,38c-34.2,0-62,27.8-62,62s27.8,62,62,62s62-27.8,62-62S209.2,38,175,38z M175,160
        c-33.1,0-60-26.9-60-60s26.9-60,60-60s60,26.9,60,60S208.1,160,175,160z"/>
      <g transform="translate(236, 175)"><svg width="100" height="9" viewBox="0 0 100 9" xmlns="http://www.w3.org/2000/svg"><title>MEMBER 0020</title><path d="M3.908 7.484l2.61-5.66v7.04h.73V.173h-.693L3.611 6.57.693.173H0v8.691h.73V1.837l2.597 5.647h.581zm8.55-2.688h2.944v-.654H12.46V.888h4.106V.173h-4.836v8.691h4.836v-.702h-4.106V4.796zm12.187 2.688l2.61-5.66v7.04h.73V.173h-.693L24.35 6.57 21.429.173h-.692v8.691h.73V1.837l2.597 5.647h.581zm7.821 1.38h2.635c1.731 0 2.82-.653 2.82-2.317v-.1c0-1.084-.532-1.688-1.472-1.972.89-.27 1.397-.875 1.397-1.985v-.123c0-1.627-1.1-2.194-2.832-2.194h-2.548v8.691zm4.737-2.515v.136c0 1.27-.84 1.677-2.115 1.677h-1.892v-3.39h2.078c1.138 0 1.93.492 1.93 1.577zM33.196.888h1.806c1.274 0 2.115.333 2.115 1.54v.149c0 1.097-.668 1.59-1.794 1.59h-2.127V.887zm9.565 3.908h2.943v-.654h-2.943V.888h4.106V.173H42.03v8.691h4.836v-.702H42.76V4.796zm10.702 1.307l2.115 2.761h.878l-2.25-2.885c1.347-.197 2.275-1.097 2.275-2.638v-.32c0-1.825-1.175-2.848-2.919-2.848h-2.523v8.691h.73V6.103h1.694zM51.77.888H53.5c1.311 0 2.251.64 2.251 2.108v.345c0 1.393-.952 2.059-2.25 2.059h-1.732V.888zM68.35 9c1.707 0 2.919-1.233 2.919-2.996V3.008C71.269 1.233 70.057 0 68.35 0 66.62 0 65.42 1.233 65.42 3.008v2.996c0 1.763 1.2 2.996 2.931 2.996zm0-6.904c.334 0 .717.086.717.838v3.144c0 .74-.408.826-.717.826-.31 0-.73-.086-.73-.826V2.934c0-.752.384-.838.73-.838zM77.828 9c1.707 0 2.919-1.233 2.919-2.996V3.008C80.747 1.233 79.535 0 77.828 0c-1.731 0-2.931 1.233-2.931 3.008v2.996c0 1.763 1.2 2.996 2.931 2.996zm0-6.904c.334 0 .718.086.718.838v3.144c0 .74-.409.826-.718.826s-.73-.086-.73-.826V2.934c0-.752.384-.838.73-.838zm12.088 4.672h-3.45c0-1.072 3.536-1.331 3.536-4.043C90.002 1.11 88.815 0 87.121 0c-1.67 0-2.87 1.147-2.87 2.885h2.165c0-.666.321-.826.717-.826.371 0 .693.173.693.69 0 1.615-3.575 1.455-3.575 4.414v1.701h5.665V6.768zM96.549 9c1.707 0 2.92-1.233 2.92-2.996V3.008c0-1.775-1.213-3.008-2.92-3.008-1.731 0-2.93 1.233-2.93 3.008v2.996c0 1.763 1.199 2.996 2.93 2.996zm0-6.904c.334 0 .718.086.718.838v3.144c0 .74-.408.826-.718.826-.309 0-.73-.086-.73-.826V2.934c0-.752.384-.838.73-.838z" fill="#fff" fill-rule="evenodd"/></svg>
</g>
      <g transform="translate(26, 32) rotate(90)"><g transform='scale(1.2686567164179103 1)'>
<svg xmlns="http://www.w3.org/2000/svg" xmlns:xlink="http://www.w3.org/1999/xlink" width="121" height="10" viewBox="0 0 121 10" version="1.1">
<g id="surface237">
<path style=" stroke:none;fill-rule:nonzero;fill:rgb(100%,100%,100%);fill-opacity:1;" d="M 0 0 L 1.199219 0 L 1.199219 10 L 0 10 Z M 0 0 "/>
<path style=" stroke:none;fill-rule:nonzero;fill:rgb(100%,100%,100%);fill-opacity:1;" d="M 1.199219 0 L 2.398438 0 L 2.398438 10 L 1.199219 10 Z M 1.199219 0 "/>
<path style=" stroke:none;fill-rule:nonzero;fill:rgb(100%,100%,100%);fill-opacity:1;" d="M 3.601562 0 L 4.800781 0 L 4.800781 10 L 3.601562 10 Z M 3.601562 0 "/>
<path style=" stroke:none;fill-rule:nonzero;fill:rgb(100%,100%,100%);fill-opacity:1;" d="M 7.199219 0 L 8.398438 0 L 8.398438 10 L 7.199219 10 Z M 7.199219 0 "/>
<path style=" stroke:none;fill-rule:nonzero;fill:rgb(100%,100%,100%);fill-opacity:1;" d="M 8.398438 0 L 9.597656 0 L 9.597656 10 L 8.398438 10 Z M 8.398438 0 "/>
<path style=" stroke:none;fill-rule:nonzero;fill:rgb(100%,100%,100%);fill-opacity:1;" d="M 9.601562 0 L 10.800781 0 L 10.800781 10 L 9.601562 10 Z M 9.601562 0 "/>
<path style=" stroke:none;fill-rule:nonzero;fill:rgb(100%,100%,100%);fill-opacity:1;" d="M 13.199219 0 L 14.398438 0 L 14.398438 10 L 13.199219 10 Z M 13.199219 0 "/>
<path style=" stroke:none;fill-rule:nonzero;fill:rgb(100%,100%,100%);fill-opacity:1;" d="M 14.398438 0 L 15.597656 0 L 15.597656 10 L 14.398438 10 Z M 14.398438 0 "/>
<path style=" stroke:none;fill-rule:nonzero;fill:rgb(100%,100%,100%);fill-opacity:1;" d="M 18 0 L 19.199219 0 L 19.199219 10 L 18 10 Z M 18 0 "/>
<path style=" stroke:none;fill-rule:nonzero;fill:rgb(100%,100%,100%);fill-opacity:1;" d="M 22.800781 0 L 24 0 L 24 10 L 22.800781 10 Z M 22.800781 0 "/>
<path style=" stroke:none;fill-rule:nonzero;fill:rgb(100%,100%,100%);fill-opacity:1;" d="M 26.398438 0 L 27.597656 0 L 27.597656 10 L 26.398438 10 Z M 26.398438 0 "/>
<path style=" stroke:none;fill-rule:nonzero;fill:rgb(100%,100%,100%);fill-opacity:1;" d="M 32.398438 0 L 33.597656 0 L 33.597656 10 L 32.398438 10 Z M 32.398438 0 "/>
<path style=" stroke:none;fill-rule:nonzero;fill:rgb(100%,100%,100%);fill-opacity:1;" d="M 33.601562 0 L 34.800781 0 L 34.800781 10 L 33.601562 10 Z M 33.601562 0 "/>
<path style=" stroke:none;fill-rule:nonzero;fill:rgb(100%,100%,100%);fill-opacity:1;" d="M 37.199219 0 L 38.398438 0 L 38.398438 10 L 37.199219 10 Z M 37.199219 0 "/>
<path style=" stroke:none;fill-rule:nonzero;fill:rgb(100%,100%,100%);fill-opacity:1;" d="M 39.601562 0 L 40.800781 0 L 40.800781 10 L 39.601562 10 Z M 39.601562 0 "/>
<path style=" stroke:none;fill-rule:nonzero;fill:rgb(100%,100%,100%);fill-opacity:1;" d="M 42 0 L 43.199219 0 L 43.199219 10 L 42 10 Z M 42 0 "/>
<path style=" stroke:none;fill-rule:nonzero;fill:rgb(100%,100%,100%);fill-opacity:1;" d="M 43.199219 0 L 44.398438 0 L 44.398438 10 L 43.199219 10 Z M 43.199219 0 "/>
<path style=" stroke:none;fill-rule:nonzero;fill:rgb(100%,100%,100%);fill-opacity:1;" d="M 46.800781 0 L 48 0 L 48 10 L 46.800781 10 Z M 46.800781 0 "/>
<path style=" stroke:none;fill-rule:nonzero;fill:rgb(100%,100%,100%);fill-opacity:1;" d="M 48 0 L 49.199219 0 L 49.199219 10 L 48 10 Z M 48 0 "/>
<path style=" stroke:none;fill-rule:nonzero;fill:rgb(100%,100%,100%);fill-opacity:1;" d="M 49.199219 0 L 50.398438 0 L 50.398438 10 L 49.199219 10 Z M 49.199219 0 "/>
<path style=" stroke:none;fill-rule:nonzero;fill:rgb(100%,100%,100%);fill-opacity:1;" d="M 52.800781 0 L 54 0 L 54 10 L 52.800781 10 Z M 52.800781 0 "/>
<path style=" stroke:none;fill-rule:nonzero;fill:rgb(100%,100%,100%);fill-opacity:1;" d="M 54 0 L 55.199219 0 L 55.199219 10 L 54 10 Z M 54 0 "/>
<path style=" stroke:none;fill-rule:nonzero;fill:rgb(100%,100%,100%);fill-opacity:1;" d="M 57.601562 0 L 58.800781 0 L 58.800781 10 L 57.601562 10 Z M 57.601562 0 "/>
<path style=" stroke:none;fill-rule:nonzero;fill:rgb(100%,100%,100%);fill-opacity:1;" d="M 61.199219 0 L 62.398438 0 L 62.398438 10 L 61.199219 10 Z M 61.199219 0 "/>
<path style=" stroke:none;fill-rule:nonzero;fill:rgb(100%,100%,100%);fill-opacity:1;" d="M 66 0 L 67.199219 0 L 67.199219 10 L 66 10 Z M 66 0 "/>
<path style=" stroke:none;fill-rule:nonzero;fill:rgb(100%,100%,100%);fill-opacity:1;" d="M 67.199219 0 L 68.398438 0 L 68.398438 10 L 67.199219 10 Z M 67.199219 0 "/>
<path style=" stroke:none;fill-rule:nonzero;fill:rgb(100%,100%,100%);fill-opacity:1;" d="M 68.398438 0 L 69.597656 0 L 69.597656 10 L 68.398438 10 Z M 68.398438 0 "/>
<path style=" stroke:none;fill-rule:nonzero;fill:rgb(100%,100%,100%);fill-opacity:1;" d="M 69.601562 0 L 70.800781 0 L 70.800781 10 L 69.601562 10 Z M 69.601562 0 "/>
<path style=" stroke:none;fill-rule:nonzero;fill:rgb(100%,100%,100%);fill-opacity:1;" d="M 73.199219 0 L 74.398438 0 L 74.398438 10 L 73.199219 10 Z M 73.199219 0 "/>
<path style=" stroke:none;fill-rule:nonzero;fill:rgb(100%,100%,100%);fill-opacity:1;" d="M 76.800781 0 L 78 0 L 78 10 L 76.800781 10 Z M 76.800781 0 "/>
<path style=" stroke:none;fill-rule:nonzero;fill:rgb(100%,100%,100%);fill-opacity:1;" d="M 79.199219 0 L 80.398438 0 L 80.398438 10 L 79.199219 10 Z M 79.199219 0 "/>
<path style=" stroke:none;fill-rule:nonzero;fill:rgb(100%,100%,100%);fill-opacity:1;" d="M 80.398438 0 L 81.597656 0 L 81.597656 10 L 80.398438 10 Z M 80.398438 0 "/>
<path style=" stroke:none;fill-rule:nonzero;fill:rgb(100%,100%,100%);fill-opacity:1;" d="M 81.601562 0 L 82.800781 0 L 82.800781 10 L 81.601562 10 Z M 81.601562 0 "/>
<path style=" stroke:none;fill-rule:nonzero;fill:rgb(100%,100%,100%);fill-opacity:1;" d="M 84 0 L 85.199219 0 L 85.199219 10 L 84 10 Z M 84 0 "/>
<path style=" stroke:none;fill-rule:nonzero;fill:rgb(100%,100%,100%);fill-opacity:1;" d="M 86.398438 0 L 87.597656 0 L 87.597656 10 L 86.398438 10 Z M 86.398438 0 "/>
<path style=" stroke:none;fill-rule:nonzero;fill:rgb(100%,100%,100%);fill-opacity:1;" d="M 87.601562 0 L 88.800781 0 L 88.800781 10 L 87.601562 10 Z M 87.601562 0 "/>
<path style=" stroke:none;fill-rule:nonzero;fill:rgb(100%,100%,100%);fill-opacity:1;" d="M 92.398438 0 L 93.597656 0 L 93.597656 10 L 92.398438 10 Z M 92.398438 0 "/>
<path style=" stroke:none;fill-rule:nonzero;fill:rgb(100%,100%,100%);fill-opacity:1;" d="M 93.601562 0 L 94.800781 0 L 94.800781 10 L 93.601562 10 Z M 93.601562 0 "/>
<path style=" stroke:none;fill-rule:nonzero;fill:rgb(100%,100%,100%);fill-opacity:1;" d="M 98.398438 0 L 99.597656 0 L 99.597656 10 L 98.398438 10 Z M 98.398438 0 "/>
<path style=" stroke:none;fill-rule:nonzero;fill:rgb(100%,100%,100%);fill-opacity:1;" d="M 99.601562 0 L 100.800781 0 L 100.800781 10 L 99.601562 10 Z M 99.601562 0 "/>
<path style=" stroke:none;fill-rule:nonzero;fill:rgb(100%,100%,100%);fill-opacity:1;" d="M 100.800781 0 L 102 0 L 102 10 L 100.800781 10 Z M 100.800781 0 "/>
<path style=" stroke:none;fill-rule:nonzero;fill:rgb(100%,100%,100%);fill-opacity:1;" d="M 103.199219 0 L 104.398438 0 L 104.398438 10 L 103.199219 10 Z M 103.199219 0 "/>
<path style=" stroke:none;fill-rule:nonzero;fill:rgb(100%,100%,100%);fill-opacity:1;" d="M 105.601562 0 L 106.800781 0 L 106.800781 10 L 105.601562 10 Z M 105.601562 0 "/>
<path style=" stroke:none;fill-rule:nonzero;fill:rgb(100%,100%,100%);fill-opacity:1;" d="M 106.800781 0 L 108 0 L 108 10 L 106.800781 10 Z M 106.800781 0 "/>
</g>
</svg>
</g></g>

    </g>
  </g>
</g>
</svg>
