<?xml version="1.0" encoding="UTF-8" standalone="no"?>
<svg width="400px" height="250px" viewBox="0 0 400 250" version="1.1" xmlns="http://www.w3.org/2000/svg" xmlns:xlink="http://www.w3.org/1999/xlink" style="background: #FFFFFF;">
    <!-- Generator: Sketch 40.1 (33804) - http://www.bohemiancoding.com/sketch -->
    <title>Card back</title>
    <desc>Created with Sketch.</desc>
    <defs></defs>
    <g id="Page-1" stroke="none" stroke-width="1" fill="none" fill-rule="evenodd">
        <g id="Card-back">
            <g id="Card" transform="translate(25.000000, 25.000000)">
                <path d="M350,187.995298 C350,194.625312 344.624979,200 338.002882,200 L11.9971178,200 C5.3712926,200 0,194.624638 0,187.995298 L0,12.0047024 C0,5.37468834 5.37502139,3.53130486e-14 11.9971178,3.49075621e-14 L338.002882,-1.34762431e-14 C344.628707,-1.38819579e-14 350,5.3753619 350,12.0047024 L350,187.995298 Z M173,58.4945055 L148.551114,100.809885 L159.045484,106.868812 L173,98.8121685 L173,58.4945055 Z M146.550003,104.273346 L138.045084,118.993399 L155.045484,109.178213 L155.045484,109.178213 L146.550003,104.273346 Z M140.000023,122.483516 L188.925824,122.483516 L188.925824,110.316344 L175.000004,102.276268 L140.000023,122.483516 L140.000023,122.483516 Z M192.925824,122.483516 L209.999985,122.483516 L192.925824,112.625745 L192.925824,122.483516 L192.925824,122.483516 Z M211.954912,118.993392 L187.51533,76.6941144 L177,82.7651428 L177,98.8121644 L211.954912,118.993392 L211.954912,118.993392 Z M185.514219,73.2306539 L177,58.4945055 L177,78.1463406 L185.514219,73.2306539 L185.514219,73.2306539 Z" id="Combined-Shape" fill="#000000" transform="translate(175.000000, 100.000000) scale(-1, 1) translate(-175.000000, -100.000000) "></path>
                <path d="M175,162 C209.241654,162 237,134.241654 237,100 C237,65.7583455 209.241654,38 175,38 C140.758346,38 113,65.7583455 113,100 C113,134.241654 140.758346,162 175,162 Z M175,160 C208.137085,160 235,133.137085 235,100 C235,66.862915 208.137085,40 175,40 C141.862915,40 115,66.862915 115,100 C115,133.137085 141.862915,160 175,160 Z" id="Circle" fill="#FFFFFF"></path>
                <path d="M241.268,182.656 L243.8,177.148 L243.8,184 L244.508,184 L244.508,175.54 L243.836,175.54 L240.98,181.768 L238.148,175.54 L237.476,175.54 L237.476,184 L238.184,184 L238.184,177.16 L240.704,182.656 L241.268,182.656 Z M249.564,180.04 L252.42,180.04 L252.42,179.404 L249.564,179.404 L249.564,176.236 L253.548,176.236 L253.548,175.54 L248.856,175.54 L248.856,184 L253.548,184 L253.548,183.316 L249.564,183.316 L249.564,180.04 Z M261.388,182.656 L263.92,177.148 L263.92,184 L264.628,184 L264.628,175.54 L263.956,175.54 L261.1,181.768 L258.268,175.54 L257.596,175.54 L257.596,184 L258.304,184 L258.304,177.16 L260.824,182.656 L261.388,182.656 Z M268.976,184 L271.532,184 C273.212,184 274.268,183.364 274.268,181.744 L274.268,181.648 C274.268,180.592 273.752,180.004 272.84,179.728 C273.704,179.464 274.196,178.876 274.196,177.796 L274.196,177.676 C274.196,176.092 273.128,175.54 271.448,175.54 L268.976,175.54 L268.976,184 Z M273.572,181.552 L273.572,181.684 C273.572,182.92 272.756,183.316 271.52,183.316 L269.684,183.316 L269.684,180.016 L271.7,180.016 C272.804,180.016 273.572,180.496 273.572,181.552 L273.572,181.552 Z M269.684,176.236 L271.436,176.236 C272.672,176.236 273.488,176.56 273.488,177.736 L273.488,177.88 C273.488,178.948 272.84,179.428 271.748,179.428 L269.684,179.428 L269.684,176.236 Z M278.964,180.04 L281.82,180.04 L281.82,179.404 L278.964,179.404 L278.964,176.236 L282.948,176.236 L282.948,175.54 L278.256,175.54 L278.256,184 L282.948,184 L282.948,183.316 L278.964,183.316 L278.964,180.04 Z M289.348,181.312 L291.4,184 L292.252,184 L290.068,181.192 C291.376,181 292.276,180.124 292.276,178.624 L292.276,178.312 C292.276,176.536 291.136,175.54 289.444,175.54 L286.996,175.54 L286.996,184 L287.704,184 L287.704,181.312 L289.348,181.312 Z M287.704,176.236 L289.384,176.236 C290.656,176.236 291.568,176.86 291.568,178.288 L291.568,178.624 C291.568,179.98 290.644,180.628 289.384,180.628 L287.704,180.628 L287.704,176.236 Z M303.792,184.132 C305.448,184.132 306.624,182.932 306.624,181.216 L306.624,178.3 C306.624,176.572 305.448,175.372 303.792,175.372 C302.112,175.372 300.948,176.572 300.948,178.3 L300.948,181.216 C300.948,182.932 302.112,184.132 303.792,184.132 L303.792,184.132 Z M303.792,177.412 C304.116,177.412 304.488,177.496 304.488,178.228 L304.488,181.288 C304.488,182.008 304.092,182.092 303.792,182.092 C303.492,182.092 303.084,182.008 303.084,181.288 L303.084,178.228 C303.084,177.496 303.456,177.412 303.792,177.412 L303.792,177.412 Z M312.988,184.132 C314.644,184.132 315.82,182.932 315.82,181.216 L315.82,178.3 C315.82,176.572 314.644,175.372 312.988,175.372 C311.308,175.372 310.144,176.572 310.144,178.3 L310.144,181.216 C310.144,182.932 311.308,184.132 312.988,184.132 L312.988,184.132 Z M312.988,177.412 C313.312,177.412 313.684,177.496 313.684,178.228 L313.684,181.288 C313.684,182.008 313.288,182.092 312.988,182.092 C312.688,182.092 312.28,182.008 312.28,181.288 L312.28,178.228 C312.28,177.496 312.652,177.412 312.988,177.412 L312.988,177.412 Z M322.184,184.132 C323.84,184.132 325.016,182.932 325.016,181.216 L325.016,178.3 C325.016,176.572 323.84,175.372 322.184,175.372 C320.504,175.372 319.34,176.572 319.34,178.3 L319.34,181.216 C319.34,182.932 320.504,184.132 322.184,184.132 L322.184,184.132 Z M322.184,177.412 C322.508,177.412 322.88,177.496 322.88,178.228 L322.88,181.288 C322.88,182.008 322.484,182.092 322.184,182.092 C321.884,182.092 321.476,182.008 321.476,181.288 L321.476,178.228 C321.476,177.496 321.848,177.412 322.184,177.412 L322.184,177.412 Z M333.912,181.96 L330.564,181.96 C330.564,180.916 333.996,180.664 333.996,178.024 C333.996,176.452 332.844,175.372 331.2,175.372 C329.58,175.372 328.416,176.488 328.416,178.18 L330.516,178.18 C330.516,177.532 330.828,177.376 331.212,177.376 C331.572,177.376 331.884,177.544 331.884,178.048 C331.884,179.62 328.416,179.464 328.416,182.344 L328.416,184 L333.912,184 L333.912,181.96 Z" id="MEMBER-0002" fill="#FFFFFF"></path>
            </g>
        </g>
    </g>
</svg>