<?xml version="1.0" encoding="UTF-8" standalone="no"?>
<svg width="400px" height="250px" viewBox="0 0 400 250" version="1.1" xmlns="http://www.w3.org/2000/svg" xmlns:xlink="http://www.w3.org/1999/xlink">
    <!-- Generator: Sketch 40.1 (33804) - http://www.bohemiancoding.com/sketch -->
    <title>Card front</title>
    <desc>Created with Sketch.</desc>
    <defs></defs>
    <g id="Page-1" stroke="none" stroke-width="1" fill="none" fill-rule="evenodd">
        <g id="Card-front">
            <g id="Card" transform="translate(25.000000, 25.000000)">
                <path d="M350,187.995298 C350,194.625312 344.624979,200 338.002882,200 L11.9971178,200 C5.3712926,200 0,194.624638 0,187.995298 L0,12.0047024 C0,5.37468834 5.37502139,3.53130486e-14 11.9971178,3.49075621e-14 L338.002882,-1.34762431e-14 C344.628707,-1.38819579e-14 350,5.3753619 350,12.0047024 L350,187.995298 Z M173,58.4945055 L148.551114,100.809885 L159.045484,106.868812 L173,98.8121685 L173,58.4945055 Z M146.550003,104.273346 L138.045084,118.993399 L155.045484,109.178213 L155.045484,109.178213 L146.550003,104.273346 Z M140.000023,122.483516 L188.925824,122.483516 L188.925824,110.316344 L175.000004,102.276268 L140.000023,122.483516 L140.000023,122.483516 Z M192.925824,122.483516 L209.999985,122.483516 L192.925824,112.625745 L192.925824,122.483516 L192.925824,122.483516 Z M211.954912,118.993392 L187.51533,76.6941144 L177,82.7651428 L177,98.8121644 L211.954912,118.993392 L211.954912,118.993392 Z M185.514219,73.2306539 L177,58.4945055 L177,78.1463406 L185.514219,73.2306539 L185.514219,73.2306539 Z" fill="#000000"></path>
                <path d="M175,162 C209.241654,162 237,134.241654 237,100 C237,65.7583455 209.241654,38 175,38 C140.758346,38 113,65.7583455 113,100 C113,134.241654 140.758346,162 175,162 Z M175,160 C208.137085,160 235,133.137085 235,100 C235,66.862915 208.137085,40 175,40 C141.862915,40 115,66.862915 115,100 C115,133.137085 141.862915,160 175,160 Z" id="Circle" fill="#FF0926"></path>
                <g id="Logo" transform="translate(238.000000, 174.000000)">
                    <path d="M2.53719376,9.88795518 L2.53719376,7.63305322 L3.07884187,7.63305322 L3.84855234,9.88795518 L6.59955457,9.88795518 L5.37371938,7.03081232 C6.20044543,6.42857143 6.68507795,5.40616246 6.68507795,3.97759104 L6.68507795,3.71148459 C6.68507795,1.31652661 5.30244989,0 3.32115813,0 L0,0 L0,9.88795518 L2.53719376,9.88795518 Z M3.00757238,2.38095238 C3.54922049,2.38095238 4.17639198,2.53501401 4.17639198,3.7254902 L4.17639198,3.94957983 C4.17639198,5.14005602 3.5064588,5.28011204 3.00757238,5.28011204 L2.53719376,5.28011204 L2.53719376,2.38095238 L3.00757238,2.38095238 Z M16.6818114,0 L11.0230141,0 L11.0230141,9.88795518 L16.6818114,9.88795518 L16.6818114,7.5070028 L13.545954,7.5070028 L13.545954,6.06442577 L15.9263549,6.06442577 L15.9263549,3.90756303 L13.545954,3.90756303 L13.545954,2.39495798 L16.6818114,2.39495798 L16.6818114,0 Z M24.4549369,9.88795518 C26.4362287,9.88795518 27.8188567,8.61344538 27.8188567,6.232493 L27.8188567,3.71148459 C27.8188567,1.31652661 26.4362287,0 24.4549369,0 L21.0767632,0 L21.0767632,9.88795518 L24.4549369,9.88795518 Z M24.1413512,2.38095238 C24.6829993,2.38095238 25.3101707,2.53501401 25.3101707,3.7254902 L25.3101707,6.20448179 C25.3101707,7.39495798 24.6402376,7.53501401 24.1413512,7.53501401 L23.6139569,7.53501401 L23.6139569,2.38095238 L24.1413512,2.38095238 Z" id="Red" fill="#FF0926"></path>
                    <path d="M92.1514477,8.31932773 L95.15902,1.8907563 L95.15902,9.88795518 L96,9.88795518 L96,0.0140056022 L95.2017817,0.0140056022 L91.8093541,7.28291317 L88.4454343,0.0140056022 L87.647216,0.0140056022 L87.647216,9.88795518 L88.488196,9.88795518 L88.488196,1.9047619 L91.4815145,8.31932773 L92.1514477,8.31932773 Z M75.8972532,0.0140056022 L75.8972532,6.56862745 C75.8972532,8.59943978 77.2798812,10 79.261173,10 C81.2282108,10 82.6250928,8.59943978 82.6250928,6.56862745 L82.6250928,0.0140056022 L81.7841128,0.0140056022 L81.7841128,6.59663866 C81.7841128,8.20728291 80.7008166,9.20168067 79.261173,9.20168067 C77.8500371,9.20168067 76.7382331,8.24929972 76.7382331,6.59663866 L76.7382331,0.0140056022 L75.8972532,0.0140056022 Z M70.03415,0.0140056022 L70.03415,9.88795518 L70.8751299,9.88795518 L70.8751299,0.0140056022 L70.03415,0.0140056022 Z M62.7171492,9.88795518 L62.7171492,0.826330532 L65.5109131,0.826330532 L65.5109131,0.0140056022 L59.0966592,0.0140056022 L59.0966592,0.826330532 L61.8761693,0.826330532 L61.8761693,9.88795518 L62.7171492,9.88795518 Z M53.7324425,0.0140056022 L53.7324425,9.88795518 L54.5734224,9.88795518 L54.5734224,0.0140056022 L53.7324425,0.0140056022 Z M45.5887157,6.75070028 L48.0261321,9.88795518 L49.0381589,9.88795518 L46.4439495,6.61064426 C47.9976244,6.38655462 49.0666667,5.36414566 49.0666667,3.61344538 L49.0666667,3.24929972 C49.0666667,1.17647059 47.7125464,0.0140056022 45.7027468,0.0140056022 L42.7949517,0.0140056022 L42.7949517,9.88795518 L43.6359317,9.88795518 L43.6359317,6.75070028 L45.5887157,6.75070028 Z M43.6359317,0.826330532 L45.6314774,0.826330532 C47.1423905,0.826330532 48.2256867,1.55462185 48.2256867,3.22128852 L48.2256867,3.61344538 C48.2256867,5.19607843 47.1281366,5.95238095 45.6314774,5.95238095 L43.6359317,5.95238095 L43.6359317,0.826330532 Z M35.477951,9.88795518 L35.477951,0.826330532 L38.2717149,0.826330532 L38.2717149,0.0140056022 L31.857461,0.0140056022 L31.857461,0.826330532 L34.636971,0.826330532 L34.636971,9.88795518 L35.477951,9.88795518 Z" id="Tritium" fill="#FFFFFF"></path>
                </g>
            </g>
        </g>
    </g>
</svg>