<?xml version="1.0" encoding="UTF-8" standalone="no"?><svg width="97" height="9" viewBox="0 0 97 9" xmlns="http://www.w3.org/2000/svg"><title>MEMBER 0091</title><path d="M3.891 7.484l2.598-5.66v7.04h.727V.173h-.69L3.596 6.57.69.173H0v8.691h.727V1.837l2.585 5.647h.58zm8.513-2.688h2.93v-.654h-2.93V.888h4.088V.173h-4.814v8.691h4.814v-.702h-4.088V4.796zm12.133 2.688l2.599-5.66v7.04h.726V.173h-.69l-2.93 6.398L21.336.173h-.69v8.691h.727V1.837l2.586 5.647h.578zm7.787 1.38h2.623c1.724 0 2.807-.653 2.807-2.317v-.1c0-1.084-.53-1.688-1.465-1.972.886-.27 1.391-.875 1.391-1.985v-.123C37.68.74 36.584.173 34.86.173h-2.536v8.691zM37.04 6.35v.136c0 1.27-.837 1.677-2.106 1.677H33.05v-3.39h2.069c1.133 0 1.92.492 1.92 1.577zM33.05.888h1.798c1.268 0 2.106.333 2.106 1.54v.149c0 1.097-.665 1.59-1.786 1.59H33.05V.887zm9.523 3.908h2.93v-.654h-2.93V.888h4.088V.173h-4.815v8.691h4.815v-.702h-4.088V4.796zm10.656 1.307l2.105 2.761h.874l-2.24-2.885c1.342-.197 2.265-1.097 2.265-2.638v-.32c0-1.825-1.17-2.848-2.906-2.848h-2.512v8.691h.727V6.103h1.687zM51.542.888h1.723c1.306 0 2.242.64 2.242 2.108v.345c0 1.393-.949 2.059-2.242 2.059h-1.723V.888zM68.05 9c1.7 0 2.906-1.233 2.906-2.996V3.008C70.956 1.233 69.75 0 68.05 0c-1.724 0-2.918 1.233-2.918 3.008v2.996C65.132 7.767 66.326 9 68.05 9zm0-6.904c.333 0 .714.086.714.838v3.144c0 .74-.406.826-.714.826-.308 0-.726-.086-.726-.826V2.934c0-.752.381-.838.726-.838zM77.487 9c1.699 0 2.906-1.233 2.906-2.996V3.008C80.393 1.233 79.186 0 77.487 0c-1.724 0-2.919 1.233-2.919 3.008v2.996C74.568 7.767 75.763 9 77.487 9zm0-6.904c.332 0 .714.086.714.838v3.144c0 .74-.406.826-.714.826-.308 0-.727-.086-.727-.826V2.934c0-.752.382-.838.727-.838zM89.053 6.04c.358-.715.653-1.615.653-2.564V3.02c0-1.763-1.194-2.996-2.906-2.996-1.712 0-2.918 1.233-2.918 2.996v.493c0 1.775.997 2.749 2.795 2.749l-1.305 2.601h2.327l1.354-2.823zM86.8 4.426c-.345 0-.726-.086-.726-.838v-.641c0-.74.406-.826.726-.826.308 0 .714.086.714.826v.64c0 .753-.381.839-.714.839zm6.26-1.32h.985v5.758h2.192V.16h-2.02c0 .678-.246.851-1.157.851v2.096z" fill="#000" fill-rule="evenodd"/></svg>
