<?xml version="1.0" encoding="UTF-8" standalone="no"?><svg width="97" height="9" viewBox="0 0 97 9" xmlns="http://www.w3.org/2000/svg"><title>MEMBER 0013</title><path d="M3.886 7.484l2.595-5.66v7.04h.726V.173h-.689L3.591 6.57.69.173H0v8.691h.726V1.837l2.582 5.647h.578zm8.502-2.688h2.927v-.654h-2.927V.888h4.083V.173h-4.808v8.691h4.808v-.702h-4.083V4.796zm12.118 2.688l2.595-5.66v7.04h.726V.173h-.689L24.211 6.57 21.31.173h-.689v8.691h.726V1.837l2.582 5.647h.578zm7.777 1.38h2.62c1.721 0 2.803-.653 2.803-2.317v-.1c0-1.084-.529-1.688-1.463-1.972.885-.27 1.39-.875 1.39-1.985v-.123c0-1.627-1.095-2.194-2.817-2.194h-2.533v8.691zm4.71-2.515v.136c0 1.27-.836 1.677-2.103 1.677h-1.882v-3.39h2.066c1.132 0 1.919.492 1.919 1.577zM33.008.888h1.796c1.267 0 2.103.333 2.103 1.54v.149c0 1.097-.664 1.59-1.783 1.59h-2.116V.887zm9.511 3.908h2.927v-.654h-2.927V.888h4.083V.173h-4.809v8.691h4.809v-.702h-4.083V4.796zm10.642 1.307l2.103 2.761h.873L53.9 5.98c1.34-.197 2.263-1.097 2.263-2.638v-.32c0-1.825-1.169-2.848-2.903-2.848h-2.508v8.691h.725V6.103h1.685zM51.476.888h1.722c1.304 0 2.238.64 2.238 2.108v.345c0 1.393-.947 2.059-2.238 2.059h-1.722V.888zM67.964 9c1.697 0 2.902-1.233 2.902-2.996V3.008C70.866 1.233 69.661 0 67.964 0c-1.722 0-2.915 1.233-2.915 3.008v2.996C65.05 7.767 66.242 9 67.964 9zm0-6.904c.332 0 .713.086.713.838v3.144c0 .74-.406.826-.713.826-.308 0-.726-.086-.726-.826V2.934c0-.752.382-.838.726-.838zM77.388 9c1.698 0 2.903-1.233 2.903-2.996V3.008C80.29 1.233 79.086 0 77.388 0c-1.721 0-2.914 1.233-2.914 3.008v2.996C74.474 7.767 75.667 9 77.388 9zm0-6.904c.333 0 .714.086.714.838v3.144c0 .74-.406.826-.714.826-.307 0-.725-.086-.725-.826V2.934c0-.752.381-.838.725-.838zm6.387 1.01h.984v5.758h2.19V.16H84.93c0 .678-.246.851-1.156.851v2.096zm11.602 1.295c.651-.283 1.082-.949 1.082-1.898C96.459 1.11 95.279 0 93.606 0c-1.673 0-2.866 1.196-2.866 2.885h2.152c0-.666.37-.826.714-.826.32 0 .688.185.688.703 0 .505-.295.813-.947.813-.332 0-.737.013-.737.013v1.861h.824c.75 0 .983.185.983.69 0 .593-.442.74-.774.74-.357 0-.8-.147-.8-.863l-2.177-.012C90.666 7.816 91.91 9 93.643 9c1.746 0 2.963-1.159 2.963-2.823 0-1.048-.664-1.603-1.23-1.776z" fill="#000" fill-rule="evenodd"/></svg>
