<?xml version="1.0" encoding="UTF-8" standalone="no"?><svg width="100" height="9" viewBox="0 0 100 9" xmlns="http://www.w3.org/2000/svg"><title>MEMBER 0059</title><path d="M3.912 7.484l2.612-5.66v7.04h.73V.173h-.692L3.615 6.57.693.173H0v8.691h.73V1.837l2.6 5.647h.582zm8.56-2.688h2.946v-.654H12.47V.888h4.11V.173h-4.84v8.691h4.84v-.702h-4.11V4.796zM24.67 7.484l2.612-5.66v7.04h.73V.173h-.693L24.373 6.57 21.45.173h-.693v8.691h.73V1.837l2.6 5.647h.582zm7.828 1.38h2.637c1.734 0 2.823-.653 2.823-2.317v-.1c0-1.084-.532-1.688-1.473-1.972.891-.27 1.399-.875 1.399-1.985v-.123c0-1.627-1.102-2.194-2.835-2.194h-2.55v8.691zM37.24 6.35v.136c0 1.27-.842 1.677-2.117 1.677h-1.894v-3.39h2.08c1.139 0 1.931.492 1.931 1.577zM33.229.888h1.807c1.275 0 2.117.333 2.117 1.54v.149c0 1.097-.668 1.59-1.795 1.59h-2.13V.887zm9.574 3.908h2.946v-.654h-2.946V.888h4.11V.173h-4.84v8.691h4.84v-.702h-4.11V4.796zm10.713 1.307l2.117 2.761h.879L54.259 5.98c1.35-.197 2.278-1.097 2.278-2.638v-.32c0-1.825-1.176-2.848-2.922-2.848H51.09v8.691h.73V6.103h1.697zM51.82.888h1.733c1.312 0 2.253.64 2.253 2.108v.345c0 1.393-.953 2.059-2.253 2.059H51.82V.888zM68.418 9c1.708 0 2.922-1.233 2.922-2.996V3.008C71.34 1.233 70.126 0 68.418 0c-1.733 0-2.934 1.233-2.934 3.008v2.996c0 1.763 1.2 2.996 2.934 2.996zm0-6.904c.334 0 .718.086.718.838v3.144c0 .74-.409.826-.718.826-.31 0-.73-.086-.73-.826V2.934c0-.752.383-.838.73-.838zM77.905 9c1.709 0 2.922-1.233 2.922-2.996V3.008C80.827 1.233 79.614 0 77.905 0c-1.733 0-2.934 1.233-2.934 3.008v2.996C74.971 7.767 76.172 9 77.905 9zm0-6.904c.335 0 .718.086.718.838v3.144c0 .74-.408.826-.718.826s-.73-.086-.73-.826V2.934c0-.752.384-.838.73-.838zM86.6 6.004h-2.203c0 1.763 1.2 2.996 2.934 2.996 1.72 0 2.922-1.171 2.922-2.934v-.382c0-1.776-.929-2.516-2.39-2.516-.606 0-.94.222-.94.222l.247-1.134h2.686V.16h-4.469l-.867 4.76 2.105.455s.1-.493.693-.493c.397 0 .73.148.73.802v.382c0 .702-.408.838-.717.838-.322 0-.73-.136-.73-.9zm12.348.037c.359-.715.656-1.615.656-2.564V3.02c0-1.763-1.201-2.996-2.922-2.996-1.72 0-2.934 1.233-2.934 2.996v.493c0 1.775 1.003 2.749 2.81 2.749l-1.312 2.601h2.34l1.362-2.823zm-2.266-1.615c-.347 0-.73-.086-.73-.838v-.641c0-.74.408-.826.73-.826.31 0 .718.086.718.826v.64c0 .753-.384.839-.718.839z" fill="#000" fill-rule="evenodd"/></svg>
