<?xml version="1.0" encoding="UTF-8" standalone="no"?><svg width="99" height="9" viewBox="0 0 99 9" xmlns="http://www.w3.org/2000/svg"><title>MEMBER 0082</title><path d="M3.874 7.473l2.588-5.65v7.03h.723V.172h-.687L3.58 6.562.687.172H0v8.68h.723V1.833l2.575 5.64h.576zm8.477-2.684h2.918v-.652h-2.918V.887h4.07V.171h-4.793v8.68h4.794V8.15H12.35V4.79zm12.081 2.684l2.587-5.65v7.03h.724V.172h-.687l-2.918 6.39-2.894-6.39h-.686v8.68h.723V1.833l2.575 5.64h.576zm7.753 1.38h2.612c1.716 0 2.795-.653 2.795-2.315v-.099c0-1.083-.527-1.687-1.459-1.97.883-.27 1.386-.874 1.386-1.982v-.123c0-1.625-1.091-2.192-2.808-2.192h-2.526v8.68zm4.696-2.512v.135c0 1.268-.833 1.674-2.096 1.674h-1.876V4.765h2.06c1.128 0 1.912.492 1.912 1.576zM32.91.886h1.79c1.263 0 2.096.333 2.096 1.54v.147c0 1.096-.662 1.588-1.777 1.588h-2.11V.886zM42.39 4.79h2.918v-.652H42.39V.887h4.07V.171h-4.794v8.68h4.794V8.15h-4.07V4.79zM53 6.094l2.096 2.758h.87l-2.23-2.88c1.336-.198 2.255-1.096 2.255-2.635v-.32c0-1.823-1.165-2.845-2.893-2.845h-2.502v8.68h.724V6.094H53zM51.32.886h1.716c1.3 0 2.232.64 2.232 2.106v.345c0 1.39-.944 2.056-2.232 2.056h-1.716V.886zm16.438 8.102c1.692 0 2.893-1.232 2.893-2.992V3.004C70.652 1.231 69.451 0 67.76 0c-1.717 0-2.906 1.231-2.906 3.004v2.992c0 1.76 1.19 2.992 2.906 2.992zm0-6.895c.33 0 .71.086.71.837v3.14c0 .738-.404.825-.71.825-.307 0-.724-.087-.724-.825V2.93c0-.75.38-.837.724-.837zm9.396 6.895c1.692 0 2.893-1.232 2.893-2.992V3.004C80.048 1.231 78.847 0 77.155 0c-1.717 0-2.906 1.231-2.906 3.004v2.992c0 1.76 1.19 2.992 2.906 2.992zm0-6.895c.33 0 .711.086.711.837v3.14c0 .738-.405.825-.711.825-.307 0-.724-.087-.724-.825V2.93c0-.75.38-.837.724-.837zM86.49 9c1.716 0 2.942-.997 2.955-2.512 0-.898-.43-1.526-1.104-1.871.6-.382.956-.997.956-1.97 0-1.502-1.164-2.487-2.807-2.487-1.668 0-2.82.985-2.82 2.475 0 .948.355 1.563.944 1.982-.662.345-1.092.973-1.092 1.871C83.522 8.003 84.736 9 86.49 9zm0-3.607c.343 0 .723.073.723.788v.073c0 .69-.417.776-.723.776-.331 0-.736-.086-.736-.776v-.073c0-.715.38-.788.736-.788zm0-3.263c.318 0 .686.086.686.776v.049c0 .69-.392.776-.686.776-.307 0-.7-.087-.7-.776v-.05c0-.689.369-.775.7-.775zM98.4 6.76h-3.422c0-1.072 3.507-1.33 3.507-4.04 0-1.612-1.177-2.72-2.857-2.72-1.655 0-2.844 1.145-2.844 2.881h2.145c0-.665.32-.825.711-.825.368 0 .687.172.687.69 0 1.612-3.543 1.452-3.543 4.407v1.7h5.615V6.758z" fill="#000" fill-rule="evenodd"/></svg>
