<?xml version="1.0" encoding="UTF-8" standalone="no"?><svg width="99" height="9" viewBox="0 0 99 9" xmlns="http://www.w3.org/2000/svg"><title>MEMBER 0057</title><path d="M3.904 7.484l2.608-5.66v7.04h.729V.173h-.692L3.608 6.57.692.173H0v8.691h.729V1.837l2.595 5.647h.58zm8.543-2.688h2.94v-.654h-2.94V.888h4.102V.173h-4.831v8.691h4.83v-.702h-4.101V4.796zM24.62 7.484l2.607-5.66v7.04h.73V.173h-.693l-2.94 6.398L21.409.173h-.692v8.691h.729V1.837l2.595 5.647h.58zm7.813 1.38h2.632c1.73 0 2.817-.653 2.817-2.317v-.1c0-1.084-.531-1.688-1.47-1.972.89-.27 1.396-.875 1.396-1.985v-.123c0-1.627-1.1-2.194-2.83-2.194h-2.545v8.691zm4.733-2.515v.136c0 1.27-.84 1.677-2.113 1.677h-1.89v-3.39h2.075c1.137 0 1.928.492 1.928 1.577zM33.163.888h1.804c1.273 0 2.113.333 2.113 1.54v.149c0 1.097-.667 1.59-1.791 1.59h-2.126V.887zm9.556 3.908h2.94v-.654h-2.94V.888h4.102V.173H41.99v8.691h4.83v-.702H42.72V4.796zM53.41 6.103l2.113 2.761h.877L54.152 5.98c1.347-.197 2.274-1.097 2.274-2.638v-.32c0-1.825-1.174-2.848-2.916-2.848h-2.521v8.691h.729V6.103h1.693zM51.718.888h1.73c1.31 0 2.249.64 2.249 2.108v.345c0 1.393-.952 2.059-2.25 2.059h-1.73V.888zM68.283 9C69.988 9 71.2 7.767 71.2 6.004V3.008C71.2 1.233 69.99 0 68.283 0c-1.73 0-2.928 1.233-2.928 3.008v2.996C65.355 7.767 66.553 9 68.283 9zm0-6.904c.334 0 .717.086.717.838v3.144c0 .74-.408.826-.717.826s-.729-.086-.729-.826V2.934c0-.752.383-.838.73-.838zM77.752 9c1.705 0 2.916-1.233 2.916-2.996V3.008C80.668 1.233 79.457 0 77.752 0c-1.73 0-2.928 1.233-2.928 3.008v2.996C74.824 7.767 76.022 9 77.752 9zm0-6.904c.333 0 .717.086.717.838v3.144c0 .74-.408.826-.717.826s-.73-.086-.73-.826V2.934c0-.752.384-.838.73-.838zm8.678 3.908h-2.2C84.23 7.767 85.43 9 87.16 9c1.717 0 2.916-1.171 2.916-2.934v-.382c0-1.776-.927-2.516-2.385-2.516-.605 0-.939.222-.939.222l.247-1.134h2.681V.16h-4.46l-.865 4.76 2.1.455s.1-.493.693-.493c.395 0 .729.148.729.802v.382c0 .702-.408.838-.717.838-.321 0-.73-.136-.73-.9zm9.938 2.86L98.852.16h-5.289v2.108h2.509l-1.903 6.596h2.2z" fill="#000" fill-rule="evenodd"/></svg>
