<?xml version="1.0" encoding="UTF-8" standalone="no"?><svg width="99" height="9" viewBox="0 0 99 9" xmlns="http://www.w3.org/2000/svg"><title>MEMBER 0049</title><path d="M3.88 7.484l2.59-5.66v7.04h.725V.173h-.688L3.585 6.57.688.173H0v8.691h.724V1.837l2.579 5.647h.577zm8.488-2.688h2.922v-.654h-2.922V.888h4.076V.173h-4.8v8.691h4.8v-.702h-4.076V4.796zm12.098 2.688l2.59-5.66v7.04h.725V.173h-.688L24.171 6.57 21.273.173h-.687v8.691h.724V1.837l2.579 5.647h.577zm7.763 1.38h2.615c1.72 0 2.8-.653 2.8-2.317v-.1c0-1.084-.528-1.688-1.461-1.972.884-.27 1.387-.875 1.387-1.985v-.123C37.57.74 36.477.173 34.758.173H32.23v8.691zm4.703-2.515v.136c0 1.27-.835 1.677-2.1 1.677h-1.878v-3.39h2.062c1.13 0 1.916.492 1.916 1.577zM32.954.888h1.792c1.265 0 2.1.333 2.1 1.54v.149c0 1.097-.663 1.59-1.78 1.59h-2.112V.887zm9.494 3.908h2.923v-.654h-2.923V.888h4.077V.173h-4.8v8.691h4.8v-.702h-4.077V4.796zm10.625 1.307l2.1 2.761h.871L53.81 5.98c1.338-.197 2.259-1.097 2.259-2.638v-.32c0-1.825-1.167-2.848-2.898-2.848h-2.505v8.691h.725V6.103h1.682zM51.39.888h1.719c1.301 0 2.234.64 2.234 2.108v.345c0 1.393-.945 2.059-2.234 2.059h-1.72V.888zM67.85 9c1.695 0 2.898-1.233 2.898-2.996V3.008C70.749 1.233 69.546 0 67.85 0c-1.719 0-2.91 1.233-2.91 3.008v2.996c0 1.763 1.191 2.996 2.91 2.996zm0-6.904c.332 0 .712.086.712.838v3.144c0 .74-.405.826-.712.826-.307 0-.724-.086-.724-.826V2.934c0-.752.38-.838.724-.838zM77.261 9c1.693 0 2.897-1.233 2.897-2.996V3.008C80.158 1.233 78.954 0 77.26 0c-1.719 0-2.91 1.233-2.91 3.008v2.996C74.35 7.767 75.541 9 77.26 9zm0-6.904c.33 0 .711.086.711.838v3.144c0 .74-.405.826-.712.826-.307 0-.724-.086-.724-.826V2.934c0-.752.38-.838.724-.838zM88.903.16h-2.1l-3.29 5.043v1.985h3.29v1.676h2.1V7.188h.76V5.203h-.76V.16zm-3.475 5.043l1.375-2.133v2.133H85.43zm12.527.838c.356-.715.651-1.615.651-2.564V3.02c0-1.763-1.19-2.996-2.897-2.996-1.707 0-2.91 1.233-2.91 2.996v.493c0 1.775.994 2.749 2.787 2.749l-1.302 2.601h2.32l1.351-2.823zM95.71 4.426c-.344 0-.725-.086-.725-.838v-.641c0-.74.405-.826.725-.826.306 0 .712.086.712.826v.64c0 .753-.381.839-.712.839z" fill="#000" fill-rule="evenodd"/></svg>
