<?xml version="1.0" encoding="UTF-8" standalone="no"?><svg width="99" height="9" viewBox="0 0 99 9" xmlns="http://www.w3.org/2000/svg"><title>MEMBER 0056</title><path d="M3.873 7.473l2.586-5.65v7.03h.723V.172h-.686l-2.917 6.39L.686.172H0v8.68h.723V1.833l2.574 5.64h.576zm8.473-2.684h2.917v-.652h-2.917V.887h4.07V.171h-4.793v8.68h4.793V8.15h-4.07V4.79zm12.077 2.684l2.586-5.65v7.03h.723V.172h-.686l-2.917 6.39-2.893-6.39h-.686v8.68h.723V1.833l2.574 5.64h.576zm7.75 1.38h2.611c1.716 0 2.794-.653 2.794-2.315v-.099c0-1.083-.527-1.687-1.458-1.97.882-.27 1.385-.874 1.385-1.982v-.123c0-1.625-1.09-2.192-2.807-2.192h-2.525v8.68zm4.695-2.512v.135c0 1.268-.834 1.674-2.096 1.674h-1.875V4.765h2.059c1.127 0 1.912.492 1.912 1.576zM32.897.886h1.789c1.262 0 2.096.333 2.096 1.54v.147c0 1.096-.662 1.588-1.777 1.588h-2.108V.886zm9.478 3.903h2.917v-.652h-2.917V.887h4.069V.171h-4.792v8.68h4.792V8.15h-4.07V4.79zM52.98 6.094l2.096 2.758h.87l-2.23-2.88c1.335-.198 2.254-1.096 2.254-2.635v-.32c0-1.823-1.164-2.845-2.892-2.845h-2.5v8.68h.723V6.094h1.679zM51.3.886h1.717c1.299 0 2.23.64 2.23 2.106v.345c0 1.39-.943 2.056-2.23 2.056h-1.716V.886zm16.433 8.102c1.691 0 2.892-1.232 2.892-2.992V3.004C70.626 1.231 69.425 0 67.734 0c-1.716 0-2.905 1.231-2.905 3.004v2.992c0 1.76 1.189 2.992 2.905 2.992zm0-6.895c.33 0 .71.086.71.837v3.14c0 .738-.404.825-.71.825-.307 0-.724-.087-.724-.825V2.93c0-.75.38-.837.724-.837zm9.392 6.895c1.692 0 2.893-1.232 2.893-2.992V3.004C80.019 1.231 78.818 0 77.126 0c-1.716 0-2.905 1.231-2.905 3.004v2.992c0 1.76 1.19 2.992 2.905 2.992zm0-6.895c.331 0 .711.086.711.837v3.14c0 .738-.404.825-.71.825-.307 0-.724-.087-.724-.825V2.93c0-.75.38-.837.723-.837zm8.608 3.903h-2.181c0 1.76 1.189 2.992 2.904 2.992 1.704 0 2.893-1.17 2.893-2.93v-.382c0-1.773-.92-2.512-2.365-2.512-.601 0-.932.222-.932.222l.245-1.133h2.66V.16h-4.425l-.858 4.752 2.084.456s.098-.492.686-.492c.392 0 .723.147.723.8v.381c0 .702-.404.838-.71.838-.32 0-.724-.136-.724-.9zm7.738-3.041c-.343.714-.662 1.637-.662 2.585v.468C92.81 7.768 94 9 95.715 9c1.692 0 2.893-1.231 2.893-2.992v-.505c0-1.772-.993-2.745-2.77-2.745L97.137.16h-2.329l-1.336 2.795zm2.243 1.637c.331 0 .711.087.711.838v.652c0 .739-.404.825-.71.825-.32 0-.724-.086-.724-.825V5.43c0-.751.38-.838.723-.838z" fill="#000" fill-rule="evenodd"/></svg>
