<?xml version="1.0" encoding="UTF-8" standalone="no"?><svg width="97" height="9" viewBox="0 0 97 9" xmlns="http://www.w3.org/2000/svg"><title>MEMBER 0015</title><path d="M3.884 7.484l2.593-5.66v7.04h.725V.173h-.688L3.589 6.57.689.173H0v8.691h.725V1.837l2.581 5.647h.578zm8.497-2.688h2.925v-.654H12.38V.888h4.08V.173h-4.806v8.691h4.806v-.702h-4.08V4.796zm12.11 2.688l2.593-5.66v7.04h.725V.173h-.688L24.196 6.57l-2.9-6.398h-.69v8.691h.726V1.837l2.581 5.647h.578zm7.771 1.38h2.618c1.72 0 2.802-.653 2.802-2.317v-.1c0-1.084-.528-1.688-1.462-1.972.885-.27 1.389-.875 1.389-1.985v-.123c0-1.627-1.094-2.194-2.815-2.194h-2.532v8.691zM36.97 6.35v.136c0 1.27-.836 1.677-2.102 1.677h-1.88v-3.39h2.064c1.131 0 1.918.492 1.918 1.577zM32.987.888h1.795c1.266 0 2.102.333 2.102 1.54v.149c0 1.097-.664 1.59-1.783 1.59h-2.114V.887zm9.505 3.908h2.925v-.654h-2.925V.888h4.08V.173h-4.805v8.691h4.805v-.702h-4.08V4.796zm10.635 1.307l2.102 2.761h.873L53.865 5.98c1.34-.197 2.261-1.097 2.261-2.638v-.32c0-1.825-1.167-2.848-2.9-2.848h-2.508v8.691h.726V6.103h1.683zM51.444.888h1.72c1.303 0 2.237.64 2.237 2.108v.345c0 1.393-.946 2.059-2.237 2.059h-1.72V.888zM67.92 9c1.696 0 2.9-1.233 2.9-2.996V3.008c0-1.775-1.204-3.008-2.9-3.008-1.72 0-2.913 1.233-2.913 3.008v2.996C65.008 7.767 66.2 9 67.921 9zm0-6.904c.332 0 .713.086.713.838v3.144c0 .74-.406.826-.713.826-.307 0-.725-.086-.725-.826V2.934c0-.752.38-.838.725-.838zM77.339 9c1.697 0 2.901-1.233 2.901-2.996V3.008C80.24 1.233 79.036 0 77.34 0c-1.721 0-2.913 1.233-2.913 3.008v2.996C74.427 7.767 75.619 9 77.339 9zm0-6.904c.332 0 .713.086.713.838v3.144c0 .74-.405.826-.713.826-.307 0-.725-.086-.725-.826V2.934c0-.752.381-.838.725-.838zm6.383 1.01h.983v5.758h2.188V.16h-2.015c0 .678-.246.851-1.156.851v2.096zm9.136 2.898H90.67C90.67 7.767 91.863 9 93.583 9c1.709 0 2.9-1.171 2.9-2.934v-.382c0-1.776-.921-2.516-2.371-2.516-.602 0-.934.222-.934.222l.245-1.134h2.668V.16h-4.437l-.86 4.76 2.089.455s.098-.493.688-.493c.393 0 .725.148.725.802v.382c0 .702-.405.838-.713.838-.32 0-.725-.136-.725-.9z" fill="#000" fill-rule="evenodd"/></svg>
