<?xml version="1.0" encoding="UTF-8" standalone="no"?><svg width="99" height="9" viewBox="0 0 99 9" xmlns="http://www.w3.org/2000/svg"><title>MEMBER 0079</title><path d="M3.912 7.484l2.612-5.66v7.04h.73V.173h-.693L3.615 6.57.693.173H0v8.691h.73V1.837l2.6 5.647h.582zm8.558-2.688h2.946v-.654H12.47V.888h4.11V.173h-4.84v8.691h4.84v-.702h-4.11V4.796zm12.197 2.688l2.612-5.66v7.04h.73V.173h-.692L24.37 6.57 21.45.173h-.693v8.691h.73V1.837l2.6 5.647h.581zm7.828 1.38h2.637c1.733 0 2.822-.653 2.822-2.317v-.1c0-1.084-.532-1.688-1.473-1.972.892-.27 1.4-.875 1.4-1.985v-.123C37.88.74 36.777.173 35.044.173h-2.55v8.691zm4.741-2.515v.136c0 1.27-.841 1.677-2.116 1.677h-1.894v-3.39h2.08c1.138 0 1.93.492 1.93 1.577zM33.226.888h1.807c1.275 0 2.117.333 2.117 1.54v.149c0 1.097-.669 1.59-1.795 1.59h-2.13V.887zm9.573 3.908h2.946v-.654h-2.946V.888h4.11V.173h-4.84v8.691h4.84v-.702h-4.11V4.796zM53.51 6.103l2.117 2.761h.879L54.254 5.98c1.349-.197 2.277-1.097 2.277-2.638v-.32c0-1.825-1.176-2.848-2.921-2.848h-2.525v8.691h.73V6.103h1.696zM51.815.888h1.733c1.312 0 2.253.64 2.253 2.108v.345c0 1.393-.953 2.059-2.253 2.059h-1.733V.888zM68.41 9c1.708 0 2.922-1.233 2.922-2.996V3.008C71.333 1.233 70.119 0 68.41 0c-1.733 0-2.934 1.233-2.934 3.008v2.996C65.477 7.767 66.678 9 68.411 9zm0-6.904c.334 0 .718.086.718.838v3.144c0 .74-.408.826-.718.826s-.73-.086-.73-.826V2.934c0-.752.384-.838.73-.838zM77.898 9c1.708 0 2.921-1.233 2.921-2.996V3.008C80.82 1.233 79.606 0 77.898 0c-1.733 0-2.934 1.233-2.934 3.008v2.996c0 1.763 1.2 2.996 2.934 2.996zm0-6.904c.334 0 .718.086.718.838v3.144c0 .74-.409.826-.718.826-.31 0-.73-.086-.73-.826V2.934c0-.752.383-.838.73-.838zm9.239 6.768L89.625.16h-5.298v2.108h2.513l-1.907 6.596h2.204zm10.81-2.823c.36-.715.657-1.615.657-2.564V3.02c0-1.763-1.2-2.996-2.922-2.996-1.72 0-2.933 1.233-2.933 2.996v.493c0 1.775 1.002 2.749 2.81 2.749l-1.313 2.601h2.34l1.362-2.823zm-2.265-1.615c-.346 0-.73-.086-.73-.838v-.641c0-.74.409-.826.73-.826.31 0 .718.086.718.826v.64c0 .753-.383.839-.718.839z" fill="#000" fill-rule="evenodd"/></svg>
