<?xml version="1.0" encoding="UTF-8" standalone="no"?><svg width="99" height="9" viewBox="0 0 99 9" xmlns="http://www.w3.org/2000/svg"><title>MEMBER 0023</title><path d="M3.874 7.484l2.588-5.66v7.04h.723V.173h-.687L3.58 6.57.687.173H0v8.691h.723V1.837l2.575 5.647h.576zm8.477-2.688h2.918v-.654h-2.918V.888h4.07V.173h-4.793v8.691h4.794v-.702H12.35V4.796zm12.081 2.688l2.587-5.66v7.04h.724V.173h-.687L24.138 6.57 21.244.173h-.686v8.691h.723V1.837l2.575 5.647h.576zm7.753 1.38h2.612c1.716 0 2.795-.653 2.795-2.317v-.1c0-1.084-.527-1.688-1.459-1.972.883-.27 1.386-.875 1.386-1.985v-.123C37.519.74 36.428.173 34.71.173h-2.526v8.691zm4.696-2.515v.136c0 1.27-.833 1.677-2.096 1.677h-1.876v-3.39h2.06c1.128 0 1.912.492 1.912 1.577zM32.91.888h1.79c1.263 0 2.096.333 2.096 1.54v.149c0 1.097-.662 1.59-1.777 1.59h-2.11V.887zm9.482 3.908h2.918v-.654H42.39V.888h4.07V.173h-4.794v8.691h4.794v-.702h-4.07V4.796zM53 6.103l2.096 2.761h.87l-2.23-2.885c1.336-.197 2.255-1.097 2.255-2.638v-.32c0-1.825-1.165-2.848-2.893-2.848h-2.502v8.691h.724V6.103H53zM51.32.888h1.716c1.3 0 2.232.64 2.232 2.108v.345c0 1.393-.944 2.059-2.232 2.059h-1.716V.888zM67.759 9c1.692 0 2.893-1.233 2.893-2.996V3.008C70.652 1.233 69.451 0 67.76 0c-1.717 0-2.906 1.233-2.906 3.008v2.996c0 1.763 1.19 2.996 2.906 2.996zm0-6.904c.33 0 .71.086.71.838v3.144c0 .74-.404.826-.71.826-.307 0-.724-.086-.724-.826V2.934c0-.752.38-.838.724-.838zM77.155 9c1.692 0 2.893-1.233 2.893-2.996V3.008C80.048 1.233 78.847 0 77.155 0c-1.717 0-2.906 1.233-2.906 3.008v2.996c0 1.763 1.19 2.996 2.906 2.996zm0-6.904c.33 0 .711.086.711.838v3.144c0 .74-.405.826-.711.826-.307 0-.724-.086-.724-.826V2.934c0-.752.38-.838.724-.838zm11.983 4.672h-3.42c0-1.072 3.506-1.331 3.506-4.043C89.224 1.11 88.047 0 86.367 0c-1.655 0-2.845 1.147-2.845 2.885h2.146c0-.666.319-.826.711-.826.368 0 .687.173.687.69 0 1.615-3.544 1.455-3.544 4.414v1.701h5.616V6.768zm8.244-2.367c.65-.283 1.079-.949 1.079-1.898C98.46 1.11 97.283 0 95.616 0c-1.668 0-2.857 1.196-2.857 2.885h2.146c0-.666.368-.826.71-.826.32 0 .688.185.688.703 0 .505-.295.813-.945.813-.33 0-.735.013-.735.013v1.861h.821c.748 0 .981.185.981.69 0 .593-.441.74-.772.74-.356 0-.797-.147-.797-.863l-2.17-.012C92.686 7.816 93.924 9 95.653 9c1.74 0 2.955-1.159 2.955-2.823 0-1.048-.662-1.603-1.226-1.776z" fill="#000" fill-rule="evenodd"/></svg>
