<?xml version="1.0" encoding="UTF-8" standalone="no"?><svg width="99" height="9" viewBox="0 0 99 9" xmlns="http://www.w3.org/2000/svg"><title>MEMBER 0098</title><path d="M3.875 7.473l2.588-5.65v7.03h.724V.172H6.5l-2.919 6.39L.687.172H0v8.68h.724V1.833l2.575 5.64h.576zm8.479-2.684h2.919v-.652h-2.919V.887h4.072V.171H11.63v8.68h4.796V8.15h-4.072V4.79zm12.084 2.684l2.588-5.65v7.03h.724V.172h-.687l-2.92 6.39L21.25.172h-.687v8.68h.723V1.833l2.576 5.64h.576zm7.755 1.38h2.613c1.717 0 2.796-.653 2.796-2.315v-.099c0-1.083-.528-1.687-1.46-1.97.883-.27 1.386-.874 1.386-1.982v-.123c0-1.625-1.091-2.192-2.808-2.192h-2.527v8.68zM36.89 6.34v.135c0 1.268-.834 1.674-2.097 1.674h-1.876V4.765h2.06c1.129 0 1.913.492 1.913 1.576zM32.917.886h1.79c1.264 0 2.098.333 2.098 1.54v.147c0 1.096-.663 1.588-1.779 1.588h-2.11V.886zM42.4 4.79h2.919v-.652h-2.919V.887h4.072V.171h-4.795v8.68h4.795V8.15H42.4V4.79zm10.613 1.305l2.097 2.758h.87l-2.231-2.88c1.336-.198 2.256-1.096 2.256-2.635v-.32c0-1.823-1.165-2.845-2.894-2.845H50.61v8.68h.723V6.094h1.68zM51.334.886h1.716c1.3 0 2.233.64 2.233 2.106v.345c0 1.39-.945 2.056-2.233 2.056h-1.717V.886zm16.442 8.102c1.692 0 2.894-1.232 2.894-2.992V3.004C70.67 1.231 69.468 0 67.776 0c-1.717 0-2.907 1.231-2.907 3.004v2.992c0 1.76 1.19 2.992 2.907 2.992zm0-6.895c.33 0 .71.086.71.837v3.14c0 .738-.404.825-.71.825-.307 0-.724-.087-.724-.825V2.93c0-.75.38-.837.724-.837zm9.398 6.895c1.692 0 2.894-1.232 2.894-2.992V3.004C80.068 1.231 78.866 0 77.174 0c-1.717 0-2.907 1.231-2.907 3.004v2.992c0 1.76 1.19 2.992 2.907 2.992zm0-6.895c.331 0 .711.086.711.837v3.14c0 .738-.404.825-.711.825-.307 0-.724-.087-.724-.825V2.93c0-.75.38-.837.724-.837zm11.52 3.94c.356-.714.65-1.613.65-2.561v-.456c0-1.76-1.19-2.991-2.894-2.991-1.705 0-2.907 1.23-2.907 2.991v.493c0 1.773.994 2.745 2.784 2.745l-1.3 2.598h2.318l1.35-2.82zM86.45 4.42c-.344 0-.724-.086-.724-.837v-.64c0-.74.405-.825.724-.825.306 0 .711.086.711.825v.64c0 .75-.38.837-.711.837zM95.652 9c1.717 0 2.943-.997 2.956-2.512 0-.898-.43-1.526-1.104-1.871.6-.382.956-.997.956-1.97 0-1.502-1.165-2.487-2.808-2.487-1.668 0-2.82.985-2.82 2.475 0 .948.355 1.563.943 1.982-.662.345-1.091.973-1.091 1.871C92.684 8.003 93.898 9 95.652 9zm0-3.607c.343 0 .723.073.723.788v.073c0 .69-.417.776-.723.776-.331 0-.736-.086-.736-.776v-.073c0-.715.38-.788.736-.788zm0-3.263c.319 0 .687.086.687.776v.049c0 .69-.393.776-.687.776-.307 0-.7-.087-.7-.776v-.05c0-.689.369-.775.7-.775z" fill="#000" fill-rule="evenodd"/></svg>
