<?xml version="1.0" encoding="UTF-8" standalone="no"?><svg width="97" height="9" viewBox="0 0 97 9" xmlns="http://www.w3.org/2000/svg"><title>MEMBER 0014</title><path d="M3.882 7.484l2.593-5.66v7.04h.724V.173h-.688L3.587 6.57.688.173H0v8.691h.725V1.837l2.58 5.647h.577zm8.494-2.688H15.3v-.654h-2.924V.888h4.079V.173H11.65v8.691h4.804v-.702h-4.08V4.796zM24.48 7.484l2.593-5.66v7.04h.725V.173h-.688L24.187 6.57l-2.9-6.398H20.6v8.691h.725V1.837l2.58 5.647h.577zm7.77 1.38h2.616c1.72 0 2.801-.653 2.801-2.317v-.1c0-1.084-.528-1.688-1.462-1.972.885-.27 1.388-.875 1.388-1.985v-.123c0-1.627-1.093-2.194-2.813-2.194h-2.53v8.691zm4.705-2.515v.136c0 1.27-.836 1.677-2.101 1.677h-1.88v-3.39h2.064c1.13 0 1.917.492 1.917 1.577zM32.975.888h1.794c1.265 0 2.1.333 2.1 1.54v.149c0 1.097-.663 1.59-1.78 1.59h-2.114V.887zm9.5 3.908H45.4v-.654h-2.924V.888h4.079V.173H41.75v8.691h4.804v-.702h-4.08V4.796zm10.632 1.307l2.101 2.761h.872L53.844 5.98c1.34-.197 2.26-1.097 2.26-2.638v-.32c0-1.825-1.166-2.848-2.899-2.848H50.7v8.691h.725V6.103h1.683zM51.424.888h1.72c1.302 0 2.236.64 2.236 2.108v.345c0 1.393-.946 2.059-2.236 2.059h-1.72V.888zM67.895 9c1.696 0 2.9-1.233 2.9-2.996V3.008c0-1.775-1.204-3.008-2.9-3.008-1.72 0-2.912 1.233-2.912 3.008v2.996C64.983 7.767 66.175 9 67.895 9zm0-6.904c.332 0 .713.086.713.838v3.144c0 .74-.406.826-.713.826-.307 0-.725-.086-.725-.826V2.934c0-.752.381-.838.725-.838zM77.31 9c1.695 0 2.9-1.233 2.9-2.996V3.008C80.21 1.233 79.004 0 77.31 0c-1.72 0-2.912 1.233-2.912 3.008v2.996C74.398 7.767 75.59 9 77.31 9zm0-6.904c.332 0 .713.086.713.838v3.144c0 .74-.406.826-.713.826-.307 0-.725-.086-.725-.826V2.934c0-.752.381-.838.725-.838zm6.38 1.01h.983v5.758h2.187V.16h-2.015c0 .678-.245.851-1.155.851v2.096zM95.845.16h-2.1l-3.293 5.043v1.985h3.292v1.676h2.101V7.188h.762V5.203h-.762V.16zm-3.477 5.043l1.376-2.133v2.133h-1.376z" fill="#000" fill-rule="evenodd"/></svg>
