<?xml version="1.0" encoding="UTF-8" standalone="no"?><svg width="98" height="9" viewBox="0 0 98 9" xmlns="http://www.w3.org/2000/svg"><title>MEMBER 0087</title><path d="M3.873 7.473l2.586-5.65v7.03h.723V.172h-.687L3.58 6.562.686.172H0v8.68h.723V1.833l2.574 5.64h.576zm8.472-2.684h2.917v-.652h-2.917V.887h4.07V.171h-4.793v8.68h4.792V8.15h-4.069V4.79zm12.076 2.684l2.586-5.65v7.03h.723V.172h-.686l-2.917 6.39-2.892-6.39h-.686v8.68h.723V1.833l2.573 5.64h.576zm7.75 1.38h2.61c1.716 0 2.795-.653 2.795-2.315v-.099c0-1.083-.527-1.687-1.459-1.97.883-.27 1.385-.874 1.385-1.982v-.123c0-1.625-1.09-2.192-2.806-2.192H32.17v8.68zm4.694-2.512v.135c0 1.268-.833 1.674-2.096 1.674h-1.875V4.765h2.059c1.128 0 1.912.492 1.912 1.576zM32.895.886h1.788c1.263 0 2.096.333 2.096 1.54v.147c0 1.096-.662 1.588-1.777 1.588h-2.108V.886zm9.477 3.903h2.917v-.652h-2.917V.887h4.069V.171h-4.792v8.68h4.792V8.15h-4.07V4.79zm10.605 1.305l2.096 2.758h.87l-2.23-2.88c1.335-.198 2.254-1.096 2.254-2.635v-.32c0-1.823-1.164-2.845-2.892-2.845h-2.5v8.68h.723V6.094h1.679zM51.297.886h1.717c1.299 0 2.23.64 2.23 2.106v.345c0 1.39-.943 2.056-2.23 2.056h-1.716V.886zM67.73 8.988c1.69 0 2.892-1.232 2.892-2.992V3.004C70.621 1.231 69.42 0 67.729 0c-1.716 0-2.905 1.231-2.905 3.004v2.992c0 1.76 1.189 2.992 2.905 2.992zm0-6.895c.33 0 .71.086.71.837v3.14c0 .738-.404.825-.71.825-.307 0-.723-.087-.723-.825V2.93c0-.75.38-.837.723-.837zm9.392 6.895c1.69 0 2.892-1.232 2.892-2.992V3.004C80.013 1.231 78.812 0 77.12 0c-1.716 0-2.905 1.231-2.905 3.004v2.992c0 1.76 1.189 2.992 2.905 2.992zm0-6.895c.33 0 .71.086.71.837v3.14c0 .738-.404.825-.71.825-.307 0-.724-.087-.724-.825V2.93c0-.75.38-.837.724-.837zM86.45 9c1.716 0 2.941-.997 2.954-2.512 0-.898-.43-1.526-1.103-1.871.6-.382.956-.997.956-1.97 0-1.502-1.165-2.487-2.807-2.487-1.667 0-2.819.985-2.819 2.475 0 .948.356 1.563.944 1.982-.662.345-1.09.973-1.09 1.871C83.485 8.003 84.698 9 86.45 9zm0-3.607c.343 0 .723.073.723.788v.073c0 .69-.416.776-.723.776-.33 0-.735-.086-.735-.776v-.073c0-.715.38-.788.735-.788zm0-3.263c.319 0 .686.086.686.776v.049c0 .69-.392.776-.686.776-.306 0-.698-.087-.698-.776v-.05c0-.689.367-.775.698-.775zm8.939 6.722L97.853.16h-5.245v2.105h2.487l-1.887 6.587h2.182z" fill="#000" fill-rule="evenodd"/></svg>
