<?xml version="1.0" encoding="UTF-8" standalone="no"?><svg width="98" height="9" viewBox="0 0 98 9" xmlns="http://www.w3.org/2000/svg"><title>MEMBER 0078</title><path d="M3.88 7.473l2.592-5.65v7.03h.724V.172H6.51l-2.923 6.39L.688.172H0v8.68h.725V1.833l2.578 5.64h.578zm8.49-2.684h2.923v-.652H12.37V.887h4.077V.171h-4.801v8.68h4.801V8.15H12.37V4.79zm12.1 2.684l2.591-5.65v7.03h.725V.172h-.688l-2.922 6.39-2.899-6.39h-.687v8.68h.724V1.833l2.58 5.64h.576zm7.765 1.38h2.616c1.72 0 2.8-.653 2.8-2.315v-.099c0-1.083-.528-1.687-1.461-1.97.884-.27 1.387-.874 1.387-1.982v-.123c0-1.625-1.093-2.192-2.812-2.192h-2.53v8.68zM36.94 6.34v.135c0 1.268-.835 1.674-2.1 1.674H32.96V4.765h2.063c1.13 0 1.916.492 1.916 1.576zM32.96.886h1.793c1.265 0 2.1.333 2.1 1.54v.147c0 1.096-.663 1.588-1.78 1.588H32.96V.886zm9.497 3.903h2.922v-.652h-2.922V.887h4.077V.171h-4.802v8.68h4.802V8.15h-4.077V4.79zm10.626 1.305l2.1 2.758h.872l-2.235-2.88c1.339-.198 2.26-1.096 2.26-2.635v-.32c0-1.823-1.167-2.845-2.899-2.845h-2.505v8.68h.725V6.094h1.682zM51.401.886h1.719c1.302 0 2.235.64 2.235 2.106v.345c0 1.39-.946 2.056-2.235 2.056H51.4V.886zm16.463 8.102c1.695 0 2.899-1.232 2.899-2.992V3.004C70.763 1.231 69.559 0 67.864 0c-1.719 0-2.91 1.231-2.91 3.004v2.992c0 1.76 1.191 2.992 2.91 2.992zm0-6.895c.332 0 .713.086.713.837v3.14c0 .738-.406.825-.713.825-.307 0-.724-.087-.724-.825V2.93c0-.75.38-.837.724-.837zm9.411 6.895c1.695 0 2.898-1.232 2.898-2.992V3.004C80.173 1.231 78.97 0 77.275 0c-1.72 0-2.91 1.231-2.91 3.004v2.992c0 1.76 1.19 2.992 2.91 2.992zm0-6.895c.332 0 .712.086.712.837v3.14c0 .738-.405.825-.712.825-.307 0-.724-.087-.724-.825V2.93c0-.75.38-.837.724-.837zm9.165 6.76L88.91.16h-5.256v2.105h2.493l-1.892 6.587h2.186zM94.648 9c1.719 0 2.947-.997 2.959-2.512 0-.898-.43-1.526-1.105-1.871.602-.382.958-.997.958-1.97 0-1.502-1.167-2.487-2.812-2.487-1.67 0-2.825.985-2.825 2.475 0 .948.356 1.563.946 1.982-.663.345-1.093.973-1.093 1.871C91.676 8.003 92.89 9 94.648 9zm0-3.607c.343 0 .724.073.724.788v.073c0 .69-.417.776-.724.776-.332 0-.737-.086-.737-.776v-.073c0-.715.38-.788.737-.788zm0-3.263c.319 0 .687.086.687.776v.049c0 .69-.393.776-.687.776-.307 0-.7-.087-.7-.776v-.05c0-.689.368-.775.7-.775z" fill="#000" fill-rule="evenodd"/></svg>
