<?xml version="1.0" encoding="UTF-8" standalone="no"?><svg width="97" height="9" viewBox="0 0 97 9" xmlns="http://www.w3.org/2000/svg"><title>MEMBER 0016</title><path d="M3.891 7.473l2.598-5.65v7.03h.727V.172h-.69l-2.93 6.39L.69.172H0v8.68h.727V1.833l2.585 5.64h.58zm8.513-2.684h2.93v-.652h-2.93V.887h4.088V.171h-4.814v8.68h4.814V8.15h-4.088V4.79zm12.133 2.684l2.599-5.65v7.03h.726V.172h-.69l-2.93 6.39-2.906-6.39h-.69v8.68h.727V1.833l2.586 5.64h.578zm7.787 1.38h2.623c1.724 0 2.807-.653 2.807-2.315v-.099c0-1.083-.53-1.687-1.465-1.97.886-.27 1.391-.874 1.391-1.982v-.123c0-1.625-1.096-2.192-2.82-2.192h-2.536v8.68zM37.04 6.34v.135c0 1.268-.837 1.674-2.106 1.674H33.05V4.765h2.069c1.133 0 1.92.492 1.92 1.576zM33.05.886h1.798c1.268 0 2.106.333 2.106 1.54v.147c0 1.096-.665 1.588-1.786 1.588H33.05V.886zm9.523 3.903h2.93v-.652h-2.93V.887h4.088V.171h-4.815v8.68h4.815V8.15h-4.088V4.79zm10.656 1.305l2.105 2.758h.874l-2.24-2.88c1.342-.198 2.265-1.096 2.265-2.635v-.32c0-1.823-1.17-2.845-2.906-2.845h-2.512v8.68h.727V6.094h1.687zM51.542.886h1.723c1.306 0 2.242.64 2.242 2.106v.345c0 1.39-.949 2.056-2.242 2.056h-1.723V.886zM68.05 8.988c1.7 0 2.906-1.232 2.906-2.992V3.004C70.956 1.231 69.75 0 68.05 0c-1.724 0-2.918 1.231-2.918 3.004v2.992c0 1.76 1.194 2.992 2.918 2.992zm0-6.895c.333 0 .714.086.714.837v3.14c0 .738-.406.825-.714.825-.308 0-.726-.087-.726-.825V2.93c0-.75.381-.837.726-.837zm9.437 6.895c1.699 0 2.906-1.232 2.906-2.992V3.004C80.393 1.231 79.186 0 77.487 0c-1.724 0-2.919 1.231-2.919 3.004v2.992c0 1.76 1.195 2.992 2.919 2.992zm0-6.895c.332 0 .714.086.714.837v3.14c0 .738-.406.825-.714.825-.308 0-.727-.087-.727-.825V2.93c0-.75.382-.837.727-.837zm6.395 1.01h.985v5.75h2.192V.16h-2.02c0 .677-.246.85-1.157.85v2.093zm7.564-.148c-.344.714-.664 1.637-.664 2.585v.468C90.782 7.768 91.976 9 93.7 9c1.7 0 2.906-1.231 2.906-2.992v-.505c0-1.772-.997-2.745-2.783-2.745L95.128.16h-2.34l-1.342 2.795zM93.7 4.592c.332 0 .714.087.714.838v.652c0 .739-.406.825-.714.825-.32 0-.727-.086-.727-.825V5.43c0-.751.382-.838.727-.838z" fill="#000" fill-rule="evenodd"/></svg>
