<?xml version="1.0" encoding="UTF-8" standalone="no"?><svg width="100" height="9" viewBox="0 0 100 9" xmlns="http://www.w3.org/2000/svg"><title>MEMBER 0033</title><path d="M3.91 7.484l2.61-5.66v7.04h.73V.173h-.692L3.613 6.57.693.173H0v8.691h.73V1.837l2.598 5.647h.582zm8.553-2.688h2.945v-.654h-2.945V.888h4.108V.173h-4.838v8.691h4.838v-.702h-4.108V4.796zm12.192 2.688l2.61-5.66v7.04h.73V.173h-.693L24.358 6.57 21.438.173h-.693v8.691h.73V1.837l2.598 5.647h.582zm7.823 1.38h2.636c1.732 0 2.82-.653 2.82-2.317v-.1c0-1.084-.531-1.688-1.472-1.972.891-.27 1.398-.875 1.398-1.985v-.123c0-1.627-1.1-2.194-2.833-2.194h-2.549v8.691zm4.739-2.515v.136c0 1.27-.841 1.677-2.116 1.677h-1.893v-3.39h2.079c1.138 0 1.93.492 1.93 1.577zM33.208.888h1.807c1.274 0 2.115.333 2.115 1.54v.149c0 1.097-.668 1.59-1.794 1.59h-2.128V.887zm9.568 3.908h2.945v-.654h-2.945V.888h4.108V.173h-4.838v8.691h4.838v-.702h-4.108V4.796zm10.707 1.307l2.116 2.761h.878L54.225 5.98c1.349-.197 2.277-1.097 2.277-2.638v-.32c0-1.825-1.176-2.848-2.92-2.848h-2.524v8.691h.73V6.103h1.695zM51.788.888h1.732c1.312 0 2.252.64 2.252 2.108v.345c0 1.393-.953 2.059-2.252 2.059h-1.732V.888zM68.375 9c1.708 0 2.92-1.233 2.92-2.996V3.008c0-1.775-1.212-3.008-2.92-3.008-1.732 0-2.932 1.233-2.932 3.008v2.996c0 1.763 1.2 2.996 2.932 2.996zm0-6.904c.335 0 .718.086.718.838v3.144c0 .74-.408.826-.718.826-.309 0-.73-.086-.73-.826V2.934c0-.752.384-.838.73-.838zM77.857 9c1.707 0 2.92-1.233 2.92-2.996V3.008c0-1.775-1.213-3.008-2.92-3.008-1.732 0-2.932 1.233-2.932 3.008v2.996c0 1.763 1.2 2.996 2.932 2.996zm0-6.904c.334 0 .718.086.718.838v3.144c0 .74-.409.826-.718.826-.31 0-.73-.086-.73-.826V2.934c0-.752.384-.838.73-.838zM89.021 4.4c.656-.283 1.09-.949 1.09-1.898C90.11 1.11 88.921 0 87.24 0c-1.683 0-2.883 1.196-2.883 2.885h2.165c0-.666.371-.826.718-.826.321 0 .693.185.693.703 0 .505-.297.813-.953.813-.334 0-.743.013-.743.013v1.861h.83c.754 0 .99.185.99.69 0 .593-.446.74-.78.74-.359 0-.804-.147-.804-.863l-2.19-.012c0 1.812 1.25 2.996 2.994 2.996 1.757 0 2.982-1.159 2.982-2.823 0-1.048-.669-1.603-1.238-1.776zm9.346 0c.656-.283 1.089-.949 1.089-1.898C99.456 1.11 98.268 0 96.586 0c-1.684 0-2.884 1.196-2.884 2.885h2.166c0-.666.37-.826.717-.826.322 0 .693.185.693.703 0 .505-.297.813-.953.813-.334 0-.742.013-.742.013v1.861h.829c.755 0 .99.185.99.69 0 .593-.446.74-.78.74-.359 0-.804-.147-.804-.863l-2.19-.012c0 1.812 1.25 2.996 2.994 2.996 1.757 0 2.982-1.159 2.982-2.823 0-1.048-.668-1.603-1.237-1.776z" fill="#000" fill-rule="evenodd"/></svg>
