<?xml version="1.0" encoding="UTF-8" standalone="no"?><svg width="100" height="9" viewBox="0 0 100 9" xmlns="http://www.w3.org/2000/svg"><title>MEMBER 0084</title><path d="M3.906 7.473l2.608-5.65v7.03h.73V.172H6.55l-2.942 6.39L.692.172H0v8.68h.73V1.833l2.595 5.64h.58zM12.45 4.79h2.942v-.652H12.45V.887h4.104V.171h-4.833v8.68h4.833V8.15H12.45V4.79zm12.18 2.684l2.607-5.65v7.03h.73V.172h-.693l-2.941 6.39-2.917-6.39h-.693v8.68h.73V1.833l2.595 5.64h.581zm7.815 1.38h2.633c1.73 0 2.818-.653 2.818-2.315v-.099c0-1.083-.531-1.687-1.47-1.97.89-.27 1.396-.874 1.396-1.982v-.123c0-1.625-1.1-2.192-2.83-2.192h-2.547v8.68zM37.18 6.34v.135c0 1.268-.84 1.674-2.113 1.674h-1.892V4.765h2.077c1.137 0 1.928.492 1.928 1.576zM33.175.886h1.805c1.273 0 2.114.333 2.114 1.54v.147c0 1.096-.668 1.588-1.793 1.588h-2.126V.886zm9.56 3.903h2.94v-.652h-2.94V.887h4.103V.171h-4.833v8.68h4.833V8.15h-4.104V4.79zM53.43 6.094l2.114 2.758h.877l-2.25-2.88c1.348-.198 2.275-1.096 2.275-2.635v-.32c0-1.823-1.174-2.845-2.917-2.845h-2.522v8.68h.73V6.094h1.693zM51.737.886h1.73c1.31 0 2.25.64 2.25 2.106v.345c0 1.39-.952 2.056-2.25 2.056h-1.73V.886zm16.57 8.102c1.707 0 2.918-1.232 2.918-2.992V3.004C71.225 1.231 70.014 0 68.308 0c-1.73 0-2.93 1.231-2.93 3.004v2.992c0 1.76 1.2 2.992 2.93 2.992zm0-6.895c.335 0 .718.086.718.837v3.14c0 .738-.408.825-.717.825-.31 0-.73-.087-.73-.825V2.93c0-.75.384-.837.73-.837zm9.473 6.895c1.706 0 2.917-1.232 2.917-2.992V3.004C80.697 1.231 79.486 0 77.78 0c-1.73 0-2.93 1.231-2.93 3.004v2.992c0 1.76 1.2 2.992 2.93 2.992zm0-6.895c.334 0 .717.086.717.837v3.14c0 .738-.408.825-.717.825s-.73-.087-.73-.825V2.93c0-.75.384-.837.73-.837zM87.19 9c1.73 0 2.967-.997 2.98-2.512 0-.898-.433-1.526-1.113-1.871.606-.382.964-.997.964-1.97 0-1.502-1.174-2.487-2.83-2.487-1.682 0-2.843.985-2.843 2.475 0 .948.358 1.563.951 1.982-.667.345-1.1.973-1.1 1.871C84.2 8.003 85.423 9 87.19 9zm0-3.607c.347 0 .73.073.73.788v.073c0 .69-.42.776-.73.776-.333 0-.741-.086-.741-.776v-.073c0-.715.383-.788.741-.788zm0-3.263c.322 0 .693.086.693.776v.049c0 .69-.396.776-.693.776-.309 0-.704-.087-.704-.776v-.05c0-.689.37-.775.704-.775zM98.838.16h-2.114l-3.312 5.036v1.982h3.312v1.674h2.114V7.178h.766V5.196h-.766V.16zM95.34 5.196l1.384-2.13v2.13H95.34z" fill="#000" fill-rule="evenodd"/></svg>
