<?xml version="1.0" encoding="UTF-8" standalone="no"?><svg width="100" height="9" viewBox="0 0 100 9" xmlns="http://www.w3.org/2000/svg"><title>MEMBER 0020</title><path d="M3.908 7.484l2.61-5.66v7.04h.73V.173h-.693L3.611 6.57.693.173H0v8.691h.73V1.837l2.597 5.647h.581zm8.55-2.688h2.944v-.654H12.46V.888h4.106V.173h-4.836v8.691h4.836v-.702h-4.106V4.796zm12.187 2.688l2.61-5.66v7.04h.73V.173h-.693L24.35 6.57 21.429.173h-.692v8.691h.73V1.837l2.597 5.647h.581zm7.821 1.38h2.635c1.731 0 2.82-.653 2.82-2.317v-.1c0-1.084-.532-1.688-1.472-1.972.89-.27 1.397-.875 1.397-1.985v-.123c0-1.627-1.1-2.194-2.832-2.194h-2.548v8.691zm4.737-2.515v.136c0 1.27-.84 1.677-2.115 1.677h-1.892v-3.39h2.078c1.138 0 1.93.492 1.93 1.577zM33.196.888h1.806c1.274 0 2.115.333 2.115 1.54v.149c0 1.097-.668 1.59-1.794 1.59h-2.127V.887zm9.565 3.908h2.943v-.654h-2.943V.888h4.106V.173H42.03v8.691h4.836v-.702H42.76V4.796zm10.702 1.307l2.115 2.761h.878l-2.25-2.885c1.347-.197 2.275-1.097 2.275-2.638v-.32c0-1.825-1.175-2.848-2.919-2.848h-2.523v8.691h.73V6.103h1.694zM51.77.888H53.5c1.311 0 2.251.64 2.251 2.108v.345c0 1.393-.952 2.059-2.25 2.059h-1.732V.888zM68.35 9c1.707 0 2.919-1.233 2.919-2.996V3.008C71.269 1.233 70.057 0 68.35 0 66.62 0 65.42 1.233 65.42 3.008v2.996c0 1.763 1.2 2.996 2.931 2.996zm0-6.904c.334 0 .717.086.717.838v3.144c0 .74-.408.826-.717.826-.31 0-.73-.086-.73-.826V2.934c0-.752.384-.838.73-.838zM77.828 9c1.707 0 2.919-1.233 2.919-2.996V3.008C80.747 1.233 79.535 0 77.828 0c-1.731 0-2.931 1.233-2.931 3.008v2.996c0 1.763 1.2 2.996 2.931 2.996zm0-6.904c.334 0 .718.086.718.838v3.144c0 .74-.409.826-.718.826s-.73-.086-.73-.826V2.934c0-.752.384-.838.73-.838zm12.088 4.672h-3.45c0-1.072 3.536-1.331 3.536-4.043C90.002 1.11 88.815 0 87.121 0c-1.67 0-2.87 1.147-2.87 2.885h2.165c0-.666.321-.826.717-.826.371 0 .693.173.693.69 0 1.615-3.575 1.455-3.575 4.414v1.701h5.665V6.768zM96.549 9c1.707 0 2.92-1.233 2.92-2.996V3.008c0-1.775-1.213-3.008-2.92-3.008-1.731 0-2.93 1.233-2.93 3.008v2.996c0 1.763 1.199 2.996 2.93 2.996zm0-6.904c.334 0 .718.086.718.838v3.144c0 .74-.408.826-.718.826-.309 0-.73-.086-.73-.826V2.934c0-.752.384-.838.73-.838z" fill="#000" fill-rule="evenodd"/></svg>
