<?xml version="1.0" encoding="UTF-8" standalone="no"?><svg width="100" height="9" viewBox="0 0 100 9" xmlns="http://www.w3.org/2000/svg"><title>MEMBER 0060</title><path d="M3.91 7.473l2.61-5.65v7.03h.73V.172h-.693l-2.945 6.39L.692.172H0v8.68h.73V1.833l2.598 5.64h.581zm8.552-2.684h2.944v-.652h-2.944V.887h4.107V.171h-4.837v8.68h4.837V8.15h-4.107V4.79zm12.19 2.684l2.61-5.65v7.03h.73V.172h-.693l-2.944 6.39-2.92-6.39h-.693v8.68h.73V1.833l2.598 5.64h.582zm7.822 1.38h2.635c1.732 0 2.82-.653 2.82-2.315v-.099c0-1.083-.531-1.687-1.471-1.97.89-.27 1.398-.874 1.398-1.982v-.123c0-1.625-1.101-2.192-2.833-2.192h-2.549v8.68zm4.738-2.512v.135c0 1.268-.84 1.674-2.115 1.674h-1.893V4.765h2.078c1.139 0 1.93.492 1.93 1.576zM33.204.886h1.806c1.275 0 2.116.333 2.116 1.54v.147c0 1.096-.668 1.588-1.794 1.588h-2.128V.886zm9.567 3.903h2.944v-.652h-2.944V.887h4.107V.171h-4.837v8.68h4.837V8.15h-4.107V4.79zm10.705 1.305l2.116 2.758h.878l-2.251-2.88c1.348-.198 2.276-1.096 2.276-2.635v-.32c0-1.823-1.175-2.845-2.92-2.845h-2.523v8.68h.73V6.094h1.694zM51.781.886h1.732c1.312 0 2.252.64 2.252 2.106v.345c0 1.39-.953 2.056-2.252 2.056h-1.732V.886zm16.586 8.102c1.707 0 2.92-1.232 2.92-2.992V3.004c0-1.773-1.213-3.004-2.92-3.004-1.732 0-2.932 1.231-2.932 3.004v2.992c0 1.76 1.2 2.992 2.932 2.992zm0-6.895c.334 0 .718.086.718.837v3.14c0 .738-.409.825-.718.825-.31 0-.73-.087-.73-.825V2.93c0-.75.384-.837.73-.837zm9.48 6.895c1.708 0 2.92-1.232 2.92-2.992V3.004c0-1.773-1.212-3.004-2.92-3.004-1.732 0-2.932 1.231-2.932 3.004v2.992c0 1.76 1.2 2.992 2.932 2.992zm0-6.895c.334 0 .718.086.718.837v3.14c0 .738-.408.825-.718.825-.309 0-.73-.087-.73-.825V2.93c0-.75.384-.837.73-.837zm7.093.862c-.346.714-.668 1.637-.668 2.585v.468c0 1.76 1.2 2.992 2.932 2.992 1.707 0 2.92-1.231 2.92-2.992v-.505c0-1.772-1.002-2.745-2.796-2.745L88.639.16h-2.35L84.94 2.955zm2.264 1.637c.334 0 .718.087.718.838v.652c0 .739-.409.825-.718.825-.322 0-.73-.086-.73-.825V5.43c0-.751.384-.838.73-.838zm9.344 4.396c1.708 0 2.92-1.232 2.92-2.992V3.004c0-1.773-1.212-3.004-2.92-3.004-1.732 0-2.932 1.231-2.932 3.004v2.992c0 1.76 1.2 2.992 2.932 2.992zm0-6.895c.334 0 .718.086.718.837v3.14c0 .738-.408.825-.718.825-.309 0-.73-.087-.73-.825V2.93c0-.75.384-.837.73-.837z" fill="#000" fill-rule="evenodd"/></svg>
