<?xml version="1.0" encoding="UTF-8" standalone="no"?><svg width="100" height="9" viewBox="0 0 100 9" xmlns="http://www.w3.org/2000/svg"><title>MEMBER 0034</title><path d="M3.906 7.484l2.608-5.66v7.04h.73V.173H6.55L3.609 6.57.692.173H0v8.691h.73V1.837l2.595 5.647h.58zm8.545-2.688h2.942v-.654H12.45V.888h4.104V.173h-4.833v8.691h4.833v-.702H12.45V4.796zm12.18 2.688l2.607-5.66v7.04h.73V.173h-.693L24.334 6.57 21.417.173h-.693v8.691h.73V1.837l2.595 5.647h.581zm7.815 1.38h2.633c1.73 0 2.818-.653 2.818-2.317v-.1c0-1.084-.531-1.688-1.47-1.972.89-.27 1.396-.875 1.396-1.985v-.123c0-1.627-1.1-2.194-2.83-2.194h-2.547v8.691zM37.18 6.35v.136c0 1.27-.84 1.677-2.113 1.677h-1.892v-3.39h2.077c1.137 0 1.928.492 1.928 1.577zM33.175.888h1.805c1.273 0 2.114.333 2.114 1.54v.149c0 1.097-.668 1.59-1.793 1.59h-2.126V.887zm9.56 3.908h2.94v-.654h-2.94V.888h4.103V.173h-4.833v8.691h4.833v-.702h-4.104V4.796zM53.43 6.103l2.114 2.761h.877l-2.25-2.885c1.348-.197 2.275-1.097 2.275-2.638v-.32c0-1.825-1.174-2.848-2.917-2.848h-2.522v8.691h.73V6.103h1.693zM51.737.888h1.73c1.31 0 2.25.64 2.25 2.108v.345c0 1.393-.952 2.059-2.25 2.059h-1.73V.888zM68.307 9c1.707 0 2.918-1.233 2.918-2.996V3.008C71.225 1.233 70.014 0 68.308 0c-1.73 0-2.93 1.233-2.93 3.008v2.996c0 1.763 1.2 2.996 2.93 2.996zm0-6.904c.335 0 .718.086.718.838v3.144c0 .74-.408.826-.717.826-.31 0-.73-.086-.73-.826V2.934c0-.752.384-.838.73-.838zM77.78 9c1.706 0 2.917-1.233 2.917-2.996V3.008C80.697 1.233 79.486 0 77.78 0c-1.73 0-2.93 1.233-2.93 3.008v2.996C74.85 7.767 76.05 9 77.78 9zm0-6.904c.334 0 .717.086.717.838v3.144c0 .74-.408.826-.717.826s-.73-.086-.73-.826V2.934c0-.752.384-.838.73-.838zM88.933 4.4c.655-.283 1.088-.949 1.088-1.898C90.021 1.11 88.834 0 87.153 0c-1.68 0-2.88 1.196-2.88 2.885h2.163c0-.666.371-.826.717-.826.322 0 .693.185.693.703 0 .505-.297.813-.952.813-.334 0-.742.013-.742.013v1.861h.828c.754 0 .99.185.99.69 0 .593-.446.74-.78.74-.358 0-.803-.147-.803-.863l-2.188-.012C84.2 7.816 85.448 9 87.19 9c1.756 0 2.98-1.159 2.98-2.823 0-1.048-.668-1.603-1.237-1.776zm9.905-4.24h-2.114l-3.312 5.042v1.985h3.312v1.676h2.114V7.188h.766V5.203h-.766V.16zM95.34 5.202l1.384-2.133v2.133H95.34z" fill="#000" fill-rule="evenodd"/></svg>
