<?xml version="1.0" encoding="UTF-8" standalone="no"?><svg width="97" height="9" viewBox="0 0 97 9" xmlns="http://www.w3.org/2000/svg"><title>MEMBER 0100</title><path d="M3.88 7.484l2.592-5.66v7.04h.725V.173h-.688L3.586 6.57.688.173H0v8.691h.725V1.837l2.579 5.647h.577zm8.491-2.688h2.923v-.654h-2.923V.888h4.077V.173h-4.801v8.691h4.801v-.702h-4.077V4.796zm12.101 2.688l2.591-5.66v7.04h.725V.173H27.1L24.177 6.57 21.28.173h-.688v8.691h.725V1.837l2.579 5.647h.577zm7.766 1.38h2.616c1.719 0 2.8-.653 2.8-2.317v-.1c0-1.084-.528-1.688-1.462-1.972.885-.27 1.388-.875 1.388-1.985v-.123C37.58.74 36.487.173 34.768.173h-2.53v8.691zM36.94 6.35v.136c0 1.27-.835 1.677-2.1 1.677h-1.879v-3.39h2.064c1.13 0 1.915.492 1.915 1.577zM32.962.888h1.793c1.265 0 2.1.333 2.1 1.54v.149c0 1.097-.663 1.59-1.78 1.59h-2.113V.887zm9.498 3.908h2.923v-.654H42.46V.888h4.077V.173h-4.802v8.691h4.802v-.702H42.46V4.796zm10.627 1.307l2.1 2.761h.872L53.824 5.98c1.338-.197 2.26-1.097 2.26-2.638v-.32c0-1.825-1.167-2.848-2.899-2.848H50.68v8.691h.724V6.103h1.683zM51.404.888h1.72c1.302 0 2.235.64 2.235 2.108v.345c0 1.393-.946 2.059-2.235 2.059h-1.72V.888zM67.87 9c1.695 0 2.899-1.233 2.899-2.996V3.008C70.768 1.233 69.564 0 67.869 0c-1.72 0-2.91 1.233-2.91 3.008v2.996c0 1.763 1.19 2.996 2.91 2.996zm0-6.904c.332 0 .713.086.713.838v3.144c0 .74-.406.826-.713.826-.307 0-.724-.086-.724-.826V2.934c0-.752.38-.838.724-.838zm6.378 1.01h.983v5.758h2.186V.16h-2.014c0 .678-.246.851-1.155.851v2.096zM84.162 9c1.695 0 2.899-1.233 2.899-2.996V3.008C87.06 1.233 85.857 0 84.162 0c-1.72 0-2.91 1.233-2.91 3.008v2.996c0 1.763 1.19 2.996 2.91 2.996zm0-6.904c.332 0 .712.086.712.838v3.144c0 .74-.405.826-.712.826-.307 0-.724-.086-.724-.826V2.934c0-.752.38-.838.724-.838zM93.574 9c1.694 0 2.898-1.233 2.898-2.996V3.008C96.472 1.233 95.268 0 93.574 0c-1.72 0-2.911 1.233-2.911 3.008v2.996c0 1.763 1.191 2.996 2.91 2.996zm0-6.904c.331 0 .712.086.712.838v3.144c0 .74-.405.826-.712.826-.307 0-.725-.086-.725-.826V2.934c0-.752.38-.838.725-.838z" fill="#000" fill-rule="evenodd"/></svg>
