<?xml version="1.0" encoding="UTF-8" standalone="no"?><svg width="96" height="9" viewBox="0 0 96 9" xmlns="http://www.w3.org/2000/svg"><title>MEMBER 0071</title><path d="M3.883 7.484l2.593-5.66v7.04H7.2V.173h-.688L3.588 6.57.688.173H0v8.691h.725V1.837l2.58 5.647h.578zm8.495-2.688h2.925v-.654h-2.925V.888h4.08V.173h-4.805v8.691h4.805v-.702h-4.08V4.796zm12.108 2.688l2.593-5.66v7.04h.725V.173h-.688L24.191 6.57l-2.9-6.398h-.688v8.691h.725V1.837l2.58 5.647h.578zm7.77 1.38h2.618c1.72 0 2.802-.653 2.802-2.317v-.1c0-1.084-.529-1.688-1.462-1.972.884-.27 1.388-.875 1.388-1.985v-.123c0-1.627-1.094-2.194-2.814-2.194h-2.531v8.691zm4.707-2.515v.136c0 1.27-.836 1.677-2.101 1.677h-1.88v-3.39h2.064c1.13 0 1.917.492 1.917 1.577zM32.982.888h1.794c1.265 0 2.101.333 2.101 1.54v.149c0 1.097-.663 1.59-1.782 1.59h-2.113V.887zm9.503 3.908h2.924v-.654h-2.924V.888h4.08V.173H41.76v8.691h4.804v-.702h-4.08V4.796zm10.633 1.307l2.101 2.761h.873L53.855 5.98c1.34-.197 2.261-1.097 2.261-2.638v-.32c0-1.825-1.167-2.848-2.9-2.848H50.71v8.691h.725V6.103h1.683zM51.435.888h1.72c1.302 0 2.236.64 2.236 2.108v.345c0 1.393-.946 2.059-2.236 2.059h-1.72V.888zM67.909 9c1.696 0 2.9-1.233 2.9-2.996V3.008C70.81 1.233 69.605 0 67.91 0c-1.72 0-2.912 1.233-2.912 3.008v2.996C64.997 7.767 66.189 9 67.909 9zm0-6.904c.332 0 .713.086.713.838v3.144c0 .74-.406.826-.713.826-.307 0-.725-.086-.725-.826V2.934c0-.752.381-.838.725-.838zM77.326 9c1.696 0 2.9-1.233 2.9-2.996V3.008c0-1.775-1.204-3.008-2.9-3.008-1.72 0-2.912 1.233-2.912 3.008v2.996C74.414 7.767 75.606 9 77.326 9zm0-6.904c.332 0 .713.086.713.838v3.144c0 .74-.406.826-.713.826-.307 0-.725-.086-.725-.826V2.934c0-.752.38-.838.725-.838zm9.171 6.768L88.967.16h-5.26v2.108h2.495L84.31 8.864h2.187zm5.57-5.757h.984v5.757h2.187V.16h-2.015c0 .678-.246.851-1.155.851v2.096z" fill="#000" fill-rule="evenodd"/></svg>
