<?xml version="1.0" encoding="UTF-8" standalone="no"?><svg width="100" height="9" viewBox="0 0 100 9" xmlns="http://www.w3.org/2000/svg"><title>MEMBER 0083</title><path d="M3.91 7.473l2.61-5.65v7.03h.73V.172h-.692l-2.945 6.39L.693.172H0v8.68h.73V1.833l2.598 5.64h.582zm8.553-2.684h2.945v-.652h-2.945V.887h4.108V.171h-4.838v8.68h4.838V8.15h-4.108V4.79zm12.192 2.684l2.61-5.65v7.03h.73V.172h-.693l-2.944 6.39-2.92-6.39h-.693v8.68h.73V1.833l2.598 5.64h.582zm7.823 1.38h2.636c1.732 0 2.82-.653 2.82-2.315v-.099c0-1.083-.531-1.687-1.472-1.97.891-.27 1.398-.874 1.398-1.982v-.123c0-1.625-1.1-2.192-2.833-2.192h-2.549v8.68zm4.739-2.512v.135c0 1.268-.841 1.674-2.116 1.674h-1.893V4.765h2.079c1.138 0 1.93.492 1.93 1.576zM33.208.886h1.807c1.274 0 2.115.333 2.115 1.54v.147c0 1.096-.668 1.588-1.794 1.588h-2.128V.886zm9.568 3.903h2.945v-.652h-2.945V.887h4.108V.171h-4.838v8.68h4.838V8.15h-4.108V4.79zm10.707 1.305l2.116 2.758h.878l-2.252-2.88c1.349-.198 2.277-1.096 2.277-2.635v-.32c0-1.823-1.176-2.845-2.92-2.845h-2.524v8.68h.73V6.094h1.695zM51.788.886h1.732c1.312 0 2.252.64 2.252 2.106v.345c0 1.39-.953 2.056-2.252 2.056h-1.732V.886zm16.587 8.102c1.708 0 2.92-1.232 2.92-2.992V3.004c0-1.773-1.212-3.004-2.92-3.004-1.732 0-2.932 1.231-2.932 3.004v2.992c0 1.76 1.2 2.992 2.932 2.992zm0-6.895c.335 0 .718.086.718.837v3.14c0 .738-.408.825-.718.825-.309 0-.73-.087-.73-.825V2.93c0-.75.384-.837.73-.837zm9.482 6.895c1.707 0 2.92-1.232 2.92-2.992V3.004c0-1.773-1.213-3.004-2.92-3.004-1.732 0-2.932 1.231-2.932 3.004v2.992c0 1.76 1.2 2.992 2.932 2.992zm0-6.895c.334 0 .718.086.718.837v3.14c0 .738-.409.825-.718.825-.31 0-.73-.087-.73-.825V2.93c0-.75.384-.837.73-.837zM87.277 9c1.732 0 2.97-.997 2.982-2.512 0-.898-.433-1.526-1.114-1.871.606-.382.965-.997.965-1.97 0-1.502-1.175-2.487-2.833-2.487-1.683 0-2.846.985-2.846 2.475 0 .948.359 1.563.953 1.982-.668.345-1.101.973-1.101 1.871C84.283 8.003 85.507 9 87.277 9zm0-3.607c.346 0 .73.073.73.788v.073c0 .69-.42.776-.73.776-.334 0-.743-.086-.743-.776v-.073c0-.715.384-.788.743-.788zm0-3.263c.321 0 .693.086.693.776v.049c0 .69-.396.776-.693.776-.31 0-.705-.087-.705-.776v-.05c0-.689.37-.775.705-.775zm11.09 2.265c.656-.283 1.089-.948 1.089-1.896 0-1.39-1.188-2.499-2.87-2.499-1.684 0-2.884 1.194-2.884 2.881h2.166c0-.665.37-.825.717-.825.322 0 .693.185.693.702 0 .505-.297.812-.953.812-.334 0-.742.013-.742.013v1.859h.829c.755 0 .99.185.99.69 0 .59-.446.738-.78.738-.359 0-.804-.148-.804-.862l-2.19-.012c0 1.81 1.25 2.992 2.994 2.992 1.757 0 2.982-1.158 2.982-2.82 0-1.046-.668-1.6-1.237-1.773z" fill="#000" fill-rule="evenodd"/></svg>
