<?xml version="1.0" encoding="UTF-8" standalone="no"?><svg width="100" height="9" viewBox="0 0 100 9" xmlns="http://www.w3.org/2000/svg"><title>MEMBER 0094</title><path d="M3.91 7.484l2.612-5.66v7.04h.73V.173H6.56L3.614 6.57.693.173H0v8.691h.73V1.837l2.6 5.647h.58zm8.556-2.688h2.946v-.654h-2.946V.888h4.11V.173h-4.84v8.691h4.84v-.702h-4.11V4.796zm12.195 2.688l2.611-5.66v7.04h.73V.173h-.693L24.364 6.57 21.443.173h-.693v8.691h.73V1.837l2.599 5.647h.582zm7.825 1.38h2.636c1.733 0 2.822-.653 2.822-2.317v-.1c0-1.084-.532-1.688-1.473-1.972.891-.27 1.399-.875 1.399-1.985v-.123C37.87.74 36.768.173 35.036.173h-2.55v8.691zm4.74-2.515v.136c0 1.27-.841 1.677-2.116 1.677h-1.894v-3.39h2.08c1.138 0 1.93.492 1.93 1.577zM33.216.888h1.807c1.275 0 2.117.333 2.117 1.54v.149c0 1.097-.669 1.59-1.795 1.59h-2.129V.887zm9.571 3.908h2.945v-.654h-2.945V.888h4.109V.173h-4.84v8.691h4.84v-.702h-4.109V4.796zm10.71 1.307l2.115 2.761h.88L54.238 5.98c1.349-.197 2.277-1.097 2.277-2.638v-.32c0-1.825-1.176-2.848-2.92-2.848H51.07v8.691h.73V6.103h1.696zM51.8.888h1.732c1.312 0 2.253.64 2.253 2.108v.345c0 1.393-.953 2.059-2.253 2.059h-1.732V.888zM68.392 9c1.708 0 2.921-1.233 2.921-2.996V3.008C71.313 1.233 70.1 0 68.393 0c-1.733 0-2.934 1.233-2.934 3.008v2.996C65.46 7.767 66.66 9 68.392 9zm0-6.904c.335 0 .718.086.718.838v3.144c0 .74-.408.826-.718.826-.309 0-.73-.086-.73-.826V2.934c0-.752.384-.838.73-.838zM77.876 9c1.708 0 2.921-1.233 2.921-2.996V3.008c0-1.775-1.213-3.008-2.92-3.008-1.733 0-2.934 1.233-2.934 3.008v2.996c0 1.763 1.2 2.996 2.933 2.996zm0-6.904c.334 0 .718.086.718.838v3.144c0 .74-.408.826-.718.826s-.73-.086-.73-.826V2.934c0-.752.384-.838.73-.838zM89.501 6.04c.36-.715.656-1.615.656-2.564V3.02c0-1.763-1.2-2.996-2.92-2.996s-2.934 1.233-2.934 2.996v.493c0 1.775 1.003 2.749 2.81 2.749L85.8 8.864h2.339L89.5 6.041zm-2.265-1.615c-.346 0-.73-.086-.73-.838v-.641c0-.74.409-.826.73-.826.31 0 .718.086.718.826v.64c0 .753-.383.839-.718.839zM98.836.16H96.72l-3.316 5.043v1.985h3.316v1.676h2.117V7.188h.767V5.203h-.767V.16zm-3.502 5.043L96.72 3.07v2.133h-1.386z" fill="#000" fill-rule="evenodd"/></svg>
