<?xml version="1.0" encoding="UTF-8" standalone="no"?><svg width="97" height="9" viewBox="0 0 97 9" xmlns="http://www.w3.org/2000/svg"><title>MEMBER 0041</title><path d="M3.89 7.484l2.598-5.66v7.04h.726V.173h-.69L3.595 6.57.69.173H0v8.691h.726V1.837l2.586 5.647h.578zm8.511-2.688h2.93v-.654H12.4V.888h4.087V.173h-4.813v8.691h4.813v-.702h-4.087V4.796zm12.13 2.688l2.598-5.66v7.04h.726V.173h-.69l-2.93 6.398L21.33.173h-.69v8.691h.727V1.837l2.585 5.647h.58zm7.785 1.38h2.622c1.723 0 2.807-.653 2.807-2.317v-.1c0-1.084-.53-1.688-1.465-1.972.886-.27 1.39-.875 1.39-1.985v-.123C37.67.74 36.576.173 34.853.173h-2.536v8.691zM37.03 6.35v.136c0 1.27-.838 1.677-2.106 1.677h-1.883v-3.39h2.068c1.133 0 1.92.492 1.92 1.577zM33.04.888h1.798c1.268 0 2.105.333 2.105 1.54v.149c0 1.097-.664 1.59-1.785 1.59h-2.117V.887zm9.521 3.908h2.93v-.654h-2.93V.888h4.087V.173h-4.813v8.691h4.813v-.702h-4.087V4.796zm10.653 1.307l2.105 2.761h.874l-2.24-2.885c1.341-.197 2.265-1.097 2.265-2.638v-.32c0-1.825-1.17-2.848-2.906-2.848h-2.51v8.691h.725V6.103h1.687zM51.528.888h1.724c1.305 0 2.24.64 2.24 2.108v.345c0 1.393-.947 2.059-2.24 2.059h-1.724V.888zM68.033 9c1.699 0 2.905-1.233 2.905-2.996V3.008C70.938 1.233 69.732 0 68.033 0c-1.724 0-2.918 1.233-2.918 3.008v2.996C65.115 7.767 66.31 9 68.033 9zm0-6.904c.332 0 .714.086.714.838v3.144c0 .74-.406.826-.714.826-.308 0-.726-.086-.726-.826V2.934c0-.752.381-.838.726-.838zM77.467 9c1.699 0 2.905-1.233 2.905-2.996V3.008C80.372 1.233 79.166 0 77.467 0c-1.723 0-2.918 1.233-2.918 3.008v2.996C74.55 7.767 75.744 9 77.467 9zm0-6.904c.332 0 .714.086.714.838v3.144c0 .74-.406.826-.714.826-.308 0-.726-.086-.726-.826V2.934c0-.752.381-.838.726-.838zM89.142.16h-2.105l-3.3 5.043v1.985h3.3v1.676h2.105V7.188h.763V5.203h-.763V.16zm-3.484 5.043l1.379-2.133v2.133h-1.38zm7.403-2.096h.984v5.757h2.192V.16h-2.02c0 .678-.245.851-1.156.851v2.096z" fill="#000" fill-rule="evenodd"/></svg>
