<?xml version="1.0" encoding="UTF-8" standalone="no"?><svg width="100" height="9" viewBox="0 0 100 9" xmlns="http://www.w3.org/2000/svg"><title>MEMBER 0024</title><path d="M3.91 7.484l2.61-5.66v7.04h.73V.173h-.692L3.613 6.57.693.173H0v8.691h.73V1.837l2.598 5.647h.582zm8.553-2.688h2.945v-.654h-2.945V.888h4.108V.173h-4.838v8.691h4.838v-.702h-4.108V4.796zm12.192 2.688l2.61-5.66v7.04h.73V.173h-.693L24.358 6.57 21.438.173h-.693v8.691h.73V1.837l2.598 5.647h.582zm7.823 1.38h2.636c1.732 0 2.82-.653 2.82-2.317v-.1c0-1.084-.531-1.688-1.472-1.972.891-.27 1.398-.875 1.398-1.985v-.123c0-1.627-1.1-2.194-2.833-2.194h-2.549v8.691zm4.739-2.515v.136c0 1.27-.841 1.677-2.116 1.677h-1.893v-3.39h2.079c1.138 0 1.93.492 1.93 1.577zM33.208.888h1.807c1.274 0 2.115.333 2.115 1.54v.149c0 1.097-.668 1.59-1.794 1.59h-2.128V.887zm9.568 3.908h2.945v-.654h-2.945V.888h4.108V.173h-4.838v8.691h4.838v-.702h-4.108V4.796zm10.707 1.307l2.116 2.761h.878L54.225 5.98c1.349-.197 2.277-1.097 2.277-2.638v-.32c0-1.825-1.176-2.848-2.92-2.848h-2.524v8.691h.73V6.103h1.695zM51.788.888h1.732c1.312 0 2.252.64 2.252 2.108v.345c0 1.393-.953 2.059-2.252 2.059h-1.732V.888zM68.375 9c1.708 0 2.92-1.233 2.92-2.996V3.008c0-1.775-1.212-3.008-2.92-3.008-1.732 0-2.932 1.233-2.932 3.008v2.996c0 1.763 1.2 2.996 2.932 2.996zm0-6.904c.335 0 .718.086.718.838v3.144c0 .74-.408.826-.718.826-.309 0-.73-.086-.73-.826V2.934c0-.752.384-.838.73-.838zM77.857 9c1.707 0 2.92-1.233 2.92-2.996V3.008c0-1.775-1.213-3.008-2.92-3.008-1.732 0-2.932 1.233-2.932 3.008v2.996c0 1.763 1.2 2.996 2.932 2.996zm0-6.904c.334 0 .718.086.718.838v3.144c0 .74-.409.826-.718.826-.31 0-.73-.086-.73-.826V2.934c0-.752.384-.838.73-.838zM89.95 6.768h-3.452c0-1.072 3.539-1.331 3.539-4.043C90.036 1.11 88.848 0 87.153 0c-1.67 0-2.87 1.147-2.87 2.885h2.165c0-.666.321-.826.717-.826.372 0 .693.173.693.69 0 1.615-3.575 1.455-3.575 4.414v1.701h5.666V6.768zM98.837.16h-2.116l-3.316 5.043v1.985h3.316v1.676h2.116V7.188h.767V5.203h-.767V.16zm-3.501 5.043L96.72 3.07v2.133h-1.385z" fill="#000" fill-rule="evenodd"/></svg>
