<?xml version="1.0" encoding="UTF-8" standalone="no"?><svg width="95" height="9" viewBox="0 0 95 9" xmlns="http://www.w3.org/2000/svg"><title>MEMBER 0011</title><path d="M3.903 7.484l2.605-5.66v7.04h.73V.173h-.693L3.606 6.57.692.173H0v8.691h.729V1.837l2.593 5.647h.58zm8.538-2.688h2.939v-.654h-2.94V.888h4.1V.173h-4.828v8.691h4.829v-.702h-4.1V4.796zm12.168 2.688l2.606-5.66v7.04h.729V.173h-.692L24.313 6.57 21.398.173h-.691v8.691h.728V1.837l2.594 5.647h.58zm7.81 1.38h2.63c1.73 0 2.816-.653 2.816-2.317v-.1c0-1.084-.531-1.688-1.47-1.972.89-.27 1.396-.875 1.396-1.985v-.123c0-1.627-1.1-2.194-2.828-2.194h-2.544v8.691zm4.73-2.515v.136c0 1.27-.84 1.677-2.112 1.677h-1.89v-3.39h2.075c1.136 0 1.927.492 1.927 1.577zM33.147.888h1.803c1.272 0 2.112.333 2.112 1.54v.149c0 1.097-.667 1.59-1.79 1.59h-2.125V.887zm9.55 3.908h2.94v-.654h-2.94V.888h4.101V.173H41.97v8.691h4.83v-.702h-4.101V4.796zm10.688 1.307l2.112 2.761h.876L54.126 5.98c1.346-.197 2.272-1.097 2.272-2.638v-.32c0-1.825-1.173-2.848-2.914-2.848h-2.52v8.691h.729V6.103h1.692zM51.693.888h1.729c1.309 0 2.247.64 2.247 2.108v.345c0 1.393-.95 2.059-2.247 2.059h-1.73V.888zM68.25 9c1.704 0 2.915-1.233 2.915-2.996V3.008C71.165 1.233 69.955 0 68.25 0c-1.729 0-2.927 1.233-2.927 3.008v2.996C65.323 7.767 66.521 9 68.25 9zm0-6.904c.333 0 .716.086.716.838v3.144c0 .74-.407.826-.716.826s-.729-.086-.729-.826V2.934c0-.752.383-.838.729-.838zM77.714 9c1.704 0 2.915-1.233 2.915-2.996V3.008c0-1.775-1.21-3.008-2.915-3.008-1.729 0-2.927 1.233-2.927 3.008v2.996C74.787 7.767 75.985 9 77.714 9zm0-6.904c.334 0 .716.086.716.838v3.144c0 .74-.407.826-.716.826s-.728-.086-.728-.826V2.934c0-.752.382-.838.728-.838zm6.414 1.01h.988v5.758h2.198V.16H85.29c0 .678-.247.851-1.161.851v2.096zm6.92 0h.988v5.758h2.198V.16H92.21c0 .678-.247.851-1.161.851v2.096z" fill="#000" fill-rule="evenodd"/></svg>
