<?xml version="1.0" encoding="UTF-8" standalone="no"?><svg width="100" height="9" viewBox="0 0 100 9" xmlns="http://www.w3.org/2000/svg"><title>MEMBER 0009</title><path d="M3.91 7.484l2.61-5.66v7.04h.73V.173h-.693L3.612 6.57.692.173H0v8.691h.73V1.837l2.598 5.647h.581zm8.552-2.688h2.944v-.654h-2.944V.888h4.107V.173h-4.837v8.691h4.837v-.702h-4.107V4.796zm12.19 2.688l2.61-5.66v7.04h.73V.173h-.693L24.355 6.57 21.435.173h-.693v8.691h.73V1.837l2.598 5.647h.582zm7.822 1.38h2.635c1.732 0 2.82-.653 2.82-2.317v-.1c0-1.084-.531-1.688-1.471-1.972.89-.27 1.398-.875 1.398-1.985v-.123c0-1.627-1.101-2.194-2.833-2.194h-2.549v8.691zm4.738-2.515v.136c0 1.27-.84 1.677-2.115 1.677h-1.893v-3.39h2.078c1.139 0 1.93.492 1.93 1.577zM33.204.888h1.806c1.275 0 2.116.333 2.116 1.54v.149c0 1.097-.668 1.59-1.794 1.59h-2.128V.887zm9.567 3.908h2.944v-.654h-2.944V.888h4.107V.173h-4.837v8.691h4.837v-.702h-4.107V4.796zm10.705 1.307l2.116 2.761h.878L54.22 5.98c1.348-.197 2.276-1.097 2.276-2.638v-.32c0-1.825-1.175-2.848-2.92-2.848h-2.523v8.691h.73V6.103h1.694zM51.781.888h1.732c1.312 0 2.252.64 2.252 2.108v.345c0 1.393-.953 2.059-2.252 2.059h-1.732V.888zM68.367 9c1.707 0 2.92-1.233 2.92-2.996V3.008c0-1.775-1.213-3.008-2.92-3.008-1.732 0-2.932 1.233-2.932 3.008v2.996c0 1.763 1.2 2.996 2.932 2.996zm0-6.904c.334 0 .718.086.718.838v3.144c0 .74-.409.826-.718.826-.31 0-.73-.086-.73-.826V2.934c0-.752.384-.838.73-.838zM77.847 9c1.708 0 2.92-1.233 2.92-2.996V3.008c0-1.775-1.212-3.008-2.92-3.008-1.732 0-2.932 1.233-2.932 3.008v2.996c0 1.763 1.2 2.996 2.932 2.996zm0-6.904c.334 0 .718.086.718.838v3.144c0 .74-.408.826-.718.826-.309 0-.73-.086-.73-.826V2.934c0-.752.384-.838.73-.838zM87.327 9c1.708 0 2.92-1.233 2.92-2.996V3.008c0-1.775-1.212-3.008-2.92-3.008-1.731 0-2.931 1.233-2.931 3.008v2.996c0 1.763 1.2 2.996 2.932 2.996zm0-6.904c.335 0 .718.086.718.838v3.144c0 .74-.408.826-.717.826-.31 0-.73-.086-.73-.826V2.934c0-.752.383-.838.73-.838zM98.949 6.04c.36-.715.656-1.615.656-2.564V3.02c0-1.763-1.2-2.996-2.92-2.996s-2.931 1.233-2.931 2.996v.493c0 1.775 1.002 2.749 2.808 2.749l-1.312 2.601h2.339l1.36-2.823zm-2.263-1.615c-.347 0-.73-.086-.73-.838v-.641c0-.74.408-.826.73-.826.309 0 .717.086.717.826v.64c0 .753-.383.839-.717.839z" fill="#000" fill-rule="evenodd"/></svg>
