<?xml version="1.0" encoding="UTF-8" standalone="no"?><svg width="100" height="9" viewBox="0 0 100 9" xmlns="http://www.w3.org/2000/svg"><title>MEMBER 0032</title><path d="M3.914 7.484l2.613-5.66v7.04h.73V.173h-.693L3.616 6.57.694.173H0v8.691h.73V1.837l2.602 5.647h.582zm8.562-2.688h2.947v-.654h-2.947V.888h4.112V.173h-4.843v8.691h4.843v-.702h-4.112V4.796zm12.203 2.688l2.613-5.66v7.04h.731V.173h-.694L24.382 6.57 21.459.173h-.694v8.691h.731V1.837l2.6 5.647h.583zm7.831 1.38h2.638c1.734 0 2.824-.653 2.824-2.317v-.1c0-1.084-.532-1.688-1.474-1.972.892-.27 1.4-.875 1.4-1.985v-.123c0-1.627-1.102-2.194-2.836-2.194H32.51v8.691zm4.744-2.515v.136c0 1.27-.842 1.677-2.118 1.677h-1.895v-3.39h2.08c1.14 0 1.933.492 1.933 1.577zM33.24.888h1.808c1.276 0 2.118.333 2.118 1.54v.149c0 1.097-.669 1.59-1.796 1.59h-2.13V.887zm9.578 3.908h2.947v-.654H42.82V.888h4.112V.173h-4.843v8.691h4.843v-.702h-4.112V4.796zm10.717 1.307l2.118 2.761h.879L54.279 5.98c1.35-.197 2.279-1.097 2.279-2.638v-.32c0-1.825-1.177-2.848-2.923-2.848h-2.527v8.691h.731V6.103h1.697zM51.839.888h1.734c1.313 0 2.254.64 2.254 2.108v.345c0 1.393-.954 2.059-2.254 2.059h-1.734V.888zM68.443 9c1.71 0 2.923-1.233 2.923-2.996V3.008C71.366 1.233 70.152 0 68.443 0c-1.734 0-2.935 1.233-2.935 3.008v2.996C65.508 7.767 66.709 9 68.443 9zm0-6.904c.335 0 .719.086.719.838v3.144c0 .74-.41.826-.719.826-.31 0-.73-.086-.73-.826V2.934c0-.752.383-.838.73-.838zM77.934 9c1.71 0 2.923-1.233 2.923-2.996V3.008C80.857 1.233 79.643 0 77.934 0 76.2 0 75 1.233 75 3.008v2.996C74.999 7.767 76.2 9 77.934 9zm0-6.904c.335 0 .719.086.719.838v3.144c0 .74-.41.826-.719.826-.31 0-.73-.086-.73-.826V2.934c0-.752.383-.838.73-.838zM89.11 4.4c.656-.283 1.09-.949 1.09-1.898C90.2 1.11 89.01 0 87.325 0c-1.684 0-2.886 1.196-2.886 2.885h2.168c0-.666.371-.826.718-.826.322 0 .694.185.694.703 0 .505-.298.813-.954.813-.334 0-.743.013-.743.013v1.861h.83c.755 0 .99.185.99.69 0 .593-.445.74-.78.74-.359 0-.805-.147-.805-.863l-2.192-.012C84.366 7.816 85.617 9 87.363 9c1.759 0 2.985-1.159 2.985-2.823 0-1.048-.669-1.603-1.238-1.776zm10.283 2.367h-3.455c0-1.072 3.542-1.331 3.542-4.043C99.48 1.11 98.29 0 96.594 0c-1.672 0-2.873 1.147-2.873 2.885h2.167c0-.666.322-.826.719-.826.371 0 .693.173.693.69 0 1.615-3.58 1.455-3.58 4.414v1.701h5.673V6.768z" fill="#000" fill-rule="evenodd"/></svg>
