<?xml version="1.0" encoding="UTF-8" standalone="no"?><svg width="99" height="9" viewBox="0 0 99 9" xmlns="http://www.w3.org/2000/svg"><title>MEMBER 0025</title><path d="M3.872 7.484l2.586-5.66v7.04h.723V.173h-.687L3.578 6.57.686.173H0v8.691h.723V1.837l2.573 5.647h.576zm8.471-2.688h2.917v-.654h-2.917V.888h4.069V.173H11.62v8.691h4.792v-.702h-4.069V4.796zm12.074 2.688l2.586-5.66v7.04h.723V.173h-.687L24.123 6.57 21.231.173h-.686v8.691h.723V1.837l2.573 5.647h.576zm7.748 1.38h2.61c1.716 0 2.794-.653 2.794-2.317v-.1c0-1.084-.527-1.688-1.458-1.972.882-.27 1.385-.875 1.385-1.985v-.123c0-1.627-1.09-2.194-2.806-2.194h-2.525v8.691zm4.693-2.515v.136c0 1.27-.833 1.677-2.095 1.677h-1.875v-3.39h2.059c1.127 0 1.911.492 1.911 1.577zM32.888.888h1.79c1.261 0 2.095.333 2.095 1.54v.149c0 1.097-.662 1.59-1.777 1.59h-2.108V.887zm9.476 3.908h2.917v-.654h-2.917V.888h4.069V.173H41.64v8.691h4.792v-.702h-4.069V4.796zm10.604 1.307l2.095 2.761h.87l-2.23-2.885c1.336-.197 2.255-1.097 2.255-2.638v-.32c0-1.825-1.164-2.848-2.892-2.848h-2.5v8.691h.723V6.103h1.679zM51.289.888h1.715c1.3 0 2.23.64 2.23 2.108v.345c0 1.393-.943 2.059-2.23 2.059H51.29V.888zM67.717 9c1.69 0 2.892-1.233 2.892-2.996V3.008C70.609 1.233 69.408 0 67.717 0 66 0 64.813 1.233 64.813 3.008v2.996C64.813 7.767 66 9 67.717 9zm0-6.904c.33 0 .71.086.71.838v3.144c0 .74-.404.826-.71.826-.306 0-.723-.086-.723-.826V2.934c0-.752.38-.838.723-.838zM77.107 9C78.798 9 80 7.767 80 6.004V3.008c0-1.775-1.2-3.008-2.892-3.008-1.715 0-2.904 1.233-2.904 3.008v2.996C74.203 7.767 75.392 9 77.107 9zm0-6.904c.33 0 .71.086.71.838v3.144c0 .74-.404.826-.71.826-.306 0-.723-.086-.723-.826V2.934c0-.752.38-.838.723-.838zm11.976 4.672h-3.419c0-1.072 3.505-1.331 3.505-4.043C89.169 1.11 87.992 0 86.314 0c-1.655 0-2.843 1.147-2.843 2.885h2.144c0-.666.319-.826.71-.826.368 0 .687.173.687.69 0 1.615-3.541 1.455-3.541 4.414v1.701h5.612V6.768zm5.788-.764h-2.182C92.69 7.767 93.878 9 95.594 9c1.703 0 2.891-1.171 2.891-2.934v-.382c0-1.776-.919-2.516-2.365-2.516-.6 0-.93.222-.93.222l.244-1.134h2.66V.16H93.67l-.858 4.76 2.083.455s.098-.493.686-.493c.392 0 .723.148.723.802v.382c0 .702-.404.838-.71.838-.32 0-.723-.136-.723-.9z" fill="#000" fill-rule="evenodd"/></svg>
