<?xml version="1.0" encoding="UTF-8" standalone="no"?><svg width="100" height="9" viewBox="0 0 100 9" xmlns="http://www.w3.org/2000/svg"><title>MEMBER 0039</title><path d="M3.915 7.484l2.613-5.66v7.04h.731V.173h-.693L3.617 6.57.694.173H0v8.691h.73V1.837l2.602 5.647h.583zm8.564-2.688h2.948v-.654H12.48V.888h4.113V.173h-4.844v8.691h4.844v-.702h-4.113V4.796zm12.206 2.688l2.614-5.66v7.04h.73V.173h-.693L24.388 6.57 21.464.173h-.693v8.691h.73V1.837l2.602 5.647h.582zm7.833 1.38h2.64c1.733 0 2.824-.653 2.824-2.317v-.1c0-1.084-.533-1.688-1.475-1.972.892-.27 1.4-.875 1.4-1.985v-.123C37.907.74 36.805.173 35.07.173h-2.552v8.691zm4.745-2.515v.136c0 1.27-.842 1.677-2.118 1.677h-1.896v-3.39h2.082c1.14 0 1.932.492 1.932 1.577zM33.25.888h1.809c1.276 0 2.118.333 2.118 1.54v.149c0 1.097-.669 1.59-1.796 1.59h-2.13V.887zm9.58 3.908h2.949v-.654h-2.949V.888h4.113V.173H42.1v8.691h4.843v-.702H42.83V4.796zm10.72 1.307l2.119 2.761h.88L54.291 5.98c1.35-.197 2.28-1.097 2.28-2.638v-.32c0-1.825-1.177-2.848-2.924-2.848h-2.527v8.691h.731V6.103h1.697zM51.852.888h1.734c1.313 0 2.255.64 2.255 2.108v.345c0 1.393-.954 2.059-2.255 2.059h-1.734V.888zM68.46 9c1.71 0 2.924-1.233 2.924-2.996V3.008C71.384 1.233 70.17 0 68.46 0c-1.734 0-2.936 1.233-2.936 3.008v2.996C65.524 7.767 66.726 9 68.46 9zm0-6.904c.335 0 .719.086.719.838v3.144c0 .74-.41.826-.719.826-.31 0-.73-.086-.73-.826V2.934c0-.752.383-.838.73-.838zM77.954 9c1.709 0 2.923-1.233 2.923-2.996V3.008C80.877 1.233 79.663 0 77.954 0c-1.735 0-2.936 1.233-2.936 3.008v2.996C75.018 7.767 76.219 9 77.954 9zm0-6.904c.334 0 .718.086.718.838v3.144c0 .74-.409.826-.718.826-.31 0-.731-.086-.731-.826V2.934c0-.752.384-.838.73-.838zM89.132 4.4c.656-.283 1.09-.949 1.09-1.898C90.222 1.11 89.032 0 87.348 0c-1.685 0-2.887 1.196-2.887 2.885h2.168c0-.666.372-.826.719-.826.322 0 .693.185.693.703 0 .505-.297.813-.953.813-.335 0-.744.013-.744.013v1.861h.83c.756 0 .991.185.991.69 0 .593-.446.74-.78.74-.36 0-.805-.147-.805-.863l-2.193-.012C84.387 7.816 85.638 9 87.385 9c1.759 0 2.985-1.159 2.985-2.823 0-1.048-.669-1.603-1.238-1.776zm9.815 1.64c.36-.715.657-1.615.657-2.564V3.02c0-1.763-1.202-2.996-2.924-2.996s-2.936 1.233-2.936 2.996v.493c0 1.775 1.003 2.749 2.812 2.749l-1.313 2.601h2.341l1.363-2.823zM96.68 4.426c-.347 0-.73-.086-.73-.838v-.641c0-.74.408-.826.73-.826.31 0 .719.086.719.826v.64c0 .753-.385.839-.719.839z" fill="#000" fill-rule="evenodd"/></svg>
