<?xml version="1.0" encoding="UTF-8" standalone="no"?><svg width="98" height="9" viewBox="0 0 98 9" xmlns="http://www.w3.org/2000/svg"><title>MEMBER 0076</title><path d="M3.89 7.473l2.599-5.65v7.03h.726V.172h-.69l-2.93 6.39L.69.172H0v8.68h.726V1.833l2.586 5.64h.579zm8.513-2.684h2.93v-.652h-2.93V.887h4.088V.171h-4.815v8.68h4.815V8.15h-4.088V4.79zm12.132 2.684l2.598-5.65v7.03h.726V.172h-.69l-2.93 6.39-2.905-6.39h-.69v8.68h.727V1.833l2.585 5.64h.579zm7.786 1.38h2.622c1.724 0 2.807-.653 2.807-2.315v-.099c0-1.083-.529-1.687-1.465-1.97.887-.27 1.392-.874 1.392-1.982v-.123c0-1.625-1.096-2.192-2.82-2.192H32.32v8.68zm4.715-2.512v.135c0 1.268-.837 1.674-2.105 1.674h-1.884V4.765h2.069c1.132 0 1.92.492 1.92 1.576zM33.047.886h1.798c1.268 0 2.105.333 2.105 1.54v.147c0 1.096-.665 1.588-1.785 1.588h-2.118V.886zm9.522 3.903h2.93v-.652h-2.93V.887h4.088V.171h-4.815v8.68h4.815V8.15h-4.088V4.79zm10.654 1.305l2.106 2.758h.874l-2.241-2.88c1.342-.198 2.265-1.096 2.265-2.635v-.32c0-1.823-1.17-2.845-2.905-2.845H50.81v8.68h.726V6.094h1.687zM51.536.886h1.724c1.305 0 2.241.64 2.241 2.106v.345c0 1.39-.948 2.056-2.24 2.056h-1.725V.886zm16.507 8.102c1.7 0 2.906-1.232 2.906-2.992V3.004C70.95 1.231 69.743 0 68.043 0c-1.723 0-2.918 1.231-2.918 3.004v2.992c0 1.76 1.195 2.992 2.918 2.992zm0-6.895c.333 0 .715.086.715.837v3.14c0 .738-.407.825-.715.825-.307 0-.726-.087-.726-.825V2.93c0-.75.382-.837.726-.837zm9.436 6.895c1.7 0 2.906-1.232 2.906-2.992V3.004C80.385 1.231 79.178 0 77.479 0c-1.724 0-2.918 1.231-2.918 3.004v2.992c0 1.76 1.194 2.992 2.918 2.992zm0-6.895c.332 0 .714.086.714.837v3.14c0 .738-.406.825-.714.825-.308 0-.726-.087-.726-.825V2.93c0-.75.381-.837.726-.837zm9.19 6.76L89.142.16h-5.27v2.105h2.5l-1.896 6.587h2.191zm5.778-5.898c-.345.714-.665 1.637-.665 2.585v.468C91.782 7.768 92.976 9 94.7 9c1.7 0 2.906-1.231 2.906-2.992v-.505c0-1.772-.997-2.745-2.783-2.745L96.128.16H93.79l-1.342 2.795zM94.7 4.592c.333 0 .714.087.714.838v.652c0 .739-.406.825-.714.825-.32 0-.726-.086-.726-.825V5.43c0-.751.381-.838.726-.838z" fill="#000" fill-rule="evenodd"/></svg>
