<?xml version="1.0" encoding="UTF-8" standalone="no"?><svg width="98" height="9" viewBox="0 0 98 9" xmlns="http://www.w3.org/2000/svg"><title>MEMBER 0097</title><path d="M3.878 7.484l2.589-5.66v7.04h.724V.173h-.687L3.584 6.57.686.173H0v8.691h.724V1.837l2.577 5.647h.577zm8.483-2.688h2.92v-.654h-2.92V.888h4.074V.173h-4.798v8.691h4.798v-.702H12.36V4.796zm12.09 2.688l2.59-5.66v7.04h.724V.173h-.687l-2.92 6.398L21.26.173h-.687v8.691h.724V1.837l2.577 5.647h.577zm7.76 1.38h2.614c1.718 0 2.798-.653 2.798-2.317v-.1c0-1.084-.528-1.688-1.46-1.972.883-.27 1.386-.875 1.386-1.985v-.123C37.55.74 36.457.173 34.74.173h-2.528v8.691zm4.7-2.515v.136c0 1.27-.834 1.677-2.098 1.677h-1.878v-3.39h2.062c1.129 0 1.914.492 1.914 1.577zM32.935.888h1.792c1.264 0 2.098.333 2.098 1.54v.149c0 1.097-.662 1.59-1.78 1.59h-2.11V.887zm9.49 3.908h2.92v-.654h-2.92V.888h4.074V.173H41.7v8.691h4.798v-.702h-4.074V4.796zm10.618 1.307l2.099 2.761h.87L53.78 5.98c1.337-.197 2.257-1.097 2.257-2.638v-.32c0-1.825-1.165-2.848-2.896-2.848h-2.503v8.691h.724V6.103h1.681zM51.363.888h1.717c1.3 0 2.233.64 2.233 2.108v.345c0 1.393-.944 2.059-2.233 2.059h-1.718V.888zM67.812 9c1.694 0 2.896-1.233 2.896-2.996V3.008C70.71 1.233 69.507 0 67.813 0c-1.718 0-2.908 1.233-2.908 3.008v2.996c0 1.763 1.19 2.996 2.908 2.996zm0-6.904c.332 0 .712.086.712.838v3.144c0 .74-.405.826-.712.826-.306 0-.724-.086-.724-.826V2.934c0-.752.38-.838.724-.838zM77.217 9c1.693 0 2.896-1.233 2.896-2.996V3.008C80.113 1.233 78.91 0 77.217 0 75.5 0 74.31 1.233 74.31 3.008v2.996c0 1.763 1.19 2.996 2.908 2.996zm0-6.904c.331 0 .712.086.712.838v3.144c0 .74-.405.826-.712.826-.307 0-.724-.086-.724-.826V2.934c0-.752.38-.838.724-.838zM88.744 6.04c.355-.715.65-1.615.65-2.564V3.02c0-1.763-1.19-2.996-2.896-2.996S83.59 1.258 83.59 3.02v.493c0 1.775.994 2.749 2.785 2.749l-1.3 2.601h2.319l1.35-2.823zm-2.246-1.615c-.344 0-.724-.086-.724-.838v-.641c0-.74.405-.826.724-.826.307 0 .712.086.712.826v.64c0 .753-.38.839-.712.839zm8.888 4.438L97.853.16H92.6v2.108h2.49l-1.889 6.596h2.184z" fill="#000" fill-rule="evenodd"/></svg>
