<?xml version="1.0" encoding="UTF-8" standalone="no"?><svg width="99" height="9" viewBox="0 0 99 9" xmlns="http://www.w3.org/2000/svg"><title>MEMBER 0007</title><path d="M3.902 7.484l2.605-5.66v7.04h.728V.173h-.691L3.605 6.57.691.173H0v8.691h.728V1.837l2.593 5.647h.58zm8.535-2.688h2.939v-.654h-2.939V.888h4.1V.173h-4.828v8.691h4.827v-.702h-4.099V4.796zm12.166 2.688l2.605-5.66v7.04h.728V.173h-.69l-2.94 6.398L21.394.173H20.7v8.691h.729V1.837l2.593 5.647h.58zm7.807 1.38h2.63c1.728 0 2.815-.653 2.815-2.317v-.1c0-1.084-.53-1.688-1.47-1.972.89-.27 1.396-.875 1.396-1.985v-.123C37.78.74 36.682.173 34.954.173H32.41v8.691zM37.14 6.35v.136c0 1.27-.84 1.677-2.111 1.677h-1.89v-3.39h2.075c1.136 0 1.926.492 1.926 1.577zm-4-5.461h1.802c1.272 0 2.111.333 2.111 1.54v.149c0 1.097-.666 1.59-1.79 1.59H33.14V.887zm9.548 3.908h2.938v-.654h-2.938V.888h4.099V.173h-4.828v8.691h4.828v-.702h-4.1V4.796zM53.37 6.103l2.111 2.761h.877L54.11 5.98c1.346-.197 2.272-1.097 2.272-2.638v-.32c0-1.825-1.173-2.848-2.914-2.848h-2.518v8.691h.728V6.103h1.692zM51.679.888h1.729c1.308 0 2.247.64 2.247 2.108v.345c0 1.393-.95 2.059-2.247 2.059h-1.729V.888zM68.232 9c1.704 0 2.914-1.233 2.914-2.996V3.008c0-1.775-1.21-3.008-2.914-3.008-1.729 0-2.926 1.233-2.926 3.008v2.996C65.306 7.767 66.503 9 68.232 9zm0-6.904c.333 0 .716.086.716.838v3.144c0 .74-.407.826-.716.826s-.728-.086-.728-.826V2.934c0-.752.382-.838.728-.838zM77.694 9c1.704 0 2.914-1.233 2.914-2.996V3.008c0-1.775-1.21-3.008-2.914-3.008-1.729 0-2.926 1.233-2.926 3.008v2.996C74.768 7.767 75.965 9 77.694 9zm0-6.904c.333 0 .716.086.716.838v3.144c0 .74-.408.826-.716.826-.309 0-.729-.086-.729-.826V2.934c0-.752.383-.838.729-.838zM87.155 9c1.704 0 2.914-1.233 2.914-2.996V3.008C90.07 1.233 88.86 0 87.155 0c-1.728 0-2.926 1.233-2.926 3.008v2.996C84.23 7.767 85.427 9 87.155 9zm0-6.904c.334 0 .717.086.717.838v3.144c0 .74-.408.826-.717.826-.308 0-.728-.086-.728-.826V2.934c0-.752.383-.838.728-.838zm9.215 6.768L98.852.16h-5.285v2.108h2.507l-1.902 6.596h2.198z" fill="#000" fill-rule="evenodd"/></svg>
