<?xml version="1.0" encoding="UTF-8" standalone="no"?><svg width="99" height="9" viewBox="0 0 99 9" xmlns="http://www.w3.org/2000/svg"><title>MEMBER 0075</title><path d="M3.915 7.484l2.614-5.66v7.04h.73V.173h-.693L3.617 6.57.694.173H0v8.691h.73V1.837l2.602 5.647h.583zm8.564-2.688h2.949v-.654h-2.949V.888h4.113V.173h-4.844v8.691h4.844v-.702H12.48V4.796zm12.207 2.688l2.614-5.66v7.04h.73V.173h-.693L24.39 6.57 21.465.173h-.694v8.691h.731V1.837l2.602 5.647h.582zm7.834 1.38h2.638c1.735 0 2.825-.653 2.825-2.317v-.1c0-1.084-.533-1.688-1.474-1.972.892-.27 1.4-.875 1.4-1.985v-.123c0-1.627-1.103-2.194-2.837-2.194H32.52v8.691zm4.744-2.515v.136c0 1.27-.842 1.677-2.118 1.677h-1.895v-3.39h2.08c1.14 0 1.933.492 1.933 1.577zM33.251.888h1.808c1.276 0 2.119.333 2.119 1.54v.149c0 1.097-.67 1.59-1.797 1.59h-2.13V.887zm9.58 3.908h2.948v-.654h-2.948V.888h4.113V.173H42.1v8.691h4.844v-.702H42.83V4.796zm10.72 1.307l2.118 2.761h.88L54.294 5.98c1.35-.197 2.28-1.097 2.28-2.638v-.32c0-1.825-1.177-2.848-2.924-2.848h-2.527v8.691h.73V6.103h1.698zM51.854.888h1.734c1.313 0 2.255.64 2.255 2.108v.345c0 1.393-.954 2.059-2.255 2.059h-1.734V.888zM68.463 9c1.71 0 2.923-1.233 2.923-2.996V3.008C71.386 1.233 70.172 0 68.463 0c-1.735 0-2.937 1.233-2.937 3.008v2.996C65.526 7.767 66.728 9 68.463 9zm0-6.904c.334 0 .718.086.718.838v3.144c0 .74-.409.826-.718.826-.31 0-.731-.086-.731-.826V2.934c0-.752.384-.838.73-.838zM77.956 9c1.71 0 2.924-1.233 2.924-2.996V3.008C80.88 1.233 79.666 0 77.956 0c-1.734 0-2.936 1.233-2.936 3.008v2.996C75.02 7.767 76.222 9 77.956 9zm0-6.904c.335 0 .719.086.719.838v3.144c0 .74-.41.826-.719.826-.31 0-.73-.086-.73-.826V2.934c0-.752.383-.838.73-.838zm9.246 6.768L89.692.16H84.39v2.108h2.515l-1.908 6.596h2.205zm7.623-2.86H92.62C92.62 7.767 93.822 9 95.556 9c1.722 0 2.924-1.171 2.924-2.934v-.382c0-1.776-.93-2.516-2.391-2.516-.607 0-.942.222-.942.222l.248-1.134h2.688V.16h-4.472l-.867 4.76 2.106.455s.099-.493.694-.493c.396 0 .73.148.73.802v.382c0 .702-.408.838-.718.838-.322 0-.73-.136-.73-.9z" fill="#000" fill-rule="evenodd"/></svg>
