<?xml version="1.0" encoding="UTF-8" standalone="no"?><svg width="99" height="9" viewBox="0 0 99 9" xmlns="http://www.w3.org/2000/svg"><title>MEMBER 0026</title><path d="M3.887 7.473l2.596-5.65v7.03h.726V.172H6.52l-2.928 6.39L.69.172H0v8.68h.726V1.833l2.583 5.64h.578zm8.505-2.684h2.928v-.652h-2.928V.887h4.085V.171h-4.81v8.68h4.81V8.15h-4.085V4.79zm12.122 2.684l2.596-5.65v7.03h.726V.172h-.69l-2.927 6.39-2.903-6.39h-.69v8.68h.727V1.833l2.583 5.64h.578zm7.78 1.38h2.62c1.722 0 2.805-.653 2.805-2.315v-.099c0-1.083-.53-1.687-1.464-1.97.885-.27 1.39-.874 1.39-1.982v-.123c0-1.625-1.095-2.192-2.817-2.192h-2.535v8.68zm4.711-2.512v.135c0 1.268-.836 1.674-2.104 1.674H33.02V4.765h2.067c1.132 0 1.92.492 1.92 1.576zM33.02.886h1.796c1.267 0 2.104.333 2.104 1.54v.147c0 1.096-.664 1.588-1.784 1.588H33.02V.886zm9.514 3.903h2.928v-.652h-2.928V.887h4.084V.171h-4.81v8.68h4.81V8.15h-4.084V4.79zm10.645 1.305l2.104 2.758h.873l-2.239-2.88c1.341-.198 2.264-1.096 2.264-2.635v-.32c0-1.823-1.169-2.845-2.903-2.845h-2.51v8.68h.726V6.094h1.685zM51.493.886h1.722c1.304 0 2.24.64 2.24 2.106v.345c0 1.39-.948 2.056-2.24 2.056h-1.722V.886zm16.493 8.102c1.698 0 2.903-1.232 2.903-2.992V3.004C70.89 1.231 69.684 0 67.986 0c-1.722 0-2.915 1.231-2.915 3.004v2.992c0 1.76 1.193 2.992 2.915 2.992zm0-6.895c.332 0 .714.086.714.837v3.14c0 .738-.406.825-.714.825-.307 0-.726-.087-.726-.825V2.93c0-.75.382-.837.726-.837zm9.428 6.895c1.697 0 2.903-1.232 2.903-2.992V3.004C80.317 1.231 79.111 0 77.414 0c-1.723 0-2.916 1.231-2.916 3.004v2.992c0 1.76 1.193 2.992 2.916 2.992zm0-6.895c.332 0 .713.086.713.837v3.14c0 .738-.406.825-.713.825-.308 0-.726-.087-.726-.825V2.93c0-.75.381-.837.726-.837zm12.023 4.666h-3.432c0-1.07 3.518-1.33 3.518-4.038 0-1.613-1.18-2.721-2.866-2.721-1.661 0-2.854 1.145-2.854 2.881h2.153c0-.665.32-.825.713-.825.37 0 .689.172.689.69 0 1.612-3.555 1.452-3.555 4.407v1.7h5.634V6.758zm4.015-3.804c-.345.714-.665 1.637-.665 2.585v.468c0 1.76 1.194 2.992 2.916 2.992 1.698 0 2.903-1.231 2.903-2.992v-.505c0-1.772-.996-2.745-2.78-2.745L97.13.16h-2.337l-1.341 2.795zm2.251 1.637c.332 0 .714.087.714.838v.652c0 .739-.406.825-.714.825-.32 0-.726-.086-.726-.825V5.43c0-.751.382-.838.726-.838z" fill="#000" fill-rule="evenodd"/></svg>
