<?xml version="1.0" encoding="UTF-8" standalone="no"?><svg width="99" height="9" viewBox="0 0 99 9" xmlns="http://www.w3.org/2000/svg"><title>MEMBER 0029</title><path d="M3.88 7.484l2.59-5.66v7.04h.724V.173h-.688L3.585 6.57.687.173H0v8.691h.724V1.837l2.578 5.647h.577zm8.486-2.688h2.922v-.654h-2.922V.888h4.076V.173h-4.8v8.691h4.8v-.702h-4.076V4.796zm12.097 2.688l2.59-5.66v7.04h.724V.173h-.687L24.168 6.57 21.27.173h-.688v8.691h.725V1.837l2.578 5.647h.577zm7.762 1.38h2.615c1.719 0 2.8-.653 2.8-2.317v-.1c0-1.084-.529-1.688-1.462-1.972.884-.27 1.387-.875 1.387-1.985v-.123c0-1.627-1.092-2.194-2.81-2.194h-2.53v8.691zm4.702-2.515v.136c0 1.27-.835 1.677-2.1 1.677H32.95v-3.39h2.062c1.13 0 1.915.492 1.915 1.577zM32.95.888h1.792c1.264 0 2.1.333 2.1 1.54v.149c0 1.097-.664 1.59-1.78 1.59H32.95V.887zm9.493 3.908h2.922v-.654h-2.922V.888h4.076V.173h-4.8v8.691h4.8v-.702h-4.076V4.796zm10.623 1.307l2.1 2.761h.871L53.803 5.98c1.338-.197 2.259-1.097 2.259-2.638v-.32c0-1.825-1.167-2.848-2.898-2.848H50.66v8.691h.724V6.103h1.682zM51.384.888h1.72c1.3 0 2.233.64 2.233 2.108v.345c0 1.393-.945 2.059-2.234 2.059h-1.719V.888zM67.843 9c1.694 0 2.897-1.233 2.897-2.996V3.008C70.74 1.233 69.537 0 67.843 0c-1.719 0-2.91 1.233-2.91 3.008v2.996c0 1.763 1.191 2.996 2.91 2.996zm0-6.904c.331 0 .712.086.712.838v3.144c0 .74-.405.826-.712.826-.307 0-.724-.086-.724-.826V2.934c0-.752.38-.838.724-.838zM77.25 9c1.694 0 2.897-1.233 2.897-2.996V3.008C80.148 1.233 78.945 0 77.25 0c-1.72 0-2.91 1.233-2.91 3.008v2.996c0 1.763 1.19 2.996 2.91 2.996zm0-6.904c.331 0 .712.086.712.838v3.144c0 .74-.406.826-.712.826-.307 0-.725-.086-.725-.826V2.934c0-.752.38-.838.725-.838zm11.998 4.672h-3.426c0-1.072 3.511-1.331 3.511-4.043C89.334 1.11 88.156 0 86.474 0c-1.657 0-2.848 1.147-2.848 2.885h2.148c0-.666.32-.826.712-.826.369 0 .688.173.688.69 0 1.615-3.548 1.455-3.548 4.414v1.701h5.623V6.768zm8.708-.727c.356-.715.65-1.615.65-2.564V3.02c0-1.763-1.19-2.996-2.897-2.996-1.706 0-2.91 1.233-2.91 2.996v.493c0 1.775.995 2.749 2.787 2.749l-1.301 2.601h2.32l1.35-2.823zM95.71 4.426c-.344 0-.724-.086-.724-.838v-.641c0-.74.405-.826.724-.826.307 0 .712.086.712.826v.64c0 .753-.38.839-.712.839z" fill="#000" fill-rule="evenodd"/></svg>
