<?xml version="1.0" encoding="UTF-8" standalone="no"?><svg width="99" height="9" viewBox="0 0 99 9" xmlns="http://www.w3.org/2000/svg"><title>MEMBER 0096</title><path d="M3.88 7.473l2.591-5.65v7.03h.725V.172h-.688l-2.922 6.39L.688.172H0v8.68h.724V1.833l2.58 5.64h.576zm8.49-2.684h2.922v-.652h-2.923V.887h4.077V.171h-4.801v8.68h4.801V8.15H12.37V4.79zm12.099 2.684l2.59-5.65v7.03h.725V.172h-.688l-2.922 6.39-2.898-6.39h-.688v8.68h.725V1.833l2.578 5.64h.578zm7.764 1.38h2.616c1.719 0 2.8-.653 2.8-2.315v-.099c0-1.083-.529-1.687-1.462-1.97.884-.27 1.388-.874 1.388-1.982v-.123c0-1.625-1.093-2.192-2.812-2.192h-2.53v8.68zm4.703-2.512v.135c0 1.268-.835 1.674-2.1 1.674h-1.878V4.765h2.063c1.13 0 1.915.492 1.915 1.576zM32.958.886h1.792c1.265 0 2.1.333 2.1 1.54v.147c0 1.096-.663 1.588-1.78 1.588h-2.112V.886zm9.496 3.903h2.922v-.652h-2.922V.887h4.076V.171h-4.8v8.68h4.8V8.15h-4.076V4.79zm10.625 1.305l2.1 2.758h.872l-2.235-2.88c1.339-.198 2.26-1.096 2.26-2.635v-.32c0-1.823-1.167-2.845-2.898-2.845h-2.505v8.68h.724V6.094h1.682zM51.397.886h1.72c1.3 0 2.234.64 2.234 2.106v.345c0 1.39-.945 2.056-2.235 2.056h-1.719V.886zM67.86 8.988c1.694 0 2.898-1.232 2.898-2.992V3.004C70.758 1.231 69.554 0 67.86 0c-1.72 0-2.91 1.231-2.91 3.004v2.992c0 1.76 1.19 2.992 2.91 2.992zm0-6.895c.331 0 .712.086.712.837v3.14c0 .738-.405.825-.712.825-.307 0-.725-.087-.725-.825V2.93c0-.75.38-.837.725-.837zm9.41 6.895c1.694 0 2.898-1.232 2.898-2.992V3.004C80.168 1.231 78.964 0 77.27 0c-1.72 0-2.91 1.231-2.91 3.004v2.992c0 1.76 1.19 2.992 2.91 2.992zm0-6.895c.331 0 .712.086.712.837v3.14c0 .738-.405.825-.712.825-.307 0-.725-.087-.725-.825V2.93c0-.75.38-.837.725-.837zm11.534 3.94c.356-.714.65-1.613.65-2.561v-.456c0-1.76-1.19-2.991-2.897-2.991-1.707 0-2.91 1.23-2.91 2.991v.493c0 1.773.994 2.745 2.787 2.745l-1.301 2.598h2.32l1.351-2.82zM86.557 4.42c-.344 0-.725-.086-.725-.837v-.64c0-.74.406-.825.725-.825.307 0 .712.086.712.825v.64c0 .75-.38.837-.712.837zm6.905-1.465c-.344.714-.663 1.637-.663 2.585v.468c0 1.76 1.191 2.992 2.91 2.992 1.695 0 2.898-1.231 2.898-2.992v-.505c0-1.772-.995-2.745-2.775-2.745L97.134.16H94.8l-1.338 2.795zm2.247 1.637c.332 0 .712.087.712.838v.652c0 .739-.405.825-.712.825-.32 0-.724-.086-.724-.825V5.43c0-.751.38-.838.724-.838z" fill="#000" fill-rule="evenodd"/></svg>
