<?xml version="1.0" encoding="UTF-8" standalone="no"?><svg width="99" height="9" viewBox="0 0 99 9" xmlns="http://www.w3.org/2000/svg"><title>MEMBER 0047</title><path d="M3.903 7.484l2.606-5.66v7.04h.729V.173h-.692L3.606 6.57.693.173H0v8.691h.729V1.837l2.594 5.647h.58zm8.539-2.688h2.94v-.654h-2.94V.888h4.1V.173h-4.829v8.691h4.83v-.702h-4.101V4.796zm12.17 2.688l2.606-5.66v7.04h.729V.173h-.692l-2.94 6.398L21.402.173h-.692v8.691h.729V1.837l2.594 5.647h.58zm7.81 1.38h2.631c1.73 0 2.816-.653 2.816-2.317v-.1c0-1.084-.53-1.688-1.47-1.972.89-.27 1.396-.875 1.396-1.985v-.123c0-1.627-1.1-2.194-2.828-2.194h-2.545v8.691zm4.73-2.515v.136c0 1.27-.84 1.677-2.111 1.677h-1.89v-3.39h2.075c1.136 0 1.927.492 1.927 1.577zM33.152.888h1.803c1.272 0 2.112.333 2.112 1.54v.149c0 1.097-.667 1.59-1.79 1.59H33.15V.887zm9.552 3.908h2.94v-.654h-2.94V.888h4.1V.173h-4.83v8.691h4.83v-.702h-4.1V4.796zM53.39 6.103l2.112 2.761h.877L54.132 5.98c1.346-.197 2.272-1.097 2.272-2.638v-.32c0-1.825-1.173-2.848-2.915-2.848h-2.52v8.691h.73V6.103h1.692zM51.699.888h1.729c1.309 0 2.248.64 2.248 2.108v.345c0 1.393-.951 2.059-2.248 2.059h-1.73V.888zM68.258 9c1.704 0 2.914-1.233 2.914-2.996V3.008c0-1.775-1.21-3.008-2.914-3.008-1.73 0-2.928 1.233-2.928 3.008v2.996C65.33 7.767 66.528 9 68.258 9zm0-6.904c.333 0 .716.086.716.838v3.144c0 .74-.408.826-.716.826-.31 0-.73-.086-.73-.826V2.934c0-.752.384-.838.73-.838zM77.723 9c1.704 0 2.915-1.233 2.915-2.996V3.008c0-1.775-1.21-3.008-2.915-3.008-1.73 0-2.927 1.233-2.927 3.008v2.996C74.796 7.767 75.994 9 77.723 9zm0-6.904c.333 0 .716.086.716.838v3.144c0 .74-.407.826-.716.826s-.729-.086-.729-.826V2.934c0-.752.383-.838.729-.838zM89.436.16h-2.112l-3.31 5.043v1.985h3.31v1.676h2.112V7.188h.766V5.203h-.766V.16zm-3.495 5.043l1.383-2.133v2.133H85.94zm10.428 3.661L98.852.16h-5.287v2.108h2.508L94.17 8.864h2.198z" fill="#000" fill-rule="evenodd"/></svg>
