<?xml version="1.0" encoding="UTF-8" standalone="no"?><svg width="97" height="9" viewBox="0 0 97 9" xmlns="http://www.w3.org/2000/svg"><title>MEMBER 0081</title><path d="M3.886 7.473l2.595-5.65v7.03h.726V.172h-.689l-2.927 6.39L.69.172H0v8.68h.726V1.833l2.582 5.64h.578zm8.502-2.684h2.927v-.652h-2.927V.887h4.083V.171h-4.808v8.68h4.808V8.15h-4.083V4.79zm12.118 2.684l2.595-5.65v7.03h.726V.172h-.689l-2.927 6.39L21.31.172h-.689v8.68h.726V1.833l2.582 5.64h.578zm7.777 1.38h2.62c1.721 0 2.803-.653 2.803-2.315v-.099c0-1.083-.529-1.687-1.463-1.97.885-.27 1.39-.874 1.39-1.982v-.123c0-1.625-1.095-2.192-2.817-2.192h-2.533v8.68zm4.71-2.512v.135c0 1.268-.836 1.674-2.103 1.674h-1.882V4.765h2.066c1.132 0 1.919.492 1.919 1.576zM33.008.886h1.796c1.267 0 2.103.333 2.103 1.54v.147c0 1.096-.664 1.588-1.783 1.588h-2.116V.886zM42.52 4.79h2.927v-.652h-2.927V.887h4.083V.171h-4.809v8.68h4.809V8.15h-4.083V4.79zm10.642 1.305l2.103 2.758h.873L53.9 5.972c1.34-.198 2.263-1.096 2.263-2.635v-.32c0-1.823-1.169-2.845-2.903-2.845h-2.508v8.68h.725V6.094h1.685zM51.476.886h1.722c1.304 0 2.238.64 2.238 2.106v.345c0 1.39-.947 2.056-2.238 2.056h-1.722V.886zm16.488 8.102c1.697 0 2.902-1.232 2.902-2.992V3.004C70.866 1.231 69.661 0 67.964 0c-1.722 0-2.915 1.231-2.915 3.004v2.992c0 1.76 1.193 2.992 2.915 2.992zm0-6.895c.332 0 .713.086.713.837v3.14c0 .738-.406.825-.713.825-.308 0-.726-.087-.726-.825V2.93c0-.75.382-.837.726-.837zm9.424 6.895c1.698 0 2.903-1.232 2.903-2.992V3.004C80.29 1.231 79.086 0 77.388 0c-1.721 0-2.914 1.231-2.914 3.004v2.992c0 1.76 1.193 2.992 2.914 2.992zm0-6.895c.333 0 .714.086.714.837v3.14c0 .738-.406.825-.714.825-.307 0-.725-.087-.725-.825V2.93c0-.75.381-.837.725-.837zM86.751 9c1.722 0 2.952-.997 2.964-2.512 0-.898-.43-1.526-1.106-1.871.602-.382.959-.997.959-1.97 0-1.502-1.169-2.487-2.817-2.487-1.672 0-2.828.985-2.828 2.475 0 .948.357 1.563.947 1.982-.664.345-1.095.973-1.095 1.871C83.775 8.003 84.993 9 86.751 9zm0-3.607c.345 0 .726.073.726.788v.073c0 .69-.418.776-.726.776-.332 0-.737-.086-.737-.776v-.073c0-.715.38-.788.737-.788zm0-3.263c.32 0 .69.086.69.776v.049c0 .69-.394.776-.69.776-.307 0-.7-.087-.7-.776v-.05c0-.689.368-.775.7-.775zm6.314.973h.983v5.75h2.19V.16H94.22c0 .677-.246.85-1.156.85v2.093z" fill="#000" fill-rule="evenodd"/></svg>
