<?xml version="1.0" encoding="UTF-8" standalone="no"?><svg width="100" height="9" viewBox="0 0 100 9" xmlns="http://www.w3.org/2000/svg"><title>MEMBER 0054</title><path d="M3.903 7.484l2.607-5.66v7.04h.729V.173h-.692L3.607 6.57.692.173H0v8.691h.729V1.837l2.594 5.647h.58zm8.54-2.688h2.94v-.654h-2.94V.888h4.102V.173h-4.83v8.691h4.83v-.702h-4.102V4.796zm12.172 2.688l2.606-5.66v7.04h.73V.173h-.692l-2.94 6.398L21.403.173h-.691v8.691h.728V1.837l2.594 5.647h.581zm7.811 1.38h2.631c1.73 0 2.817-.653 2.817-2.317v-.1c0-1.084-.531-1.688-1.47-1.972.89-.27 1.396-.875 1.396-1.985v-.123C37.8.74 36.7.173 34.97.173h-2.544v8.691zm4.731-2.515v.136c0 1.27-.84 1.677-2.112 1.677h-1.89v-3.39h2.075c1.137 0 1.927.492 1.927 1.577zM33.155.888h1.803c1.273 0 2.113.333 2.113 1.54v.149c0 1.097-.667 1.59-1.791 1.59h-2.125V.887zm9.553 3.908h2.94v-.654h-2.94V.888h4.1V.173h-4.83v8.691h4.83v-.702h-4.1V4.796zm10.689 1.307l2.112 2.761h.877L54.138 5.98c1.347-.197 2.273-1.097 2.273-2.638v-.32c0-1.825-1.173-2.848-2.915-2.848h-2.52v8.691h.729V6.103h1.692zM51.705.888h1.73c1.308 0 2.247.64 2.247 2.108v.345c0 1.393-.95 2.059-2.248 2.059h-1.73V.888zM68.265 9c1.705 0 2.916-1.233 2.916-2.996V3.008C71.18 1.233 69.97 0 68.266 0c-1.73 0-2.928 1.233-2.928 3.008v2.996C65.338 7.767 66.536 9 68.266 9zm0-6.904c.334 0 .717.086.717.838v3.144c0 .74-.408.826-.716.826-.31 0-.73-.086-.73-.826V2.934c0-.752.384-.838.73-.838zM77.733 9c1.705 0 2.915-1.233 2.915-2.996V3.008c0-1.775-1.21-3.008-2.915-3.008-1.73 0-2.928 1.233-2.928 3.008v2.996C74.804 7.767 76.003 9 77.732 9zm0-6.904c.334 0 .716.086.716.838v3.144c0 .74-.407.826-.716.826s-.729-.086-.729-.826V2.934c0-.752.383-.838.729-.838zm8.676 3.908h-2.199C84.209 7.767 85.407 9 87.137 9c1.717 0 2.915-1.171 2.915-2.934v-.382c0-1.776-.927-2.516-2.384-2.516-.605 0-.939.222-.939.222l.247-1.134h2.68V.16h-4.459l-.864 4.76 2.1.455s.098-.493.691-.493c.396 0 .73.148.73.802v.382c0 .702-.409.838-.717.838-.322 0-.73-.136-.73-.9zM98.838.16h-2.111l-3.311 5.043v1.985h3.31v1.676h2.113V7.188h.766V5.203h-.766V.16zm-3.495 5.043l1.384-2.133v2.133h-1.384z" fill="#000" fill-rule="evenodd"/></svg>
