<?xml version="1.0" encoding="UTF-8" standalone="no"?><svg width="99" height="9" viewBox="0 0 99 9" xmlns="http://www.w3.org/2000/svg"><title>MEMBER 0073</title><path d="M3.912 7.484l2.613-5.66v7.04h.73V.173h-.693L3.615 6.57.693.173H0v8.691h.73V1.837l2.6 5.647h.582zm8.56-2.688h2.946v-.654h-2.947V.888h4.11V.173h-4.84v8.691h4.84v-.702h-4.11V4.796zM24.67 7.484l2.612-5.66v7.04h.73V.173h-.693L24.373 6.57 21.452.173h-.694v8.691h.73V1.837l2.6 5.647h.583zm7.828 1.38h2.637c1.734 0 2.823-.653 2.823-2.317v-.1c0-1.084-.532-1.688-1.473-1.972.891-.27 1.399-.875 1.399-1.985v-.123C37.885.74 36.783.173 35.05.173H32.5v8.691zm4.742-2.515v.136c0 1.27-.842 1.677-2.117 1.677H33.23v-3.39h2.08c1.139 0 1.931.492 1.931 1.577zM33.23.888h1.807c1.276 0 2.117.333 2.117 1.54v.149c0 1.097-.668 1.59-1.795 1.59h-2.13V.887zm9.574 3.908h2.947v-.654h-2.947V.888h4.11V.173h-4.84v8.691h4.84v-.702h-4.11V4.796zm10.714 1.307l2.117 2.761h.879L54.26 5.98c1.35-.197 2.278-1.097 2.278-2.638v-.32c0-1.825-1.176-2.848-2.921-2.848H51.09v8.691h.73V6.103h1.697zM51.82.888h1.734c1.312 0 2.253.64 2.253 2.108v.345c0 1.393-.953 2.059-2.253 2.059H51.82V.888zM68.42 9c1.708 0 2.922-1.233 2.922-2.996V3.008C71.342 1.233 70.128 0 68.42 0c-1.734 0-2.934 1.233-2.934 3.008v2.996c0 1.763 1.2 2.996 2.934 2.996zm0-6.904c.334 0 .718.086.718.838v3.144c0 .74-.409.826-.718.826-.31 0-.73-.086-.73-.826V2.934c0-.752.383-.838.73-.838zM77.907 9c1.709 0 2.922-1.233 2.922-2.996V3.008C80.83 1.233 79.616 0 77.907 0c-1.733 0-2.934 1.233-2.934 3.008v2.996C74.973 7.767 76.174 9 77.907 9zm0-6.904c.335 0 .719.086.719.838v3.144c0 .74-.409.826-.719.826s-.73-.086-.73-.826V2.934c0-.752.384-.838.73-.838zm9.24 6.768L89.638.16h-5.3v2.108h2.513l-1.906 6.596h2.204zm10.219-4.463c.656-.283 1.09-.949 1.09-1.898C98.455 1.11 97.265 0 95.582 0c-1.684 0-2.885 1.196-2.885 2.885h2.167c0-.666.371-.826.718-.826.322 0 .693.185.693.703 0 .505-.297.813-.953.813-.334 0-.743.013-.743.013v1.861h.83c.755 0 .99.185.99.69 0 .593-.446.74-.78.74-.359 0-.805-.147-.805-.863l-2.191-.012C92.624 7.816 93.874 9 95.62 9c1.758 0 2.984-1.159 2.984-2.823 0-1.048-.669-1.603-1.238-1.776z" fill="#000" fill-rule="evenodd"/></svg>
