<?xml version="1.0" encoding="UTF-8" standalone="no"?><svg width="97" height="9" viewBox="0 0 97 9" xmlns="http://www.w3.org/2000/svg"><title>MEMBER 0061</title><path d="M3.902 7.473l2.606-5.65v7.03h.728V.172h-.691l-2.94 6.39L.693.172H0v8.68h.729V1.833l2.593 5.64h.58zM12.44 4.79h2.939v-.652h-2.94V.887h4.1V.171H11.71v8.68h4.828V8.15h-4.1V4.79zm12.167 2.684l2.606-5.65v7.03h.728V.172h-.691l-2.94 6.39-2.914-6.39h-.691v8.68h.729V1.833l2.593 5.64h.58zm7.808 1.38h2.63c1.73 0 2.816-.653 2.816-2.315v-.099c0-1.083-.531-1.687-1.47-1.97.89-.27 1.396-.874 1.396-1.982v-.123c0-1.625-1.1-2.192-2.828-2.192h-2.544v8.68zm4.73-2.512v.135c0 1.268-.84 1.674-2.112 1.674h-1.89V4.765h2.075c1.136 0 1.927.492 1.927 1.576zM33.143.886h1.803c1.272 0 2.111.333 2.111 1.54v.147c0 1.096-.667 1.588-1.79 1.588h-2.124V.886zm9.55 3.903h2.938v-.652h-2.939V.887h4.1V.171h-4.828v8.68h4.828V8.15h-4.1V4.79zm10.685 1.305l2.111 2.758h.877l-2.248-2.88c1.346-.198 2.273-1.096 2.273-2.635v-.32c0-1.823-1.174-2.845-2.915-2.845h-2.519v8.68h.729V6.094h1.692zM51.686.886h1.729c1.309 0 2.247.64 2.247 2.106v.345c0 1.39-.95 2.056-2.247 2.056h-1.73V.886zM68.24 8.988c1.704 0 2.914-1.232 2.914-2.992V3.004c0-1.773-1.21-3.004-2.914-3.004-1.729 0-2.927 1.231-2.927 3.004v2.992c0 1.76 1.198 2.992 2.927 2.992zm0-6.895c.333 0 .716.086.716.837v3.14c0 .738-.407.825-.716.825s-.729-.087-.729-.825V2.93c0-.75.383-.837.729-.837zm9.463 6.895c1.704 0 2.914-1.232 2.914-2.992V3.004c0-1.773-1.21-3.004-2.914-3.004-1.729 0-2.927 1.231-2.927 3.004v2.992c0 1.76 1.198 2.992 2.927 2.992zm0-6.895c.333 0 .716.086.716.837v3.14c0 .738-.408.825-.716.825-.309 0-.729-.087-.729-.825V2.93c0-.75.383-.837.729-.837zm7.08.862c-.346.714-.667 1.637-.667 2.585v.468c0 1.76 1.197 2.992 2.926 2.992 1.704 0 2.914-1.231 2.914-2.992v-.505c0-1.772-1-2.745-2.79-2.745L88.476.16h-2.347l-1.346 2.795zm2.26 1.637c.333 0 .715.087.715.838v.652c0 .739-.407.825-.716.825-.32 0-.728-.086-.728-.825V5.43c0-.751.382-.838.728-.838zm6.005-1.49h.987v5.75h2.198V.16H94.21c0 .677-.247.85-1.16.85v2.093z" fill="#000" fill-rule="evenodd"/></svg>
