<?xml version="1.0" encoding="UTF-8" standalone="no"?><svg width="98" height="9" viewBox="0 0 98 9" xmlns="http://www.w3.org/2000/svg"><title>MEMBER 0072</title><path d="M3.882 7.484l2.592-5.66v7.04H7.2V.173H6.51L3.587 6.57.687.173H0v8.691h.725V1.837l2.58 5.647h.577zm8.493-2.688h2.924v-.654h-2.924V.888h4.078V.173H11.65v8.691h4.803v-.702h-4.078V4.796zM24.48 7.484l2.592-5.66v7.04h.724V.173h-.688L24.185 6.57l-2.9-6.398h-.687v8.691h.724V1.837l2.58 5.647h.578zm7.768 1.38h2.616c1.72 0 2.801-.653 2.801-2.317v-.1c0-1.084-.528-1.688-1.462-1.972.885-.27 1.389-.875 1.389-1.985v-.123c0-1.627-1.094-2.194-2.814-2.194h-2.53v8.691zm4.705-2.515v.136c0 1.27-.836 1.677-2.101 1.677h-1.88v-3.39h2.064c1.13 0 1.917.492 1.917 1.577zM32.973.888h1.793c1.265 0 2.1.333 2.1 1.54v.149c0 1.097-.663 1.59-1.78 1.59h-2.114V.887zm9.5 3.908h2.923v-.654h-2.923V.888h4.078V.173h-4.803v8.691h4.803v-.702h-4.078V4.796zm10.63 1.307l2.1 2.761h.873L53.84 5.98c1.34-.197 2.26-1.097 2.26-2.638v-.32c0-1.825-1.166-2.848-2.899-2.848h-2.506v8.691h.725V6.103h1.683zM51.42.888h1.72c1.302 0 2.236.64 2.236 2.108v.345c0 1.393-.946 2.059-2.236 2.059h-1.72V.888zM67.89 9c1.695 0 2.9-1.233 2.9-2.996V3.008C70.79 1.233 69.584 0 67.89 0c-1.72 0-2.912 1.233-2.912 3.008v2.996C64.978 7.767 66.17 9 67.89 9zm0-6.904c.332 0 .712.086.712.838v3.144c0 .74-.405.826-.712.826-.307 0-.725-.086-.725-.826V2.934c0-.752.381-.838.725-.838zM77.304 9c1.695 0 2.9-1.233 2.9-2.996V3.008c0-1.775-1.205-3.008-2.9-3.008-1.72 0-2.911 1.233-2.911 3.008v2.996C74.393 7.767 75.584 9 77.304 9zm0-6.904c.332 0 .713.086.713.838v3.144c0 .74-.406.826-.713.826-.307 0-.725-.086-.725-.826V2.934c0-.752.381-.838.725-.838zm9.169 6.768L88.942.16h-5.258v2.108h2.494l-1.892 6.596h2.187zm10.925-2.096h-3.427c0-1.072 3.513-1.331 3.513-4.043C97.484 1.11 96.304 0 94.622 0c-1.659 0-2.85 1.147-2.85 2.885h2.15c0-.666.319-.826.712-.826.369 0 .688.173.688.69 0 1.615-3.55 1.455-3.55 4.414v1.701h5.626V6.768z" fill="#000" fill-rule="evenodd"/></svg>
