<?xml version="1.0" encoding="UTF-8" standalone="no"?><svg width="99" height="9" viewBox="0 0 99 9" xmlns="http://www.w3.org/2000/svg"><title>MEMBER 0037</title><path d="M3.907 7.484l2.609-5.66v7.04h.73V.173h-.693L3.61 6.57.692.173H0v8.691h.73V1.837l2.596 5.647h.58zm8.547-2.688h2.943v-.654h-2.943V.888h4.105V.173h-4.834v8.691h4.834v-.702h-4.105V4.796zm12.183 2.688l2.608-5.66v7.04h.73V.173h-.693L24.34 6.57 21.422.173h-.692v8.691h.73V1.837l2.596 5.647h.58zm7.818 1.38h2.633c1.731 0 2.819-.653 2.819-2.317v-.1c0-1.084-.532-1.688-1.471-1.972.89-.27 1.397-.875 1.397-1.985v-.123c0-1.627-1.1-2.194-2.831-2.194h-2.547v8.691zM37.19 6.35v.136c0 1.27-.84 1.677-2.114 1.677h-1.892v-3.39h2.077c1.138 0 1.929.492 1.929 1.577zM33.184.888h1.805c1.274 0 2.114.333 2.114 1.54v.149c0 1.097-.667 1.59-1.792 1.59h-2.127V.887zm9.561 3.908h2.943v-.654h-2.943V.888h4.105V.173h-4.834v8.691h4.834v-.702h-4.105V4.796zm10.699 1.307l2.114 2.761h.878l-2.25-2.885c1.347-.197 2.275-1.097 2.275-2.638v-.32c0-1.825-1.175-2.848-2.918-2.848H51.02v8.691h.73V6.103h1.693zM51.75.888h1.731c1.31 0 2.25.64 2.25 2.108v.345c0 1.393-.952 2.059-2.25 2.059h-1.73V.888zM68.326 9c1.706 0 2.918-1.233 2.918-2.996V3.008C71.244 1.233 70.032 0 68.326 0c-1.731 0-2.93 1.233-2.93 3.008v2.996c0 1.763 1.199 2.996 2.93 2.996zm0-6.904c.334 0 .717.086.717.838v3.144c0 .74-.408.826-.717.826-.31 0-.73-.086-.73-.826V2.934c0-.752.384-.838.73-.838zM77.8 9c1.707 0 2.918-1.233 2.918-2.996V3.008C80.718 1.233 79.507 0 77.8 0c-1.73 0-2.93 1.233-2.93 3.008v2.996C74.87 7.767 76.07 9 77.8 9zm0-6.904c.334 0 .718.086.718.838v3.144c0 .74-.408.826-.718.826-.309 0-.729-.086-.729-.826V2.934c0-.752.383-.838.73-.838zM88.957 4.4c.655-.283 1.088-.949 1.088-1.898C90.045 1.11 88.858 0 87.176 0c-1.681 0-2.88 1.196-2.88 2.885h2.163c0-.666.371-.826.717-.826.322 0 .693.185.693.703 0 .505-.297.813-.952.813-.334 0-.742.013-.742.013v1.861h.828c.754 0 .99.185.99.69 0 .593-.446.74-.78.74-.358 0-.803-.147-.803-.863l-2.189-.012C84.221 7.816 85.47 9 87.213 9c1.756 0 2.98-1.159 2.98-2.823 0-1.048-.668-1.603-1.236-1.776zm7.41 4.463L98.852.16H93.56v2.108h2.51l-1.904 6.596h2.2z" fill="#000" fill-rule="evenodd"/></svg>
