<?xml version="1.0" encoding="UTF-8" standalone="no"?><svg width="99" height="9" viewBox="0 0 99 9" xmlns="http://www.w3.org/2000/svg"><title>MEMBER 0099</title><path d="M3.88 7.484l2.591-5.66v7.04h.725V.173h-.688L3.586 6.57.688.173H0v8.691h.724V1.837l2.58 5.647h.576zm8.49-2.688h2.922v-.654h-2.923V.888h4.077V.173h-4.801v8.691h4.801v-.702H12.37V4.796zm12.099 2.688l2.59-5.66v7.04h.725V.173h-.688L24.174 6.57 21.276.173h-.688v8.691h.725V1.837l2.578 5.647h.578zm7.764 1.38h2.616c1.719 0 2.8-.653 2.8-2.317v-.1c0-1.084-.529-1.688-1.462-1.972.884-.27 1.388-.875 1.388-1.985v-.123c0-1.627-1.093-2.194-2.812-2.194h-2.53v8.691zm4.703-2.515v.136c0 1.27-.835 1.677-2.1 1.677h-1.878v-3.39h2.063c1.13 0 1.915.492 1.915 1.577zM32.958.888h1.792c1.265 0 2.1.333 2.1 1.54v.149c0 1.097-.663 1.59-1.78 1.59h-2.112V.887zm9.496 3.908h2.922v-.654h-2.922V.888h4.076V.173h-4.8v8.691h4.8v-.702h-4.076V4.796zm10.625 1.307l2.1 2.761h.872L53.816 5.98c1.339-.197 2.26-1.097 2.26-2.638v-.32c0-1.825-1.167-2.848-2.898-2.848h-2.505v8.691h.724V6.103h1.682zM51.397.888h1.72c1.3 0 2.234.64 2.234 2.108v.345c0 1.393-.945 2.059-2.235 2.059h-1.719V.888zM67.86 9c1.694 0 2.898-1.233 2.898-2.996V3.008C70.758 1.233 69.554 0 67.86 0c-1.72 0-2.91 1.233-2.91 3.008v2.996C64.95 7.767 66.14 9 67.86 9zm0-6.904c.331 0 .712.086.712.838v3.144c0 .74-.405.826-.712.826-.307 0-.725-.086-.725-.826V2.934c0-.752.38-.838.725-.838zM77.27 9c1.694 0 2.898-1.233 2.898-2.996V3.008C80.168 1.233 78.964 0 77.27 0c-1.72 0-2.91 1.233-2.91 3.008v2.996C74.36 7.767 75.55 9 77.27 9zm0-6.904c.331 0 .712.086.712.838v3.144c0 .74-.405.826-.712.826-.307 0-.725-.086-.725-.826V2.934c0-.752.38-.838.725-.838zM88.804 6.04c.356-.715.65-1.615.65-2.564V3.02c0-1.763-1.19-2.996-2.897-2.996-1.707 0-2.91 1.233-2.91 2.996v.493c0 1.775.994 2.749 2.787 2.749l-1.301 2.601h2.32l1.351-2.823zm-2.247-1.615c-.344 0-.725-.086-.725-.838v-.641c0-.74.406-.826.725-.826.307 0 .712.086.712.826v.64c0 .753-.38.839-.712.839zm11.4 1.615c.355-.715.65-1.615.65-2.564V3.02c0-1.763-1.191-2.996-2.898-2.996S92.8 1.258 92.8 3.02v.493c0 1.775.995 2.749 2.787 2.749l-1.301 2.601h2.32l1.351-2.823zm-2.248-1.615c-.344 0-.724-.086-.724-.838v-.641c0-.74.405-.826.724-.826.307 0 .712.086.712.826v.64c0 .753-.38.839-.712.839z" fill="#000" fill-rule="evenodd"/></svg>
