<?xml version="1.0" encoding="UTF-8" standalone="no"?><svg width="98" height="9" viewBox="0 0 98 9" xmlns="http://www.w3.org/2000/svg"><title>MEMBER 0067</title><path d="M3.893 7.473l2.6-5.65v7.03h.727V.172h-.69l-2.932 6.39L.69.172H0v8.68h.727V1.833l2.587 5.64h.58zm8.518-2.684h2.932v-.652H12.41V.887h4.09V.171h-4.817v8.68H16.5V8.15h-4.09V4.79zm12.14 2.684l2.599-5.65v7.03h.727V.172h-.69l-2.932 6.39-2.908-6.39h-.69v8.68h.727V1.833l2.587 5.64h.58zm7.79 1.38h2.624c1.725 0 2.81-.653 2.81-2.315v-.099c0-1.083-.53-1.687-1.467-1.97.887-.27 1.392-.874 1.392-1.982v-.123C37.7.739 36.604.172 34.88.172H32.34v8.68zM37.06 6.34v.135c0 1.268-.838 1.674-2.107 1.674h-1.885V4.765h2.07c1.133 0 1.922.492 1.922 1.576zM33.068.886h1.799c1.269 0 2.106.333 2.106 1.54v.147c0 1.096-.665 1.588-1.786 1.588h-2.12V.886zm9.527 3.903h2.933v-.652h-2.933V.887h4.09V.171H41.87v8.68h4.817V8.15h-4.09V4.79zm10.662 1.305l2.106 2.758h.875l-2.242-2.88c1.343-.198 2.267-1.096 2.267-2.635v-.32c0-1.823-1.17-2.845-2.908-2.845h-2.513v8.68h.727V6.094h1.688zM51.569.886h1.725c1.306 0 2.242.64 2.242 2.106v.345c0 1.39-.949 2.056-2.242 2.056h-1.725V.886zm16.517 8.102c1.7 0 2.908-1.232 2.908-2.992V3.004C70.994 1.231 69.786 0 68.086 0c-1.725 0-2.92 1.231-2.92 3.004v2.992c0 1.76 1.195 2.992 2.92 2.992zm0-6.895c.333 0 .715.086.715.837v3.14c0 .738-.407.825-.715.825s-.727-.087-.727-.825V2.93c0-.75.382-.837.727-.837zm9.442 6.895c1.7 0 2.907-1.232 2.907-2.992V3.004C80.435 1.231 79.228 0 77.528 0c-1.725 0-2.92 1.231-2.92 3.004v2.992c0 1.76 1.195 2.992 2.92 2.992zm0-6.895c.332 0 .714.086.714.837v3.14c0 .738-.406.825-.714.825-.308 0-.727-.087-.727-.825V2.93c0-.75.382-.837.727-.837zm7.063.862c-.345.714-.665 1.637-.665 2.585v.468c0 1.76 1.195 2.992 2.92 2.992 1.7 0 2.908-1.231 2.908-2.992v-.505c0-1.772-.998-2.745-2.785-2.745L88.275.16h-2.34L84.59 2.955zm2.255 1.637c.333 0 .715.087.715.838v.652c0 .739-.407.825-.715.825-.32 0-.727-.086-.727-.825V5.43c0-.751.382-.838.727-.838zm8.53 4.26L97.852.16H92.58v2.105h2.501l-1.897 6.587h2.193z" fill="#000" fill-rule="evenodd"/></svg>
