<?xml version="1.0" encoding="UTF-8" standalone="no"?><svg width="100" height="9" viewBox="0 0 100 9" xmlns="http://www.w3.org/2000/svg"><title>MEMBER 0052</title><path d="M3.911 7.484l2.612-5.66v7.04h.73V.173H6.56L3.614 6.57.694.173H0v8.691h.73V1.837l2.6 5.647h.581zm8.557-2.688h2.946v-.654h-2.946V.888h4.11V.173h-4.84v8.691h4.84v-.702h-4.11V4.796zm12.196 2.688l2.611-5.66v7.04h.73V.173h-.693L24.367 6.57 21.446.173h-.693v8.691h.73V1.837l2.599 5.647h.582zm7.826 1.38h2.637c1.732 0 2.822-.653 2.822-2.317v-.1c0-1.084-.533-1.688-1.473-1.972.89-.27 1.398-.875 1.398-1.985v-.123C37.874.74 36.773.173 35.04.173h-2.55v8.691zm4.74-2.515v.136c0 1.27-.84 1.677-2.116 1.677h-1.893v-3.39H35.3c1.139 0 1.93.492 1.93 1.577zM33.22.888h1.808c1.275 0 2.116.333 2.116 1.54v.149c0 1.097-.668 1.59-1.795 1.59h-2.128V.887zm9.572 3.908h2.946v-.654h-2.946V.888h4.11V.173h-4.84v8.691h4.84v-.702h-4.11V4.796zm10.71 1.307l2.117 2.761h.88L54.244 5.98c1.35-.197 2.278-1.097 2.278-2.638v-.32c0-1.825-1.176-2.848-2.921-2.848h-2.525v8.691h.73V6.103h1.696zM51.808.888h1.733c1.312 0 2.253.64 2.253 2.108v.345c0 1.393-.953 2.059-2.253 2.059h-1.733V.888zM68.401 9c1.708 0 2.92-1.233 2.92-2.996V3.008C71.322 1.233 70.11 0 68.402 0c-1.733 0-2.934 1.233-2.934 3.008v2.996C65.467 7.767 66.668 9 68.401 9zm0-6.904c.334 0 .718.086.718.838v3.144c0 .74-.409.826-.718.826-.31 0-.73-.086-.73-.826V2.934c0-.752.383-.838.73-.838zM77.886 9c1.708 0 2.921-1.233 2.921-2.996V3.008C80.807 1.233 79.594 0 77.886 0c-1.733 0-2.933 1.233-2.933 3.008v2.996c0 1.763 1.2 2.996 2.933 2.996zm0-6.904c.334 0 .718.086.718.838v3.144c0 .74-.409.826-.718.826-.31 0-.73-.086-.73-.826V2.934c0-.752.383-.838.73-.838zm8.693 3.908h-2.203c0 1.763 1.2 2.996 2.933 2.996 1.72 0 2.921-1.171 2.921-2.934v-.382c0-1.776-.928-2.516-2.389-2.516-.606 0-.94.222-.94.222l.247-1.134h2.686V.16h-4.468L84.5 4.92l2.104.455s.099-.493.693-.493c.396 0 .73.148.73.802v.382c0 .702-.408.838-.718.838-.322 0-.73-.136-.73-.9zm12.815.764H95.94c0-1.072 3.54-1.331 3.54-4.043C99.48 1.11 98.292 0 96.596 0c-1.67 0-2.871 1.147-2.871 2.885h2.166c0-.666.322-.826.718-.826.37 0 .693.173.693.69 0 1.615-3.577 1.455-3.577 4.414v1.701h5.669V6.768z" fill="#000" fill-rule="evenodd"/></svg>
