<?xml version="1.0" encoding="UTF-8" standalone="no"?><svg width="98" height="9" viewBox="0 0 98 9" xmlns="http://www.w3.org/2000/svg"><title>MEMBER 0074</title><path d="M3.887 7.484l2.596-5.66v7.04h.726V.173h-.69L3.593 6.57.69.173H0v8.691h.726V1.837l2.583 5.647h.578zm8.505-2.688h2.928v-.654h-2.928V.888h4.084V.173h-4.81v8.691h4.81v-.702h-4.084V4.796zm12.121 2.688l2.596-5.66v7.04h.726V.173h-.69L24.219 6.57 21.315.173h-.689v8.691h.726V1.837l2.583 5.647h.578zm7.78 1.38h2.62c1.722 0 2.804-.653 2.804-2.317v-.1c0-1.084-.529-1.688-1.464-1.972.886-.27 1.39-.875 1.39-1.985v-.123C37.643.74 36.55.173 34.826.173h-2.534v8.691zm4.71-2.515v.136c0 1.27-.836 1.677-2.103 1.677h-1.882v-3.39h2.067c1.131 0 1.919.492 1.919 1.577zM33.019.888h1.796c1.267 0 2.104.333 2.104 1.54v.149c0 1.097-.665 1.59-1.784 1.59h-2.116V.887zm9.513 3.908h2.928v-.654h-2.928V.888h4.085V.173h-4.81v8.691h4.81v-.702H42.53V4.796zm10.645 1.307l2.104 2.761h.873L53.915 5.98c1.34-.197 2.263-1.097 2.263-2.638v-.32c0-1.825-1.169-2.848-2.903-2.848h-2.51v8.691h.726V6.103h1.685zM51.491.888h1.722c1.304 0 2.24.64 2.24 2.108v.345c0 1.393-.948 2.059-2.24 2.059h-1.722V.888zM67.984 9c1.697 0 2.903-1.233 2.903-2.996V3.008C70.887 1.233 69.68 0 67.984 0c-1.723 0-2.916 1.233-2.916 3.008v2.996C65.068 7.767 66.261 9 67.984 9zm0-6.904c.332 0 .713.086.713.838v3.144c0 .74-.406.826-.713.826-.308 0-.726-.086-.726-.826V2.934c0-.752.381-.838.726-.838zM77.41 9c1.698 0 2.903-1.233 2.903-2.996V3.008C80.314 1.233 79.11 0 77.411 0c-1.722 0-2.916 1.233-2.916 3.008v2.996C74.495 7.767 75.69 9 77.411 9zm0-6.904c.332 0 .713.086.713.838v3.144c0 .74-.406.826-.713.826-.308 0-.726-.086-.726-.826V2.934c0-.752.381-.838.726-.838zm9.181 6.768L89.065.16H83.8v2.108h2.497l-1.895 6.596h2.19zM96.844.16H94.74l-3.297 5.043v1.985h3.297v1.676h2.104V7.188h.762V5.203h-.762V.16zm-3.482 5.043L94.74 3.07v2.133h-1.378z" fill="#000" fill-rule="evenodd"/></svg>
