<?xml version="1.0" encoding="UTF-8" standalone="no"?><svg width="100" height="9" viewBox="0 0 100 9" xmlns="http://www.w3.org/2000/svg"><title>MEMBER 0035</title><path d="M3.907 7.484l2.61-5.66v7.04h.729V.173h-.693L3.611 6.57.692.173H0v8.691h.73V1.837l2.596 5.647h.581zm8.549-2.688h2.943v-.654h-2.943V.888h4.105V.173h-4.835v8.691h4.835v-.702h-4.105V4.796zm12.183 2.688l2.61-5.66v7.04h.729V.173h-.693L24.343 6.57 21.424.173h-.692v8.691h.73V1.837l2.596 5.647h.581zm7.82 1.38h2.633c1.731 0 2.82-.653 2.82-2.317v-.1c0-1.084-.533-1.688-1.472-1.972.89-.27 1.397-.875 1.397-1.985v-.123c0-1.627-1.1-2.194-2.832-2.194h-2.547v8.691zm4.735-2.515v.136c0 1.27-.84 1.677-2.114 1.677h-1.892v-3.39h2.077c1.138 0 1.929.492 1.929 1.577zM33.188.888h1.805c1.274 0 2.114.333 2.114 1.54v.149c0 1.097-.667 1.59-1.793 1.59h-2.126V.887zm9.562 3.908h2.943v-.654H42.75V.888h4.105V.173H42.02v8.691h4.835v-.702H42.75V4.796zm10.7 1.307l2.114 2.761h.878l-2.25-2.885c1.348-.197 2.275-1.097 2.275-2.638v-.32c0-1.825-1.175-2.848-2.918-2.848h-2.523v8.691h.73V6.103h1.694zM51.756.888h1.73c1.312 0 2.251.64 2.251 2.108v.345c0 1.393-.952 2.059-2.25 2.059h-1.731V.888zM68.333 9c1.707 0 2.918-1.233 2.918-2.996V3.008C71.251 1.233 70.04 0 68.333 0c-1.73 0-2.93 1.233-2.93 3.008v2.996c0 1.763 1.2 2.996 2.93 2.996zm0-6.904c.334 0 .717.086.717.838v3.144c0 .74-.408.826-.717.826s-.73-.086-.73-.826V2.934c0-.752.384-.838.73-.838zM77.81 9c1.706 0 2.918-1.233 2.918-2.996V3.008C80.727 1.233 79.515 0 77.81 0c-1.731 0-2.93 1.233-2.93 3.008v2.996c0 1.763 1.199 2.996 2.93 2.996zm0-6.904c.334 0 .717.086.717.838v3.144c0 .74-.408.826-.717.826-.31 0-.73-.086-.73-.826V2.934c0-.752.384-.838.73-.838zM88.966 4.4c.656-.283 1.088-.949 1.088-1.898C90.054 1.11 88.867 0 87.186 0c-1.682 0-2.881 1.196-2.881 2.885h2.164c0-.666.37-.826.717-.826.321 0 .692.185.692.703 0 .505-.297.813-.952.813-.334 0-.742.013-.742.013v1.861h.829c.754 0 .989.185.989.69 0 .593-.445.74-.78.74-.358 0-.803-.147-.803-.863l-2.189-.012C84.23 7.816 85.48 9 87.223 9c1.756 0 2.98-1.159 2.98-2.823 0-1.048-.668-1.603-1.237-1.776zm6.867 1.603h-2.201c0 1.763 1.2 2.996 2.93 2.996 1.72 0 2.919-1.171 2.919-2.934v-.382c0-1.776-.928-2.516-2.387-2.516-.606 0-.94.222-.94.222l.248-1.134h2.683V.16h-4.464l-.865 4.76 2.102.455s.099-.493.692-.493c.396 0 .73.148.73.802v.382c0 .702-.408.838-.717.838-.322 0-.73-.136-.73-.9z" fill="#000" fill-rule="evenodd"/></svg>
