<?xml version="1.0" encoding="UTF-8" standalone="no"?><svg width="100" height="9" viewBox="0 0 100 9" xmlns="http://www.w3.org/2000/svg"><title>MEMBER 0005</title><path d="M3.902 7.484l2.606-5.66v7.04h.728V.173h-.691L3.605 6.57.693.173H0v8.691h.729V1.837l2.593 5.647h.58zm8.537-2.688h2.939v-.654h-2.94V.888h4.1V.173H11.71v8.691h4.828v-.702h-4.1V4.796zm12.167 2.688l2.605-5.66v7.04h.729V.173h-.692L24.31 6.57 21.395.173h-.691v8.691h.728V1.837l2.594 5.647h.58zm7.808 1.38h2.63c1.729 0 2.816-.653 2.816-2.317v-.1c0-1.084-.531-1.688-1.47-1.972.89-.27 1.396-.875 1.396-1.985v-.123c0-1.627-1.1-2.194-2.828-2.194h-2.544v8.691zm4.73-2.515v.136c0 1.27-.84 1.677-2.112 1.677h-1.89v-3.39h2.075c1.136 0 1.926.492 1.926 1.577zM33.142.888h1.802c1.272 0 2.112.333 2.112 1.54v.149c0 1.097-.667 1.59-1.79 1.59h-2.124V.887zm9.549 3.908h2.939v-.654h-2.94V.888h4.1V.173h-4.828v8.691h4.829v-.702h-4.1V4.796zm10.685 1.307l2.112 2.761h.877L54.118 5.98c1.346-.197 2.272-1.097 2.272-2.638v-.32c0-1.825-1.173-2.848-2.914-2.848h-2.519v8.691h.729V6.103h1.691zM51.686.888h1.728c1.31 0 2.248.64 2.248 2.108v.345c0 1.393-.951 2.059-2.248 2.059h-1.728V.888zM68.24 9c1.704 0 2.915-1.233 2.915-2.996V3.008C71.155 1.233 69.945 0 68.24 0c-1.728 0-2.926 1.233-2.926 3.008v2.996C65.314 7.767 66.512 9 68.24 9zm0-6.904c.334 0 .717.086.717.838v3.144c0 .74-.408.826-.717.826-.308 0-.728-.086-.728-.826V2.934c0-.752.383-.838.728-.838zM77.703 9c1.704 0 2.914-1.233 2.914-2.996V3.008c0-1.775-1.21-3.008-2.914-3.008-1.729 0-2.926 1.233-2.926 3.008v2.996C74.777 7.767 75.974 9 77.703 9zm0-6.904c.334 0 .716.086.716.838v3.144c0 .74-.407.826-.716.826-.308 0-.728-.086-.728-.826V2.934c0-.752.382-.838.728-.838zM87.166 9c1.704 0 2.914-1.233 2.914-2.996V3.008C90.08 1.233 88.87 0 87.166 0c-1.729 0-2.926 1.233-2.926 3.008v2.996C84.24 7.767 85.437 9 87.166 9zm0-6.904c.333 0 .716.086.716.838v3.144c0 .74-.407.826-.716.826s-.728-.086-.728-.826V2.934c0-.752.382-.838.728-.838zm8.673 3.908H93.64C93.64 7.767 94.838 9 96.567 9c1.717 0 2.914-1.171 2.914-2.934v-.382c0-1.776-.926-2.516-2.383-2.516-.605 0-.938.222-.938.222l.247-1.134h2.68V.16h-4.458l-.865 4.76 2.1.455s.098-.493.69-.493c.396 0 .73.148.73.802v.382c0 .702-.408.838-.717.838-.32 0-.728-.136-.728-.9z" fill="#000" fill-rule="evenodd"/></svg>
