<?xml version="1.0" encoding="UTF-8" standalone="no"?><svg width="100" height="9" viewBox="0 0 100 9" xmlns="http://www.w3.org/2000/svg"><title>MEMBER 0004</title><path d="M3.9 7.484l2.605-5.66v7.04h.728V.173h-.69L3.603 6.57.691.173H0v8.691h.728V1.837L3.32 7.484h.58zm8.534-2.688h2.938v-.654h-2.938V.888h4.098V.173h-4.826v8.691h4.826v-.702h-4.098V4.796zm12.163 2.688l2.604-5.66v7.04h.729V.173h-.692L24.301 6.57 21.387.173h-.69v8.691h.727V1.837l2.593 5.647h.58zm7.805 1.38h2.63c1.727 0 2.814-.653 2.814-2.317v-.1c0-1.084-.531-1.688-1.47-1.972.89-.27 1.396-.875 1.396-1.985v-.123c0-1.627-1.099-2.194-2.827-2.194h-2.543v8.691zM37.13 6.35v.136c0 1.27-.84 1.677-2.111 1.677H33.13v-3.39h2.074c1.136 0 1.926.492 1.926 1.577zm-4-5.461h1.803c1.27 0 2.11.333 2.11 1.54v.149c0 1.097-.666 1.59-1.79 1.59H33.13V.887zm9.546 3.908h2.938v-.654h-2.938V.888h4.098V.173h-4.826v8.691h4.826v-.702h-4.098V4.796zm10.681 1.307l2.111 2.761h.877L54.098 5.98c1.346-.197 2.271-1.097 2.271-2.638v-.32c0-1.825-1.172-2.848-2.913-2.848h-2.518v8.691h.728V6.103h1.691zM51.667.888h1.728c1.308 0 2.246.64 2.246 2.108v.345c0 1.393-.95 2.059-2.246 2.059h-1.729V.888zM68.214 9c1.704 0 2.913-1.233 2.913-2.996V3.008c0-1.775-1.21-3.008-2.913-3.008-1.728 0-2.925 1.233-2.925 3.008v2.996C65.29 7.767 66.487 9 68.215 9zm0-6.904c.333 0 .716.086.716.838v3.144c0 .74-.407.826-.716.826-.308 0-.728-.086-.728-.826V2.934c0-.752.382-.838.728-.838zM77.675 9c1.703 0 2.913-1.233 2.913-2.996V3.008c0-1.775-1.21-3.008-2.914-3.008-1.728 0-2.925 1.233-2.925 3.008v2.996C74.749 7.767 75.946 9 77.674 9zm0-6.904c.333 0 .715.086.715.838v3.144c0 .74-.407.826-.716.826-.308 0-.728-.086-.728-.826V2.934c0-.752.383-.838.728-.838zM87.133 9c1.703 0 2.913-1.233 2.913-2.996V3.008c0-1.775-1.21-3.008-2.913-3.008-1.728 0-2.926 1.233-2.926 3.008v2.996C84.208 7.767 85.406 9 87.134 9zm0-6.904c.333 0 .716.086.716.838v3.144c0 .74-.408.826-.716.826-.309 0-.728-.086-.728-.826V2.934c0-.752.382-.838.728-.838zM98.84.16h-2.111L93.42 5.203v1.985h3.308v1.676h2.11V7.188h.766V5.203h-.765V.16zm-3.494 5.043L96.73 3.07v2.133h-1.383z" fill="#000" fill-rule="evenodd"/></svg>
