<?xml version="1.0" encoding="UTF-8" standalone="no"?><svg width="99" height="9" viewBox="0 0 99 9" xmlns="http://www.w3.org/2000/svg"><title>MEMBER 0064</title><path d="M3.872 7.473l2.585-5.65v7.03h.723V.172h-.686l-2.916 6.39L.686.172H0v8.68h.723V1.833l2.573 5.64h.576zm8.47-2.684h2.916v-.652h-2.916V.887h4.067V.171h-4.79v8.68h4.79V8.15h-4.067V4.79zm12.072 2.684L27 1.823v7.03h.723V.172h-.686l-2.916 6.39-2.891-6.39h-.687v8.68h.723V1.833l2.573 5.64h.576zm7.747 1.38h2.61c1.715 0 2.794-.653 2.794-2.315v-.099c0-1.083-.527-1.687-1.458-1.97.882-.27 1.384-.874 1.384-1.982v-.123c0-1.625-1.09-2.192-2.806-2.192h-2.524v8.68zm4.693-2.512v.135c0 1.268-.833 1.674-2.095 1.674h-1.875V4.765h2.059c1.127 0 1.91.492 1.91 1.576zM32.884.886h1.79c1.261 0 2.094.333 2.094 1.54v.147c0 1.096-.661 1.588-1.776 1.588h-2.108V.886zM42.36 4.79h2.916v-.652H42.36V.887h4.068V.171h-4.79v8.68h4.79V8.15h-4.068V4.79zm10.602 1.305l2.095 2.758h.87l-2.23-2.88c1.336-.198 2.255-1.096 2.255-2.635v-.32c0-1.823-1.164-2.845-2.892-2.845h-2.5v8.68h.724V6.094h1.678zM51.283.886h1.715c1.299 0 2.23.64 2.23 2.106v.345c0 1.39-.944 2.056-2.23 2.056h-1.715V.886zm16.425 8.102c1.691 0 2.892-1.232 2.892-2.992V3.004C70.6 1.231 69.4 0 67.708 0c-1.715 0-2.903 1.231-2.903 3.004v2.992c0 1.76 1.188 2.992 2.903 2.992zm0-6.895c.331 0 .711.086.711.837v3.14c0 .738-.404.825-.71.825-.307 0-.723-.087-.723-.825V2.93c0-.75.38-.837.722-.837zm9.39 6.895c1.69 0 2.891-1.232 2.891-2.992V3.004c0-1.773-1.2-3.004-2.891-3.004-1.716 0-2.904 1.231-2.904 3.004v2.992c0 1.76 1.188 2.992 2.904 2.992zm0-6.895c.33 0 .71.086.71.837v3.14c0 .738-.404.825-.71.825-.307 0-.723-.087-.723-.825V2.93c0-.75.38-.837.723-.837zm7.024.862c-.343.714-.662 1.637-.662 2.585v.468C83.46 7.768 84.65 9 86.364 9c1.69 0 2.892-1.231 2.892-2.992v-.505c0-1.772-.993-2.745-2.77-2.745l1.3-2.598h-2.329l-1.335 2.795zm2.242 1.637c.33 0 .71.087.71.838v.652c0 .739-.404.825-.71.825-.318 0-.723-.086-.723-.825V5.43c0-.751.38-.838.723-.838zM97.848.16h-2.095L92.47 5.196v1.982h3.283v1.674h2.095V7.178h.76V5.196h-.76V.16zm-3.467 5.036l1.372-2.13v2.13h-1.372z" fill="#000" fill-rule="evenodd"/></svg>
