<?xml version="1.0" encoding="UTF-8" standalone="no"?><svg width="100" height="9" viewBox="0 0 100 9" xmlns="http://www.w3.org/2000/svg"><title>MEMBER 0058</title><path d="M3.907 7.473l2.61-5.65v7.03h.729V.172h-.693l-2.942 6.39L.692.172H0v8.68h.73V1.833l2.596 5.64h.581zm8.549-2.684h2.943v-.652h-2.943V.887h4.105V.171h-4.835v8.68h4.835V8.15h-4.105V4.79zm12.183 2.684l2.61-5.65v7.03h.729V.172h-.693l-2.942 6.39-2.919-6.39h-.692v8.68h.73V1.833l2.596 5.64h.581zm7.82 1.38h2.633c1.731 0 2.82-.653 2.82-2.315v-.099c0-1.083-.533-1.687-1.472-1.97.89-.27 1.397-.874 1.397-1.982v-.123c0-1.625-1.1-2.192-2.832-2.192h-2.547v8.68zm4.735-2.512v.135c0 1.268-.84 1.674-2.114 1.674h-1.892V4.765h2.077c1.138 0 1.929.492 1.929 1.576zM33.188.886h1.805c1.274 0 2.114.333 2.114 1.54v.147c0 1.096-.667 1.588-1.793 1.588h-2.126V.886zM42.75 4.79h2.943v-.652H42.75V.887h4.105V.171H42.02v8.68h4.835V8.15H42.75V4.79zm10.7 1.305l2.114 2.758h.878l-2.25-2.88c1.348-.198 2.275-1.096 2.275-2.635v-.32c0-1.823-1.175-2.845-2.918-2.845h-2.523v8.68h.73V6.094h1.694zM51.756.886h1.73c1.312 0 2.251.64 2.251 2.106v.345c0 1.39-.952 2.056-2.25 2.056h-1.731V.886zm16.577 8.102c1.707 0 2.918-1.232 2.918-2.992V3.004C71.251 1.231 70.04 0 68.333 0c-1.73 0-2.93 1.231-2.93 3.004v2.992c0 1.76 1.2 2.992 2.93 2.992zm0-6.895c.334 0 .717.086.717.837v3.14c0 .738-.408.825-.717.825s-.73-.087-.73-.825V2.93c0-.75.384-.837.73-.837zm9.476 6.895c1.706 0 2.918-1.232 2.918-2.992V3.004C80.727 1.231 79.515 0 77.81 0c-1.731 0-2.93 1.231-2.93 3.004v2.992c0 1.76 1.199 2.992 2.93 2.992zm0-6.895c.334 0 .717.086.717.837v3.14c0 .738-.408.825-.717.825-.31 0-.73-.087-.73-.825V2.93c0-.75.384-.837.73-.837zm8.684 3.903h-2.2c0 1.76 1.199 2.992 2.93 2.992 1.719 0 2.918-1.17 2.918-2.93v-.382c0-1.773-.927-2.512-2.386-2.512-.606 0-.94.222-.94.222l.247-1.133h2.683V.16h-4.463l-.866 4.752 2.102.456s.099-.492.692-.492c.396 0 .73.147.73.8v.381c0 .702-.408.838-.717.838-.322 0-.73-.136-.73-.9zM96.624 9c1.731 0 2.968-.997 2.98-2.512 0-.898-.432-1.526-1.113-1.871.606-.382.965-.997.965-1.97 0-1.502-1.175-2.487-2.832-2.487-1.681 0-2.844.985-2.844 2.475 0 .948.359 1.563.953 1.982-.668.345-1.101.973-1.101 1.871C93.632 8.003 94.856 9 96.624 9zm0-3.607c.347 0 .73.073.73.788v.073c0 .69-.42.776-.73.776-.334 0-.742-.086-.742-.776v-.073c0-.715.384-.788.742-.788zm0-3.263c.322 0 .693.086.693.776v.049c0 .69-.396.776-.693.776-.309 0-.704-.087-.704-.776v-.05c0-.689.37-.775.704-.775z" fill="#000" fill-rule="evenodd"/></svg>
