<?xml version="1.0" encoding="UTF-8" standalone="no"?><svg width="100" height="9" viewBox="0 0 100 9" xmlns="http://www.w3.org/2000/svg"><title>MEMBER 0008</title><path d="M3.904 7.473l2.608-5.65v7.03h.729V.172h-.692l-2.941 6.39L.692.172H0v8.68h.729V1.833l2.595 5.64h.58zm8.542-2.684h2.941v-.652h-2.94V.887h4.102V.171h-4.832v8.68h4.832V8.15h-4.103V4.79zm12.175 2.684l2.607-5.65v7.03h.73V.172h-.693l-2.94 6.39-2.916-6.39h-.692v8.68h.729V1.833l2.594 5.64h.581zm7.813 1.38h2.632c1.73 0 2.817-.653 2.817-2.315v-.099c0-1.083-.531-1.687-1.47-1.97.89-.27 1.396-.874 1.396-1.982v-.123c0-1.625-1.1-2.192-2.83-2.192h-2.545v8.68zm4.732-2.512v.135c0 1.268-.84 1.674-2.112 1.674h-1.89V4.765h2.075c1.137 0 1.927.492 1.927 1.576zM33.163.886h1.804c1.273 0 2.113.333 2.113 1.54v.147c0 1.096-.667 1.588-1.792 1.588h-2.125V.886zm9.555 3.903h2.941v-.652h-2.94V.887h4.101V.171h-4.83v8.68h4.83V8.15h-4.102V4.79zM53.41 6.094l2.113 2.758h.877l-2.248-2.88c1.346-.198 2.273-1.096 2.273-2.635v-.32c0-1.823-1.174-2.845-2.916-2.845h-2.52v8.68h.728V6.094h1.693zM51.717.886h1.73c1.31 0 2.249.64 2.249 2.106v.345c0 1.39-.951 2.056-2.249 2.056h-1.73V.886zm16.566 8.102c1.705 0 2.916-1.232 2.916-2.992V3.004C71.199 1.231 69.988 0 68.283 0c-1.73 0-2.929 1.231-2.929 3.004v2.992c0 1.76 1.199 2.992 2.929 2.992zm0-6.895c.333 0 .716.086.716.837v3.14c0 .738-.408.825-.716.825-.31 0-.73-.087-.73-.825V2.93c0-.75.384-.837.73-.837zm9.468 6.895c1.705 0 2.916-1.232 2.916-2.992V3.004c0-1.773-1.21-3.004-2.916-3.004-1.73 0-2.928 1.231-2.928 3.004v2.992c0 1.76 1.198 2.992 2.928 2.992zm0-6.895c.334 0 .717.086.717.837v3.14c0 .738-.408.825-.717.825s-.729-.087-.729-.825V2.93c0-.75.383-.837.73-.837zm9.469 6.895c1.705 0 2.916-1.232 2.916-2.992V3.004C90.136 1.231 88.925 0 87.22 0c-1.73 0-2.928 1.231-2.928 3.004v2.992c0 1.76 1.198 2.992 2.928 2.992zm0-6.895c.334 0 .717.086.717.837v3.14c0 .738-.408.825-.717.825s-.73-.087-.73-.825V2.93c0-.75.384-.837.73-.837zM96.627 9c1.73 0 2.965-.997 2.978-2.512 0-.898-.433-1.526-1.112-1.871.605-.382.963-.997.963-1.97 0-1.502-1.173-2.487-2.83-2.487-1.68 0-2.841.985-2.841 2.475 0 .948.358 1.563.951 1.982-.667.345-1.1.973-1.1 1.871C93.637 8.003 94.86 9 96.627 9zm0-3.607c.346 0 .729.073.729.788v.073c0 .69-.42.776-.73.776-.333 0-.74-.086-.74-.776v-.073c0-.715.383-.788.74-.788zm0-3.263c.321 0 .692.086.692.776v.049c0 .69-.396.776-.692.776-.309 0-.704-.087-.704-.776v-.05c0-.689.37-.775.704-.775z" fill="#000" fill-rule="evenodd"/></svg>
