<?xml version="1.0" encoding="UTF-8" standalone="no"?><svg width="98" height="9" viewBox="0 0 98 9" xmlns="http://www.w3.org/2000/svg"><title>MEMBER 0077</title><path d="M3.904 7.484l2.607-5.66v7.04h.729V.173h-.692L3.608 6.57.692.173H0v8.691h.729V1.837l2.594 5.647h.581zm8.541-2.688h2.94v-.654h-2.94V.888h4.102V.173h-4.83v8.691h4.83v-.702h-4.102V4.796zm12.173 2.688l2.607-5.66v7.04h.73V.173h-.693l-2.94 6.398L21.406.173h-.692v8.691h.73V1.837l2.594 5.647h.58zm7.813 1.38h2.631c1.73 0 2.817-.653 2.817-2.317v-.1c0-1.084-.531-1.688-1.47-1.972.89-.27 1.396-.875 1.396-1.985v-.123c0-1.627-1.1-2.194-2.83-2.194h-2.544v8.691zm4.731-2.515v.136c0 1.27-.84 1.677-2.112 1.677h-1.89v-3.39h2.075c1.137 0 1.927.492 1.927 1.577zM33.16.888h1.804c1.273 0 2.113.333 2.113 1.54v.149c0 1.097-.667 1.59-1.792 1.59H33.16V.887zm9.555 3.908h2.94v-.654h-2.94V.888h4.101V.173h-4.83v8.691h4.83v-.702h-4.101V4.796zm10.69 1.307l2.113 2.761h.877L54.146 5.98c1.346-.197 2.273-1.097 2.273-2.638v-.32c0-1.825-1.174-2.848-2.916-2.848h-2.52v8.691h.729V6.103h1.692zM51.712.888h1.73c1.309 0 2.248.64 2.248 2.108v.345c0 1.393-.951 2.059-2.249 2.059h-1.73V.888zM68.275 9c1.705 0 2.916-1.233 2.916-2.996V3.008C71.19 1.233 69.98 0 68.275 0c-1.73 0-2.928 1.233-2.928 3.008v2.996C65.347 7.767 66.545 9 68.275 9zm0-6.904c.334 0 .717.086.717.838v3.144c0 .74-.408.826-.717.826s-.729-.086-.729-.826V2.934c0-.752.383-.838.73-.838zM77.743 9c1.705 0 2.915-1.233 2.915-2.996V3.008c0-1.775-1.21-3.008-2.915-3.008-1.73 0-2.928 1.233-2.928 3.008v2.996C74.815 7.767 76.013 9 77.743 9zm0-6.904c.333 0 .716.086.716.838v3.144c0 .74-.407.826-.716.826-.31 0-.73-.086-.73-.826V2.934c0-.752.384-.838.73-.838zm9.22 6.768L89.447.16h-5.288v2.108h2.508l-1.903 6.596h2.2zm8.405 0L97.852.16h-5.288v2.108h2.508l-1.903 6.596h2.2z" fill="#000" fill-rule="evenodd"/></svg>
