<?xml version="1.0" encoding="UTF-8" standalone="no"?><svg width="100" height="9" viewBox="0 0 100 9" xmlns="http://www.w3.org/2000/svg"><title>MEMBER 0055</title><path d="M3.905 7.484l2.607-5.66v7.04h.73V.173h-.693L3.61 6.57.691.173H0v8.691h.73V1.837l2.594 5.647h.58zm8.543-2.688h2.941v-.654h-2.941V.888h4.103V.173h-4.832v8.691h4.832v-.702h-4.103V4.796zm12.176 2.688l2.608-5.66v7.04h.729V.173h-.692L24.328 6.57 21.41.173h-.692v8.691h.73V1.837l2.594 5.647h.581zm7.814 1.38h2.632c1.73 0 2.818-.653 2.818-2.317v-.1c0-1.084-.532-1.688-1.47-1.972.889-.27 1.396-.875 1.396-1.985v-.123c0-1.627-1.1-2.194-2.83-2.194h-2.546v8.691zm4.733-2.515v.136c0 1.27-.84 1.677-2.113 1.677h-1.89v-3.39h2.075c1.137 0 1.928.492 1.928 1.577zM33.167.888h1.804c1.273 0 2.113.333 2.113 1.54v.149c0 1.097-.667 1.59-1.791 1.59h-2.126V.887zm9.557 3.908h2.94v-.654h-2.94V.888h4.102V.173h-4.832v8.691h4.832v-.702h-4.102V4.796zm10.693 1.307l2.113 2.761h.877L54.158 5.98c1.347-.197 2.274-1.097 2.274-2.638v-.32c0-1.825-1.174-2.848-2.916-2.848h-2.521v8.691h.729V6.103h1.693zM51.724.888h1.73c1.31 0 2.249.64 2.249 2.108v.345c0 1.393-.952 2.059-2.25 2.059h-1.73V.888zM68.29 9c1.705 0 2.916-1.233 2.916-2.996V3.008c0-1.775-1.21-3.008-2.916-3.008-1.73 0-2.929 1.233-2.929 3.008v2.996C65.362 7.767 66.561 9 68.291 9zm0-6.904c.334 0 .717.086.717.838v3.144c0 .74-.408.826-.717.826s-.73-.086-.73-.826V2.934c0-.752.384-.838.73-.838zM77.761 9c1.705 0 2.916-1.233 2.916-2.996V3.008c0-1.775-1.21-3.008-2.916-3.008-1.73 0-2.929 1.233-2.929 3.008v2.996C74.832 7.767 76.031 9 77.761 9zm0-6.904c.333 0 .717.086.717.838v3.144c0 .74-.408.826-.717.826-.31 0-.73-.086-.73-.826V2.934c0-.752.384-.838.73-.838zm8.679 3.908h-2.2C84.24 7.767 85.44 9 87.17 9c1.718 0 2.916-1.171 2.916-2.934v-.382c0-1.776-.927-2.516-2.385-2.516-.605 0-.939.222-.939.222l.247-1.134h2.682V.16h-4.461l-.865 4.76 2.1.455s.1-.493.693-.493c.395 0 .729.148.729.802v.382c0 .702-.408.838-.717.838-.321 0-.73-.136-.73-.9zm9.396 0h-2.2C93.636 7.767 94.835 9 96.565 9c1.717 0 2.916-1.171 2.916-2.934v-.382c0-1.776-.927-2.516-2.385-2.516-.605 0-.94.222-.94.222l.248-1.134h2.682V.16h-4.461l-.865 4.76 2.1.455s.1-.493.692-.493c.396 0 .73.148.73.802v.382c0 .702-.408.838-.717.838-.322 0-.73-.136-.73-.9z" fill="#000" fill-rule="evenodd"/></svg>
