<?xml version="1.0" encoding="UTF-8" standalone="no"?><svg width="99" height="9" viewBox="0 0 99 9" xmlns="http://www.w3.org/2000/svg"><title>MEMBER 0022</title><path d="M3.878 7.484l2.59-5.66v7.04h.724V.173h-.687L3.584 6.57.687.173H0v8.691h.724V1.837l2.578 5.647h.576zm8.485-2.688h2.921v-.654h-2.92V.888h4.074V.173h-4.799v8.691h4.799v-.702h-4.075V4.796zm12.093 2.688l2.59-5.66v7.04h.724V.173h-.687L24.162 6.57 21.265.173h-.687v8.691h.724V1.837l2.578 5.647h.576zm7.761 1.38h2.614c1.719 0 2.799-.653 2.799-2.317v-.1c0-1.084-.528-1.688-1.46-1.972.883-.27 1.386-.875 1.386-1.985v-.123c0-1.627-1.092-2.194-2.81-2.194h-2.529v8.691zm4.7-2.515v.136c0 1.27-.834 1.677-2.098 1.677h-1.878v-3.39h2.062c1.13 0 1.915.492 1.915 1.577zM32.942.888h1.792c1.264 0 2.099.333 2.099 1.54v.149c0 1.097-.663 1.59-1.78 1.59h-2.11V.887zm9.492 3.908h2.92v-.654h-2.92V.888h4.074V.173H41.71v8.691h4.798v-.702h-4.074V4.796zm10.62 1.307l2.099 2.761h.871L53.79 5.98c1.338-.197 2.259-1.097 2.259-2.638v-.32c0-1.825-1.166-2.848-2.897-2.848h-2.503v8.691h.724V6.103h1.681zM51.372.888h1.718c1.3 0 2.234.64 2.234 2.108v.345c0 1.393-.945 2.059-2.234 2.059h-1.718V.888zM67.826 9c1.694 0 2.896-1.233 2.896-2.996V3.008C70.722 1.233 69.52 0 67.826 0c-1.718 0-2.909 1.233-2.909 3.008v2.996c0 1.763 1.19 2.996 2.909 2.996zm0-6.904c.331 0 .712.086.712.838v3.144c0 .74-.405.826-.712.826-.307 0-.724-.086-.724-.826V2.934c0-.752.38-.838.724-.838zM77.231 9c1.694 0 2.897-1.233 2.897-2.996V3.008C80.128 1.233 78.925 0 77.23 0c-1.718 0-2.908 1.233-2.908 3.008v2.996C74.323 7.767 75.513 9 77.23 9zm0-6.904c.332 0 .712.086.712.838v3.144c0 .74-.405.826-.712.826-.306 0-.724-.086-.724-.826V2.934c0-.752.38-.838.724-.838zm11.995 4.672h-3.424c0-1.072 3.51-1.331 3.51-4.043C89.312 1.11 88.134 0 86.452 0c-1.656 0-2.847 1.147-2.847 2.885h2.148c0-.666.32-.826.712-.826.368 0 .687.173.687.69 0 1.615-3.547 1.455-3.547 4.414v1.701h5.621V6.768zm9.173 0h-3.425c0-1.072 3.51-1.331 3.51-4.043C98.485 1.11 97.307 0 95.625 0c-1.656 0-2.847 1.147-2.847 2.885h2.148c0-.666.32-.826.712-.826.368 0 .687.173.687.69 0 1.615-3.547 1.455-3.547 4.414v1.701H98.4V6.768z" fill="#000" fill-rule="evenodd"/></svg>
